<?xml version="1.0" encoding="UTF-8" standalone="no"?><svg xmlns="http://www.w3.org/2000/svg" xmlns:xlink="http://www.w3.org/1999/xlink" contentScriptType="application/ecmascript" contentStyleType="text/css" height="566px" preserveAspectRatio="none" style="width:844px;height:566px;" version="1.1" viewBox="0 0 844 566" width="844px" zoomAndPan="magnify"><defs/><g><!--cluster org.consensusj.jsonrpc--><rect fill="#FFFFFF" height="251" style="stroke: #000000; stroke-width: 1.5;" width="179" x="297" y="16"/><text fill="#000000" font-family="sans-serif" font-size="14" font-weight="bold" lengthAdjust="spacingAndGlyphs" textLength="163" x="305" y="31.5352">org.consensusj.jsonrpc</text><!--cluster org.consensusj.jsonrpc.groovy--><rect fill="#FFFFFF" height="171" style="stroke: #000000; stroke-width: 1.5;" width="231" x="366" y="384"/><text fill="#000000" font-family="sans-serif" font-size="14" font-weight="bold" lengthAdjust="spacingAndGlyphs" textLength="215" x="374" y="399.5352">org.consensusj.jsonrpc.groovy</text><!--cluster com.msgilligan.bitcoinj.rpc--><rect fill="#FFFFFF" height="263" style="stroke: #000000; stroke-width: 1.5;" width="325" x="14" y="292"/><text fill="#000000" font-family="sans-serif" font-size="14" font-weight="bold" lengthAdjust="spacingAndGlyphs" textLength="193" x="80" y="307.5352">com.msgilligan.bitcoinj.rpc</text><!--cluster com.msgilligan.namecoinj.rpc--><rect fill="#FFFFFF" height="168" style="stroke: #000000; stroke-width: 1.5;" width="228" x="605" y="387"/><text fill="#000000" font-family="sans-serif" font-size="14" font-weight="bold" lengthAdjust="spacingAndGlyphs" textLength="212" x="613" y="402.5352">com.msgilligan.namecoinj.rpc</text><!--class org.consensusj.jsonrpc.UntypedRPCClient--><rect fill="#FEFECE" height="32" id="org.consensusj.jsonrpc.UntypedRPCClient" style="stroke: #A80036; stroke-width: 1.5;" width="135" x="325.5" y="43"/><ellipse cx="340.5" cy="59" fill="#B4A7E5" rx="11" ry="11" style="stroke: #A80036; stroke-width: 1.0;"/><path d="M336.4277,54.7651 L336.4277,52.6069 L343.8071,52.6069 L343.8071,54.7651 L341.3418,54.7651 L341.3418,62.8418 L343.8071,62.8418 L343.8071,65 L336.4277,65 L336.4277,62.8418 L338.8931,62.8418 L338.8931,54.7651 Z "/><text fill="#000000" font-family="sans-serif" font-size="12" font-style="italic" lengthAdjust="spacingAndGlyphs" textLength="103" x="354.5" y="63.5352">UntypedRPCClient</text><!--class org.consensusj.jsonrpc.AbstractRPCClient--><rect fill="#FEFECE" height="32" id="org.consensusj.jsonrpc.AbstractRPCClient" style="stroke: #A80036; stroke-width: 1.5;" width="135" x="318.5" y="135"/><ellipse cx="333.5" cy="151" fill="#A9DCDF" rx="11" ry="11" style="stroke: #A80036; stroke-width: 1.0;"/><path d="M333.6133,146.3481 L332.4595,151.4199 L334.7754,151.4199 Z M332.1191,144.1069 L335.1157,144.1069 L338.4609,156.5 L336.0122,156.5 L335.2485,153.437 L331.9697,153.437 L331.2227,156.5 L328.7739,156.5 Z "/><text fill="#000000" font-family="sans-serif" font-size="12" font-style="italic" lengthAdjust="spacingAndGlyphs" textLength="103" x="347.5" y="155.5352">AbstractRPCClient</text><!--class org.consensusj.jsonrpc.RPCClient--><rect fill="#FEFECE" height="32" id="org.consensusj.jsonrpc.RPCClient" style="stroke: #A80036; stroke-width: 1.5;" width="87" x="340.5" y="227"/><ellipse cx="355.5" cy="243" fill="#ADD1B2" rx="11" ry="11" style="stroke: #A80036; stroke-width: 1.0;"/><path d="M358.4731,248.6431 Q357.8921,248.9419 357.2529,249.0913 Q356.6138,249.2407 355.9082,249.2407 Q353.4014,249.2407 352.0815,247.5889 Q350.7617,245.937 350.7617,242.8159 Q350.7617,239.6865 352.0815,238.0347 Q353.4014,236.3828 355.9082,236.3828 Q356.6138,236.3828 357.2612,236.5322 Q357.9087,236.6816 358.4731,236.9805 L358.4731,239.7031 Q357.8423,239.1221 357.2488,238.8523 Q356.6553,238.5825 356.0244,238.5825 Q354.6797,238.5825 353.9949,239.6492 Q353.3101,240.7158 353.3101,242.8159 Q353.3101,244.9077 353.9949,245.9744 Q354.6797,247.041 356.0244,247.041 Q356.6553,247.041 357.2488,246.7712 Q357.8423,246.5015 358.4731,245.9204 Z "/><text fill="#000000" font-family="sans-serif" font-size="12" lengthAdjust="spacingAndGlyphs" textLength="55" x="369.5" y="247.5352">RPCClient</text><!--class org.consensusj.jsonrpc.groovy.DynamicRPCFallback--><rect fill="#FEFECE" height="38.2656" id="org.consensusj.jsonrpc.groovy.DynamicRPCFallback" style="stroke: #A80036; stroke-width: 1.5;" width="151" x="437.5" y="411"/><ellipse cx="452.5" cy="430.1328" fill="#B4A7E5" rx="11" ry="11" style="stroke: #A80036; stroke-width: 1.0;"/><path d="M448.4277,425.8979 L448.4277,423.7397 L455.8071,423.7397 L455.8071,425.8979 L453.3418,425.8979 L453.3418,433.9746 L455.8071,433.9746 L455.8071,436.1328 L448.4277,436.1328 L448.4277,433.9746 L450.8931,433.9746 L450.8931,425.8979 Z "/><text fill="#000000" font-family="sans-serif" font-size="12" font-style="italic" lengthAdjust="spacingAndGlyphs" textLength="83" x="484.5" y="427.6016">«Groovy, trait»</text><text fill="#000000" font-family="sans-serif" font-size="12" font-style="italic" lengthAdjust="spacingAndGlyphs" textLength="119" x="466.5" y="441.7344">DynamicRPCFallback</text><!--class org.consensusj.jsonrpc.groovy.DynamicRPCClient--><rect fill="#FEFECE" height="38.2656" id="org.consensusj.jsonrpc.groovy.DynamicRPCClient" style="stroke: #A80036; stroke-width: 1.5;" width="136" x="408" y="509"/><ellipse cx="423" cy="528.1328" fill="#ADD1B2" rx="11" ry="11" style="stroke: #A80036; stroke-width: 1.0;"/><path d="M425.9731,533.7759 Q425.3921,534.0747 424.7529,534.2241 Q424.1138,534.3735 423.4082,534.3735 Q420.9014,534.3735 419.5815,532.7217 Q418.2617,531.0698 418.2617,527.9487 Q418.2617,524.8193 419.5815,523.1675 Q420.9014,521.5156 423.4082,521.5156 Q424.1138,521.5156 424.7612,521.665 Q425.4087,521.8145 425.9731,522.1133 L425.9731,524.8359 Q425.3423,524.2549 424.7488,523.9851 Q424.1553,523.7153 423.5244,523.7153 Q422.1797,523.7153 421.4949,524.782 Q420.8101,525.8486 420.8101,527.9487 Q420.8101,530.0405 421.4949,531.1072 Q422.1797,532.1738 423.5244,532.1738 Q424.1553,532.1738 424.7488,531.9041 Q425.3423,531.6343 425.9731,531.0532 Z "/><text fill="#000000" font-family="sans-serif" font-size="12" font-style="italic" lengthAdjust="spacingAndGlyphs" textLength="52" x="463" y="525.6016">«Groovy»</text><text fill="#000000" font-family="sans-serif" font-size="12" lengthAdjust="spacingAndGlyphs" textLength="104" x="437" y="539.7344">DynamicRPCClient</text><!--class com.msgilligan.bitcoinj.rpc.BitcoinClient--><rect fill="#FEFECE" height="32" id="com.msgilligan.bitcoinj.rpc.BitcoinClient" style="stroke: #A80036; stroke-width: 1.5;" width="101" x="225.5" y="319"/><ellipse cx="240.5" cy="335" fill="#ADD1B2" rx="11" ry="11" style="stroke: #A80036; stroke-width: 1.0;"/><path d="M243.4731,340.6431 Q242.8921,340.9419 242.2529,341.0913 Q241.6138,341.2407 240.9082,341.2407 Q238.4014,341.2407 237.0815,339.5889 Q235.7617,337.937 235.7617,334.8159 Q235.7617,331.6865 237.0815,330.0347 Q238.4014,328.3828 240.9082,328.3828 Q241.6138,328.3828 242.2612,328.5322 Q242.9087,328.6816 243.4731,328.9805 L243.4731,331.7031 Q242.8423,331.1221 242.2488,330.8523 Q241.6553,330.5825 241.0244,330.5825 Q239.6797,330.5825 238.9949,331.6492 Q238.3101,332.7158 238.3101,334.8159 Q238.3101,336.9077 238.9949,337.9744 Q239.6797,339.041 241.0244,339.041 Q241.6553,339.041 242.2488,338.7712 Q242.8423,338.5015 243.4731,337.9204 Z "/><text fill="#000000" font-family="sans-serif" font-size="12" lengthAdjust="spacingAndGlyphs" textLength="69" x="254.5" y="339.5352">BitcoinClient</text><!--class com.msgilligan.bitcoinj.rpc.BitcoinExtendedClient--><rect fill="#FEFECE" height="32" id="com.msgilligan.bitcoinj.rpc.BitcoinExtendedClient" style="stroke: #A80036; stroke-width: 1.5;" width="156" x="22" y="414"/><ellipse cx="37" cy="430" fill="#ADD1B2" rx="11" ry="11" style="stroke: #A80036; stroke-width: 1.0;"/><path d="M39.9731,435.6431 Q39.3921,435.9419 38.7529,436.0913 Q38.1138,436.2407 37.4082,436.2407 Q34.9014,436.2407 33.5815,434.5889 Q32.2617,432.937 32.2617,429.8159 Q32.2617,426.6865 33.5815,425.0347 Q34.9014,423.3828 37.4082,423.3828 Q38.1138,423.3828 38.7612,423.5322 Q39.4087,423.6816 39.9731,423.9805 L39.9731,426.7031 Q39.3423,426.1221 38.7488,425.8523 Q38.1553,425.5825 37.5244,425.5825 Q36.1797,425.5825 35.4949,426.6492 Q34.8101,427.7158 34.8101,429.8159 Q34.8101,431.9077 35.4949,432.9744 Q36.1797,434.041 37.5244,434.041 Q38.1553,434.041 38.7488,433.7712 Q39.3423,433.5015 39.9731,432.9204 Z "/><text fill="#000000" font-family="sans-serif" font-size="12" lengthAdjust="spacingAndGlyphs" textLength="124" x="51" y="434.5352">BitcoinExtendedClient</text><!--class com.msgilligan.bitcoinj.rpc.BitcoinScriptingClient--><rect fill="#FEFECE" height="38.2656" id="com.msgilligan.bitcoinj.rpc.BitcoinScriptingClient" style="stroke: #A80036; stroke-width: 1.5;" width="150" x="103" y="509"/><ellipse cx="118" cy="528.1328" fill="#ADD1B2" rx="11" ry="11" style="stroke: #A80036; stroke-width: 1.0;"/><path d="M120.9731,533.7759 Q120.3921,534.0747 119.7529,534.2241 Q119.1138,534.3735 118.4082,534.3735 Q115.9014,534.3735 114.5815,532.7217 Q113.2617,531.0698 113.2617,527.9487 Q113.2617,524.8193 114.5815,523.1675 Q115.9014,521.5156 118.4082,521.5156 Q119.1138,521.5156 119.7612,521.665 Q120.4087,521.8145 120.9731,522.1133 L120.9731,524.8359 Q120.3423,524.2549 119.7488,523.9851 Q119.1553,523.7153 118.5244,523.7153 Q117.1797,523.7153 116.4949,524.782 Q115.8101,525.8486 115.8101,527.9487 Q115.8101,530.0405 116.4949,531.1072 Q117.1797,532.1738 118.5244,532.1738 Q119.1553,532.1738 119.7488,531.9041 Q120.3423,531.6343 120.9731,531.0532 Z "/><text fill="#000000" font-family="sans-serif" font-size="12" font-style="italic" lengthAdjust="spacingAndGlyphs" textLength="52" x="165" y="525.6016">«Groovy»</text><text fill="#000000" font-family="sans-serif" font-size="12" lengthAdjust="spacingAndGlyphs" textLength="118" x="132" y="539.7344">BitcoinScriptingClient</text><!--class com.msgilligan.bitcoinj.rpc.BitcoinCLIClient--><rect fill="#FEFECE" height="38.2656" id="com.msgilligan.bitcoinj.rpc.BitcoinCLIClient" style="stroke: #A80036; stroke-width: 1.5;" width="118" x="213" y="411"/><ellipse cx="228" cy="430.1328" fill="#ADD1B2" rx="11" ry="11" style="stroke: #A80036; stroke-width: 1.0;"/><path d="M230.9731,435.7759 Q230.3921,436.0747 229.7529,436.2241 Q229.1138,436.3735 228.4082,436.3735 Q225.9014,436.3735 224.5815,434.7217 Q223.2617,433.0698 223.2617,429.9487 Q223.2617,426.8193 224.5815,425.1675 Q225.9014,423.5156 228.4082,423.5156 Q229.1138,423.5156 229.7612,423.665 Q230.4087,423.8145 230.9731,424.1133 L230.9731,426.8359 Q230.3423,426.2549 229.7488,425.9851 Q229.1553,425.7153 228.5244,425.7153 Q227.1797,425.7153 226.4949,426.782 Q225.8101,427.8486 225.8101,429.9487 Q225.8101,432.0405 226.4949,433.1072 Q227.1797,434.1738 228.5244,434.1738 Q229.1553,434.1738 229.7488,433.9041 Q230.3423,433.6343 230.9731,433.0532 Z "/><text fill="#000000" font-family="sans-serif" font-size="12" font-style="italic" lengthAdjust="spacingAndGlyphs" textLength="52" x="259" y="427.6016">«Groovy»</text><text fill="#000000" font-family="sans-serif" font-size="12" lengthAdjust="spacingAndGlyphs" textLength="86" x="242" y="441.7344">BitcoinCLIClient</text><!--class com.msgilligan.namecoinj.rpc.NamecoinClient--><rect fill="#FEFECE" height="32" id="com.msgilligan.namecoinj.rpc.NamecoinClient" style="stroke: #A80036; stroke-width: 1.5;" width="121" x="630.5" y="414"/><ellipse cx="645.5" cy="430" fill="#ADD1B2" rx="11" ry="11" style="stroke: #A80036; stroke-width: 1.0;"/><path d="M648.4731,435.6431 Q647.8921,435.9419 647.2529,436.0913 Q646.6138,436.2407 645.9082,436.2407 Q643.4014,436.2407 642.0815,434.5889 Q640.7617,432.937 640.7617,429.8159 Q640.7617,426.6865 642.0815,425.0347 Q643.4014,423.3828 645.9082,423.3828 Q646.6138,423.3828 647.2612,423.5322 Q647.9087,423.6816 648.4731,423.9805 L648.4731,426.7031 Q647.8423,426.1221 647.2488,425.8523 Q646.6553,425.5825 646.0244,425.5825 Q644.6797,425.5825 643.9949,426.6492 Q643.3101,427.7158 643.3101,429.8159 Q643.3101,431.9077 643.9949,432.9744 Q644.6797,434.041 646.0244,434.041 Q646.6553,434.041 647.2488,433.7712 Q647.8423,433.5015 648.4731,432.9204 Z "/><text fill="#000000" font-family="sans-serif" font-size="12" lengthAdjust="spacingAndGlyphs" textLength="89" x="659.5" y="434.5352">NamecoinClient</text><!--class com.msgilligan.namecoinj.rpc.NamecoinScriptingClient--><rect fill="#FEFECE" height="38.2656" id="com.msgilligan.namecoinj.rpc.NamecoinScriptingClient" style="stroke: #A80036; stroke-width: 1.5;" width="170" x="613" y="509"/><ellipse cx="628" cy="528.1328" fill="#ADD1B2" rx="11" ry="11" style="stroke: #A80036; stroke-width: 1.0;"/><path d="M630.9731,533.7759 Q630.3921,534.0747 629.7529,534.2241 Q629.1138,534.3735 628.4082,534.3735 Q625.9014,534.3735 624.5815,532.7217 Q623.2617,531.0698 623.2617,527.9487 Q623.2617,524.8193 624.5815,523.1675 Q625.9014,521.5156 628.4082,521.5156 Q629.1138,521.5156 629.7612,521.665 Q630.4087,521.8145 630.9731,522.1133 L630.9731,524.8359 Q630.3423,524.2549 629.7488,523.9851 Q629.1553,523.7153 628.5244,523.7153 Q627.1797,523.7153 626.4949,524.782 Q625.8101,525.8486 625.8101,527.9487 Q625.8101,530.0405 626.4949,531.1072 Q627.1797,532.1738 628.5244,532.1738 Q629.1553,532.1738 629.7488,531.9041 Q630.3423,531.6343 630.9731,531.0532 Z "/><text fill="#000000" font-family="sans-serif" font-size="12" font-style="italic" lengthAdjust="spacingAndGlyphs" textLength="52" x="685" y="525.6016">«Groovy»</text><text fill="#000000" font-family="sans-serif" font-size="12" lengthAdjust="spacingAndGlyphs" textLength="138" x="642" y="539.7344">NamecoinScriptingClient</text><!--link org.consensusj.jsonrpc.UntypedRPCClient to org.consensusj.jsonrpc.AbstractRPCClient--><path d="M390.2301,95.4048 C389.1897,109.0788 388.0592,123.9368 387.2288,134.8498 " fill="none" id="org.consensusj.jsonrpc.UntypedRPCClient-org.consensusj.jsonrpc.AbstractRPCClient" style="stroke: #A80036; stroke-width: 1.0; stroke-dasharray: 7.0,7.0;"/><polygon fill="none" points="383.2834,94.4364,391.7807,75.0252,397.2431,95.4986,383.2834,94.4364" style="stroke: #A80036; stroke-width: 1.0;"/><!--link org.consensusj.jsonrpc.AbstractRPCClient to org.consensusj.jsonrpc.RPCClient--><path d="M385.2086,187.4048 C384.9113,201.0788 384.5883,215.9368 384.3511,226.8498 " fill="none" id="org.consensusj.jsonrpc.AbstractRPCClient-org.consensusj.jsonrpc.RPCClient" style="stroke: #A80036; stroke-width: 1.0;"/><polygon fill="none" points="378.2185,186.8683,385.6516,167.0252,392.2152,187.1726,378.2185,186.8683" style="stroke: #A80036; stroke-width: 1.0;"/><!--link org.consensusj.jsonrpc.UntypedRPCClient to org.consensusj.jsonrpc.groovy.DynamicRPCFallback--><path d="M432.2815,88.0064 C446.7656,100.7853 461.8564,116.9953 471,135 C519.0195,229.5555 517.0653,361.8434 514.3809,410.7991 " fill="none" id="org.consensusj.jsonrpc.UntypedRPCClient-org.consensusj.jsonrpc.groovy.DynamicRPCFallback" style="stroke: #A80036; stroke-width: 1.0; stroke-dasharray: 7.0,7.0;"/><polygon fill="none" points="427.5824,93.2061,416.5357,75.1238,436.4477,82.3706,427.5824,93.2061" style="stroke: #A80036; stroke-width: 1.0;"/><!--link org.consensusj.jsonrpc.RPCClient to org.consensusj.jsonrpc.groovy.DynamicRPCClient--><path d="M385.5251,279.4028 C388.3756,321.6555 396.5518,392.7302 420,449 C429.3119,471.3462 445.8667,493.549 458.5697,508.6993 " fill="none" id="org.consensusj.jsonrpc.RPCClient-org.consensusj.jsonrpc.groovy.DynamicRPCClient" style="stroke: #A80036; stroke-width: 1.0;"/><polygon fill="none" points="378.5213,279.5216,384.4262,259.1714,392.5007,278.7623,378.5213,279.5216" style="stroke: #A80036; stroke-width: 1.0;"/><!--link org.consensusj.jsonrpc.groovy.DynamicRPCFallback to org.consensusj.jsonrpc.groovy.DynamicRPCClient--><path d="M498.563,468.2385 C493.3342,482.0877 487.6499,497.1434 483.2948,508.6786 " fill="none" id="org.consensusj.jsonrpc.groovy.DynamicRPCFallback-org.consensusj.jsonrpc.groovy.DynamicRPCClient" style="stroke: #A80036; stroke-width: 1.0; stroke-dasharray: 7.0,7.0;"/><polygon fill="none" points="492.0768,465.6,505.69,449.3616,505.1744,470.545,492.0768,465.6" style="stroke: #A80036; stroke-width: 1.0;"/><!--link org.consensusj.jsonrpc.RPCClient to com.msgilligan.bitcoinj.rpc.BitcoinClient--><path d="M349.7952,272.1374 C331.6674,287.5796 310.0851,305.9646 294.959,318.8498 " fill="none" id="org.consensusj.jsonrpc.RPCClient-com.msgilligan.bitcoinj.rpc.BitcoinClient" style="stroke: #A80036; stroke-width: 1.0;"/><polygon fill="none" points="345.4237,266.6658,365.1878,259.0252,354.5022,277.3233,345.4237,266.6658" style="stroke: #A80036; stroke-width: 1.0;"/><!--link com.msgilligan.bitcoinj.rpc.BitcoinClient to com.msgilligan.bitcoinj.rpc.BitcoinExtendedClient--><path d="M228.3502,360.7201 C196.8984,377.6969 156.6695,399.4113 129.7082,413.9643 " fill="none" id="com.msgilligan.bitcoinj.rpc.BitcoinClient-com.msgilligan.bitcoinj.rpc.BitcoinExtendedClient" style="stroke: #A80036; stroke-width: 1.0;"/><polygon fill="none" points="225.2192,354.4555,246.144,351.1155,231.8692,366.7753,225.2192,354.4555" style="stroke: #A80036; stroke-width: 1.0;"/><!--link com.msgilligan.bitcoinj.rpc.BitcoinExtendedClient to com.msgilligan.bitcoinj.rpc.BitcoinScriptingClient--><path d="M125.5681,462.124 C137.838,477.5401 152.1285,495.4947 162.6886,508.7626 " fill="none" id="com.msgilligan.bitcoinj.rpc.BitcoinExtendedClient-com.msgilligan.bitcoinj.rpc.BitcoinScriptingClient" style="stroke: #A80036; stroke-width: 1.0;"/><polygon fill="none" points="119.8581,466.1904,112.8801,446.1827,130.812,457.472,119.8581,466.1904" style="stroke: #A80036; stroke-width: 1.0;"/><!--link org.consensusj.jsonrpc.groovy.DynamicRPCFallback to com.msgilligan.bitcoinj.rpc.BitcoinScriptingClient--><path d="M428.4604,454.731 C370.945,471.5564 295.9709,493.4891 243.0931,508.9578 " fill="none" id="org.consensusj.jsonrpc.groovy.DynamicRPCFallback-com.msgilligan.bitcoinj.rpc.BitcoinScriptingClient" style="stroke: #A80036; stroke-width: 1.0; stroke-dasharray: 7.0,7.0;"/><polygon fill="none" points="426.8505,447.9086,448.0114,449.0116,430.7813,461.3455,426.8505,447.9086" style="stroke: #A80036; stroke-width: 1.0;"/><!--link com.msgilligan.bitcoinj.rpc.BitcoinClient to com.msgilligan.bitcoinj.rpc.BitcoinCLIClient--><path d="M274.4766,371.1811 C273.9081,384.6823 273.2851,399.4789 272.8062,410.8539 " fill="none" id="com.msgilligan.bitcoinj.rpc.BitcoinClient-com.msgilligan.bitcoinj.rpc.BitcoinCLIClient" style="stroke: #A80036; stroke-width: 1.0;"/><polygon fill="none" points="267.4862,370.8032,275.3215,351.1155,281.4738,371.3923,267.4862,370.8032" style="stroke: #A80036; stroke-width: 1.0;"/><!--link com.msgilligan.bitcoinj.rpc.BitcoinClient to com.msgilligan.namecoinj.rpc.NamecoinClient--><path d="M346.7765,338.5281 C414.5227,343.5263 518.8573,355.5004 605,384 C626.8624,391.233 649.7675,403.7633 666.4372,413.9213 " fill="none" id="com.msgilligan.bitcoinj.rpc.BitcoinClient-com.msgilligan.namecoinj.rpc.NamecoinClient" style="stroke: #A80036; stroke-width: 1.0;"/><polygon fill="none" points="346.0453,345.4948,326.5619,337.1643,346.9877,331.5265,346.0453,345.4948" style="stroke: #A80036; stroke-width: 1.0;"/><!--link com.msgilligan.namecoinj.rpc.NamecoinClient to com.msgilligan.namecoinj.rpc.NamecoinScriptingClient--><path d="M693.5824,466.1541 C694.6139,480.5944 695.7597,496.6361 696.6259,508.7626 " fill="none" id="com.msgilligan.namecoinj.rpc.NamecoinClient-com.msgilligan.namecoinj.rpc.NamecoinScriptingClient" style="stroke: #A80036; stroke-width: 1.0; stroke-dasharray: 7.0,7.0;"/><polygon fill="none" points="686.5987,466.6306,692.1559,446.1827,700.5632,465.6331,686.5987,466.6306" style="stroke: #A80036; stroke-width: 1.0;"/><!--link org.consensusj.jsonrpc.groovy.DynamicRPCFallback to com.msgilligan.namecoinj.rpc.NamecoinScriptingClient--><path d="M567.1025,458.6597 C597.6584,474.8461 635.0106,494.6326 661.982,508.9202 " fill="none" id="org.consensusj.jsonrpc.groovy.DynamicRPCFallback-com.msgilligan.namecoinj.rpc.NamecoinScriptingClient" style="stroke: #A80036; stroke-width: 1.0; stroke-dasharray: 7.0,7.0;"/><polygon fill="none" points="563.5057,464.6759,549.109,449.128,570.0592,452.3045,563.5057,464.6759" style="stroke: #A80036; stroke-width: 1.0;"/><!--
@startuml
skinparam packageStyle Rect
skinparam shadowing false
hide empty members

namespace org.consensusj.jsonrpc {
    interface UntypedRPCClient
    abstract class AbstractRPCClient
    class RPCClient

    UntypedRPCClient <|.. AbstractRPCClient
    AbstractRPCClient <|- - RPCClient

}

namespace org.consensusj.jsonrpc.groovy {
  interface DynamicRPCFallback << Groovy, trait >>
  class DynamicRPCClient << Groovy >>

  org.consensusj.jsonrpc.UntypedRPCClient <|.. DynamicRPCFallback
  org.consensusj.jsonrpc.RPCClient <|- - DynamicRPCClient
  DynamicRPCFallback <|.. DynamicRPCClient
}

namespace com.msgilligan.bitcoinj.rpc {
    class BitcoinClient
    class BitcoinExtendedClient

    class BitcoinScriptingClient << Groovy >>
    class BitcoinCLIClient << Groovy >>


    org.consensusj.jsonrpc.RPCClient <|- - BitcoinClient
    BitcoinClient <|- - BitcoinExtendedClient
    BitcoinExtendedClient <|- - BitcoinScriptingClient
    org.consensusj.jsonrpc.groovy.DynamicRPCFallback <|.. BitcoinScriptingClient
    BitcoinClient <|- - BitcoinCLIClient
}

namespace com.msgilligan.namecoinj.rpc {
    class NamecoinClient
    class NamecoinScriptingClient << Groovy >>

    com.msgilligan.bitcoinj.rpc.BitcoinClient <|- - NamecoinClient
    NamecoinClient <|.. NamecoinScriptingClient
    org.consensusj.jsonrpc.groovy.DynamicRPCFallback <|.. NamecoinScriptingClient
}
@enduml

PlantUML version 1.2018.01(Sun Jan 28 10:08:22 PST 2018)
(APACHE source distribution)
Java Runtime: Java(TM) SE Runtime Environment
JVM: Java HotSpot(TM) 64-Bit Server VM
Java Version: 1.8.0_172-b11
Operating System: Mac OS X
OS Version: 10.13.5
Default Encoding: UTF-8
Language: en
Country: US
--></g></svg>