<?xml version="1.0" encoding="UTF-8" standalone="yes"?><svg xmlns="http://www.w3.org/2000/svg" xmlns:xlink="http://www.w3.org/1999/xlink" height="470pt" style="width:478px;height:470px;" version="1.1" viewBox="0 0 478 470" width="478pt"><defs/><g><rect fill="#FFFFFF" height="263" style="stroke: #000000; stroke-width: 2.0;" width="289" x="14" y="16"/><text fill="#000000" font-family="sans-serif" font-size="14" font-weight="bold" lengthAdjust="spacingAndGlyphs" textLength="193" x="62" y="34.5352">com.msgilligan.bitcoinj.rpc</text><rect fill="#FFFFFF" height="260" style="stroke: #000000; stroke-width: 2.0;" width="166" x="311" y="209"/><text fill="#000000" font-family="sans-serif" font-size="14" font-weight="bold" lengthAdjust="spacingAndGlyphs" textLength="144" x="322" y="227.5352">foundation.omni.rpc</text><rect fill="#FEFECE" height="32" style="stroke: #A80036; stroke-width: 1.5;" width="87" x="123.5" y="43"/><ellipse cx="138.5" cy="59" fill="#ADD1B2" rx="11" ry="11" style="stroke: #A80036; stroke-width: 1.0;"/><path d="M141.4731,64.6431 Q140.8921,64.9419 140.2529,65.0913 Q139.6138,65.2407 138.9082,65.2407 Q136.4014,65.2407 135.0815,63.5889 Q133.7617,61.937 133.7617,58.8159 Q133.7617,55.6865 135.0815,54.0347 Q136.4014,52.3828 138.9082,52.3828 Q139.6138,52.3828 140.2612,52.5322 Q140.9087,52.6816 141.4731,52.9805 L141.4731,55.7031 Q140.8423,55.1221 140.2488,54.8523 Q139.6553,54.5825 139.0244,54.5825 Q137.6797,54.5825 136.9949,55.6492 Q136.3101,56.7158 136.3101,58.8159 Q136.3101,60.9077 136.9949,61.9744 Q137.6797,63.041 139.0244,63.041 Q139.6553,63.041 140.2488,62.7712 Q140.8423,62.5015 141.4731,61.9204 Z "/><text fill="#000000" font-family="sans-serif" font-size="12" lengthAdjust="spacingAndGlyphs" textLength="55" x="152.5" y="63.5352">RPCClient</text><rect fill="#FEFECE" height="38.2656" style="stroke: #A80036; stroke-width: 1.5;" width="136" x="22" y="135"/><ellipse cx="37" cy="154.1328" fill="#ADD1B2" rx="11" ry="11" style="stroke: #A80036; stroke-width: 1.0;"/><path d="M39.9731,159.7759 Q39.3921,160.0747 38.7529,160.2241 Q38.1138,160.3735 37.4082,160.3735 Q34.9014,160.3735 33.5815,158.7217 Q32.2617,157.0698 32.2617,153.9487 Q32.2617,150.8193 33.5815,149.1675 Q34.9014,147.5156 37.4082,147.5156 Q38.1138,147.5156 38.7612,147.665 Q39.4087,147.8145 39.9731,148.1133 L39.9731,150.8359 Q39.3423,150.2549 38.7488,149.9851 Q38.1553,149.7153 37.5244,149.7153 Q36.1797,149.7153 35.4949,150.782 Q34.8101,151.8486 34.8101,153.9487 Q34.8101,156.0405 35.4949,157.1072 Q36.1797,158.1738 37.5244,158.1738 Q38.1553,158.1738 38.7488,157.9041 Q39.3423,157.6343 39.9731,157.0532 Z "/><text fill="#000000" font-family="sans-serif" font-size="12" font-style="italic" lengthAdjust="spacingAndGlyphs" textLength="88" x="59" y="151.6016">&lt;&lt; Groovy &gt;&gt;</text><text fill="#000000" font-family="sans-serif" font-size="12" lengthAdjust="spacingAndGlyphs" textLength="104" x="51" y="165.7344">DynamicRPCClient</text><rect fill="#FEFECE" height="32" style="stroke: #A80036; stroke-width: 1.5;" width="101" x="193.5" y="138"/><ellipse cx="208.5" cy="154" fill="#ADD1B2" rx="11" ry="11" style="stroke: #A80036; stroke-width: 1.0;"/><path d="M211.4731,159.6431 Q210.8921,159.9419 210.2529,160.0913 Q209.6138,160.2407 208.9082,160.2407 Q206.4014,160.2407 205.0815,158.5889 Q203.7617,156.937 203.7617,153.8159 Q203.7617,150.6865 205.0815,149.0347 Q206.4014,147.3828 208.9082,147.3828 Q209.6138,147.3828 210.2612,147.5322 Q210.9087,147.6816 211.4731,147.9805 L211.4731,150.7031 Q210.8423,150.1221 210.2488,149.8523 Q209.6553,149.5825 209.0244,149.5825 Q207.6797,149.5825 206.9949,150.6492 Q206.3101,151.7158 206.3101,153.8159 Q206.3101,155.9077 206.9949,156.9744 Q207.6797,158.041 209.0244,158.041 Q209.6553,158.041 210.2488,157.7712 Q210.8423,157.5015 211.4731,156.9204 Z "/><text fill="#000000" font-family="sans-serif" font-size="12" lengthAdjust="spacingAndGlyphs" textLength="69" x="222.5" y="158.5352">BitcoinClient</text><rect fill="#FEFECE" height="38.2656" style="stroke: #A80036; stroke-width: 1.5;" width="118" x="177" y="233"/><ellipse cx="192" cy="252.1328" fill="#ADD1B2" rx="11" ry="11" style="stroke: #A80036; stroke-width: 1.0;"/><path d="M194.9731,257.7759 Q194.3921,258.0747 193.7529,258.2241 Q193.1138,258.3735 192.4082,258.3735 Q189.9014,258.3735 188.5815,256.7217 Q187.2617,255.0698 187.2617,251.9487 Q187.2617,248.8193 188.5815,247.1675 Q189.9014,245.5156 192.4082,245.5156 Q193.1138,245.5156 193.7612,245.665 Q194.4087,245.8145 194.9731,246.1133 L194.9731,248.8359 Q194.3423,248.2549 193.7488,247.9851 Q193.1553,247.7153 192.5244,247.7153 Q191.1797,247.7153 190.4949,248.782 Q189.8101,249.8486 189.8101,251.9487 Q189.8101,254.0405 190.4949,255.1072 Q191.1797,256.1738 192.5244,256.1738 Q193.1553,256.1738 193.7488,255.9041 Q194.3423,255.6343 194.9731,255.0532 Z "/><text fill="#000000" font-family="sans-serif" font-size="12" font-style="italic" lengthAdjust="spacingAndGlyphs" textLength="88" x="205" y="249.6016">&lt;&lt; Groovy &gt;&gt;</text><text fill="#000000" font-family="sans-serif" font-size="12" lengthAdjust="spacingAndGlyphs" textLength="86" x="206" y="263.7344">BitcoinCLIClient</text><rect fill="#FEFECE" height="32" style="stroke: #A80036; stroke-width: 1.5;" width="94" x="338" y="236"/><ellipse cx="353" cy="252" fill="#ADD1B2" rx="11" ry="11" style="stroke: #A80036; stroke-width: 1.0;"/><path d="M355.9731,257.6431 Q355.3921,257.9419 354.7529,258.0913 Q354.1138,258.2407 353.4082,258.2407 Q350.9014,258.2407 349.5815,256.5889 Q348.2617,254.937 348.2617,251.8159 Q348.2617,248.6865 349.5815,247.0347 Q350.9014,245.3828 353.4082,245.3828 Q354.1138,245.3828 354.7612,245.5322 Q355.4087,245.6816 355.9731,245.9805 L355.9731,248.7031 Q355.3423,248.1221 354.7488,247.8523 Q354.1553,247.5825 353.5244,247.5825 Q352.1797,247.5825 351.4949,248.6492 Q350.8101,249.7158 350.8101,251.8159 Q350.8101,253.9077 351.4949,254.9744 Q352.1797,256.041 353.5244,256.041 Q354.1553,256.041 354.7488,255.7712 Q355.3423,255.5015 355.9731,254.9204 Z "/><text fill="#000000" font-family="sans-serif" font-size="12" lengthAdjust="spacingAndGlyphs" textLength="62" x="367" y="256.5352">OmniClient</text><rect fill="#FEFECE" height="32" style="stroke: #A80036; stroke-width: 1.5;" width="149" x="319.5" y="331"/><ellipse cx="334.5" cy="347" fill="#ADD1B2" rx="11" ry="11" style="stroke: #A80036; stroke-width: 1.0;"/><path d="M337.4731,352.6431 Q336.8921,352.9419 336.2529,353.0913 Q335.6138,353.2407 334.9082,353.2407 Q332.4014,353.2407 331.0815,351.5889 Q329.7617,349.937 329.7617,346.8159 Q329.7617,343.6865 331.0815,342.0347 Q332.4014,340.3828 334.9082,340.3828 Q335.6138,340.3828 336.2612,340.5322 Q336.9087,340.6816 337.4731,340.9805 L337.4731,343.7031 Q336.8423,343.1221 336.2488,342.8523 Q335.6553,342.5825 335.0244,342.5825 Q333.6797,342.5825 332.9949,343.6492 Q332.3101,344.7158 332.3101,346.8159 Q332.3101,348.9077 332.9949,349.9744 Q333.6797,351.041 335.0244,351.041 Q335.6553,351.041 336.2488,350.7712 Q336.8423,350.5015 337.4731,349.9204 Z "/><text fill="#000000" font-family="sans-serif" font-size="12" lengthAdjust="spacingAndGlyphs" textLength="117" x="348.5" y="351.5352">OmniExtendedClient</text><rect fill="#FEFECE" height="38.2656" style="stroke: #A80036; stroke-width: 1.5;" width="116" x="336" y="423"/><ellipse cx="351" cy="442.1328" fill="#ADD1B2" rx="11" ry="11" style="stroke: #A80036; stroke-width: 1.0;"/><path d="M353.9731,447.7759 Q353.3921,448.0747 352.7529,448.2241 Q352.1138,448.3735 351.4082,448.3735 Q348.9014,448.3735 347.5815,446.7217 Q346.2617,445.0698 346.2617,441.9487 Q346.2617,438.8193 347.5815,437.1675 Q348.9014,435.5156 351.4082,435.5156 Q352.1138,435.5156 352.7612,435.665 Q353.4087,435.8145 353.9731,436.1133 L353.9731,438.8359 Q353.3423,438.2549 352.7488,437.9851 Q352.1553,437.7153 351.5244,437.7153 Q350.1797,437.7153 349.4949,438.782 Q348.8101,439.8486 348.8101,441.9487 Q348.8101,444.0405 349.4949,445.1072 Q350.1797,446.1738 351.5244,446.1738 Q352.1553,446.1738 352.7488,445.9041 Q353.3423,445.6343 353.9731,445.0532 Z "/><text fill="#000000" font-family="sans-serif" font-size="12" font-style="italic" lengthAdjust="spacingAndGlyphs" textLength="88" x="363" y="439.6016">&lt;&lt; Groovy &gt;&gt;</text><text fill="#000000" font-family="sans-serif" font-size="12" lengthAdjust="spacingAndGlyphs" textLength="79" x="367.5" y="453.7344">OmniCLIClient</text><path d="M141.368,90.958 C129.344,105.48 115.428,122.289 105.1151,134.744 " fill="none" style="stroke: #A80036; stroke-width: 1.0;"/><polygon fill="none" points="136.138,86.298,154.285,75.357,146.922,95.226,136.138,86.298" style="stroke: #A80036; stroke-width: 1.0;"/><path d="M192.483,90.778 C205.598,106.619 220.998,125.218 231.522,137.929 " fill="none" style="stroke: #A80036; stroke-width: 1.0;"/><polygon fill="none" points="187.078,95.226,179.715,75.357,197.862,86.298,187.078,95.226" style="stroke: #A80036; stroke-width: 1.0;"/><path d="M241.05,190.394 C239.843,204.882 238.498,221.02 237.5,232.998 " fill="none" style="stroke: #A80036; stroke-width: 1.0;"/><polygon fill="none" points="234.078,189.774,242.715,170.424,248.029,190.936,234.078,189.774" style="stroke: #A80036; stroke-width: 1.0;"/><path d="M283.157,181.66 C308.824,199.136 341.451,221.35 362.763,235.86 " fill="none" style="stroke: #A80036; stroke-width: 1.0;"/><polygon fill="none" points="278.934,187.254,266.342,170.211,286.813,175.681,278.934,187.254" style="stroke: #A80036; stroke-width: 1.0;"/><path d="M388.423,288.372 C389.849,303.108 391.429,319.429 392.541,330.929 " fill="none" style="stroke: #A80036; stroke-width: 1.0;"/><polygon fill="none" points="381.445,288.938,386.486,268.357,395.38,287.59,381.445,288.938" style="stroke: #A80036; stroke-width: 1.0;"/><path d="M394,383.7659 C394,397.083 394,411.6424 394,422.7441 " fill="none" style="stroke: #A80036; stroke-width: 1.0;"/><polygon fill="none" points="387,383.3571,394,363.357,401,383.357,387,383.3571" style="stroke: #A80036; stroke-width: 1.0;"/></g></svg>