<?xml version="1.0" encoding="UTF-8" standalone="no"?><svg xmlns="http://www.w3.org/2000/svg" xmlns:xlink="http://www.w3.org/1999/xlink" contentScriptType="application/ecmascript" contentStyleType="text/css" height="605px" preserveAspectRatio="none" style="width:884px;height:605px;" version="1.1" viewBox="0 0 884 605" width="884px" zoomAndPan="magnify"><defs/><g><!--cluster org.consensusj.jsonrpc--><rect fill="#FFFFFF" height="267" style="stroke: #000000; stroke-width: 1.5;" width="179" x="313" y="24"/><text fill="#000000" font-family="sans-serif" font-size="14" font-weight="bold" lengthAdjust="spacingAndGlyphs" textLength="163" x="321" y="39.5352">org.consensusj.jsonrpc</text><!--cluster org.consensusj.jsonrpc.groovy--><rect fill="#FFFFFF" height="187" style="stroke: #000000; stroke-width: 1.5;" width="231" x="390" y="407"/><text fill="#000000" font-family="sans-serif" font-size="14" font-weight="bold" lengthAdjust="spacingAndGlyphs" textLength="215" x="398" y="422.5352">org.consensusj.jsonrpc.groovy</text><!--cluster com.msgilligan.bitcoinj.rpc--><rect fill="#FFFFFF" height="279" style="stroke: #000000; stroke-width: 1.5;" width="341" x="22" y="315"/><text fill="#000000" font-family="sans-serif" font-size="14" font-weight="bold" lengthAdjust="spacingAndGlyphs" textLength="193" x="96" y="330.5352">com.msgilligan.bitcoinj.rpc</text><!--cluster com.msgilligan.namecoinj.rpc--><rect fill="#FFFFFF" height="184" style="stroke: #000000; stroke-width: 1.5;" width="228" x="645" y="410"/><text fill="#000000" font-family="sans-serif" font-size="14" font-weight="bold" lengthAdjust="spacingAndGlyphs" textLength="212" x="653" y="425.5352">com.msgilligan.namecoinj.rpc</text><!--class org.consensusj.jsonrpc.UntypedRPCClient--><rect fill="#FEFECE" height="32" id="org.consensusj.jsonrpc.UntypedRPCClient" style="stroke: #A80036; stroke-width: 1.5;" width="135" x="334.5" y="59"/><ellipse cx="349.5" cy="75" fill="#B4A7E5" rx="11" ry="11" style="stroke: #A80036; stroke-width: 1.0;"/><path d="M345.9277,71.2651 L345.9277,69.1069 L353.3071,69.1069 L353.3071,71.2651 L350.8418,71.2651 L350.8418,79.3418 L353.3071,79.3418 L353.3071,81.5 L345.9277,81.5 L345.9277,79.3418 L348.3931,79.3418 L348.3931,71.2651 Z "/><text fill="#000000" font-family="sans-serif" font-size="12" font-style="italic" lengthAdjust="spacingAndGlyphs" textLength="103" x="363.5" y="79.5352">UntypedRPCClient</text><!--class org.consensusj.jsonrpc.AbstractRPCClient--><rect fill="#FEFECE" height="32" id="org.consensusj.jsonrpc.AbstractRPCClient" style="stroke: #A80036; stroke-width: 1.5;" width="135" x="334.5" y="151"/><ellipse cx="349.5" cy="167" fill="#A9DCDF" rx="11" ry="11" style="stroke: #A80036; stroke-width: 1.0;"/><path d="M349.3633,162.3481 L348.2095,167.4199 L350.5254,167.4199 Z M347.8691,160.1069 L350.8657,160.1069 L354.2109,172.5 L351.7622,172.5 L350.9985,169.437 L347.7197,169.437 L346.9727,172.5 L344.5239,172.5 Z "/><text fill="#000000" font-family="sans-serif" font-size="12" font-style="italic" lengthAdjust="spacingAndGlyphs" textLength="103" x="363.5" y="171.5352">AbstractRPCClient</text><!--class org.consensusj.jsonrpc.RPCClient--><rect fill="#FEFECE" height="32" id="org.consensusj.jsonrpc.RPCClient" style="stroke: #A80036; stroke-width: 1.5;" width="87" x="356.5" y="243"/><ellipse cx="371.5" cy="259" fill="#ADD1B2" rx="11" ry="11" style="stroke: #A80036; stroke-width: 1.0;"/><path d="M373.9731,265.1431 Q373.3921,265.4419 372.7529,265.5913 Q372.1138,265.7407 371.4082,265.7407 Q368.9014,265.7407 367.5815,264.0889 Q366.2617,262.437 366.2617,259.3159 Q366.2617,256.1865 367.5815,254.5347 Q368.9014,252.8828 371.4082,252.8828 Q372.1138,252.8828 372.7612,253.0322 Q373.4087,253.1816 373.9731,253.4805 L373.9731,256.2031 Q373.3423,255.6221 372.7488,255.3523 Q372.1553,255.0825 371.5244,255.0825 Q370.1797,255.0825 369.4949,256.1492 Q368.8101,257.2158 368.8101,259.3159 Q368.8101,261.4077 369.4949,262.4744 Q370.1797,263.541 371.5244,263.541 Q372.1553,263.541 372.7488,263.2712 Q373.3423,263.0015 373.9731,262.4204 Z "/><text fill="#000000" font-family="sans-serif" font-size="12" lengthAdjust="spacingAndGlyphs" textLength="55" x="385.5" y="263.5352">RPCClient</text><!--class org.consensusj.jsonrpc.groovy.DynamicRPCFallback--><rect fill="#FEFECE" height="38.2656" id="org.consensusj.jsonrpc.groovy.DynamicRPCFallback" style="stroke: #A80036; stroke-width: 1.5;" width="151" x="453.5" y="442"/><ellipse cx="468.5" cy="461.1328" fill="#B4A7E5" rx="11" ry="11" style="stroke: #A80036; stroke-width: 1.0;"/><path d="M464.9277,457.3979 L464.9277,455.2397 L472.3071,455.2397 L472.3071,457.3979 L469.8418,457.3979 L469.8418,465.4746 L472.3071,465.4746 L472.3071,467.6328 L464.9277,467.6328 L464.9277,465.4746 L467.3931,465.4746 L467.3931,457.3979 Z "/><text fill="#000000" font-family="sans-serif" font-size="12" font-style="italic" lengthAdjust="spacingAndGlyphs" textLength="83" x="500.5" y="458.6016">«Groovy, trait»</text><text fill="#000000" font-family="sans-serif" font-size="12" font-style="italic" lengthAdjust="spacingAndGlyphs" textLength="119" x="482.5" y="472.7344">DynamicRPCFallback</text><!--class org.consensusj.jsonrpc.groovy.DynamicRPCClient--><rect fill="#FEFECE" height="38.2656" id="org.consensusj.jsonrpc.groovy.DynamicRPCClient" style="stroke: #A80036; stroke-width: 1.5;" width="136" x="457" y="540"/><ellipse cx="472" cy="559.1328" fill="#ADD1B2" rx="11" ry="11" style="stroke: #A80036; stroke-width: 1.0;"/><path d="M474.4731,565.2759 Q473.8921,565.5747 473.2529,565.7241 Q472.6138,565.8735 471.9082,565.8735 Q469.4014,565.8735 468.0815,564.2217 Q466.7617,562.5698 466.7617,559.4487 Q466.7617,556.3193 468.0815,554.6675 Q469.4014,553.0156 471.9082,553.0156 Q472.6138,553.0156 473.2612,553.165 Q473.9087,553.3145 474.4731,553.6133 L474.4731,556.3359 Q473.8423,555.7549 473.2488,555.4851 Q472.6553,555.2153 472.0244,555.2153 Q470.6797,555.2153 469.9949,556.282 Q469.3101,557.3486 469.3101,559.4487 Q469.3101,561.5405 469.9949,562.6072 Q470.6797,563.6738 472.0244,563.6738 Q472.6553,563.6738 473.2488,563.4041 Q473.8423,563.1343 474.4731,562.5532 Z "/><text fill="#000000" font-family="sans-serif" font-size="12" font-style="italic" lengthAdjust="spacingAndGlyphs" textLength="52" x="512" y="556.6016">«Groovy»</text><text fill="#000000" font-family="sans-serif" font-size="12" lengthAdjust="spacingAndGlyphs" textLength="104" x="486" y="570.7344">DynamicRPCClient</text><!--class com.msgilligan.bitcoinj.rpc.BitcoinClient--><rect fill="#FEFECE" height="32" id="com.msgilligan.bitcoinj.rpc.BitcoinClient" style="stroke: #A80036; stroke-width: 1.5;" width="101" x="241.5" y="350"/><ellipse cx="256.5" cy="366" fill="#ADD1B2" rx="11" ry="11" style="stroke: #A80036; stroke-width: 1.0;"/><path d="M258.9731,372.1431 Q258.3921,372.4419 257.7529,372.5913 Q257.1138,372.7407 256.4082,372.7407 Q253.9014,372.7407 252.5815,371.0889 Q251.2617,369.437 251.2617,366.3159 Q251.2617,363.1865 252.5815,361.5347 Q253.9014,359.8828 256.4082,359.8828 Q257.1138,359.8828 257.7612,360.0322 Q258.4087,360.1816 258.9731,360.4805 L258.9731,363.2031 Q258.3423,362.6221 257.7488,362.3523 Q257.1553,362.0825 256.5244,362.0825 Q255.1797,362.0825 254.4949,363.1492 Q253.8101,364.2158 253.8101,366.3159 Q253.8101,368.4077 254.4949,369.4744 Q255.1797,370.541 256.5244,370.541 Q257.1553,370.541 257.7488,370.2712 Q258.3423,370.0015 258.9731,369.4204 Z "/><text fill="#000000" font-family="sans-serif" font-size="12" lengthAdjust="spacingAndGlyphs" textLength="69" x="270.5" y="370.5352">BitcoinClient</text><!--class com.msgilligan.bitcoinj.rpc.BitcoinExtendedClient--><rect fill="#FEFECE" height="32" id="com.msgilligan.bitcoinj.rpc.BitcoinExtendedClient" style="stroke: #A80036; stroke-width: 1.5;" width="156" x="38" y="445"/><ellipse cx="53" cy="461" fill="#ADD1B2" rx="11" ry="11" style="stroke: #A80036; stroke-width: 1.0;"/><path d="M55.4731,467.1431 Q54.8921,467.4419 54.2529,467.5913 Q53.6138,467.7407 52.9082,467.7407 Q50.4014,467.7407 49.0815,466.0889 Q47.7617,464.437 47.7617,461.3159 Q47.7617,458.1865 49.0815,456.5347 Q50.4014,454.8828 52.9082,454.8828 Q53.6138,454.8828 54.2612,455.0322 Q54.9087,455.1816 55.4731,455.4805 L55.4731,458.2031 Q54.8423,457.6221 54.2488,457.3523 Q53.6553,457.0825 53.0244,457.0825 Q51.6797,457.0825 50.9949,458.1492 Q50.3101,459.2158 50.3101,461.3159 Q50.3101,463.4077 50.9949,464.4744 Q51.6797,465.541 53.0244,465.541 Q53.6553,465.541 54.2488,465.2712 Q54.8423,465.0015 55.4731,464.4204 Z "/><text fill="#000000" font-family="sans-serif" font-size="12" lengthAdjust="spacingAndGlyphs" textLength="124" x="67" y="465.5352">BitcoinExtendedClient</text><!--class com.msgilligan.bitcoinj.rpc.BitcoinScriptingClient--><rect fill="#FEFECE" height="38.2656" id="com.msgilligan.bitcoinj.rpc.BitcoinScriptingClient" style="stroke: #A80036; stroke-width: 1.5;" width="150" x="119" y="540"/><ellipse cx="134" cy="559.1328" fill="#ADD1B2" rx="11" ry="11" style="stroke: #A80036; stroke-width: 1.0;"/><path d="M136.4731,565.2759 Q135.8921,565.5747 135.2529,565.7241 Q134.6138,565.8735 133.9082,565.8735 Q131.4014,565.8735 130.0815,564.2217 Q128.7617,562.5698 128.7617,559.4487 Q128.7617,556.3193 130.0815,554.6675 Q131.4014,553.0156 133.9082,553.0156 Q134.6138,553.0156 135.2612,553.165 Q135.9087,553.3145 136.4731,553.6133 L136.4731,556.3359 Q135.8423,555.7549 135.2488,555.4851 Q134.6553,555.2153 134.0244,555.2153 Q132.6797,555.2153 131.9949,556.282 Q131.3101,557.3486 131.3101,559.4487 Q131.3101,561.5405 131.9949,562.6072 Q132.6797,563.6738 134.0244,563.6738 Q134.6553,563.6738 135.2488,563.4041 Q135.8423,563.1343 136.4731,562.5532 Z "/><text fill="#000000" font-family="sans-serif" font-size="12" font-style="italic" lengthAdjust="spacingAndGlyphs" textLength="52" x="181" y="556.6016">«Groovy»</text><text fill="#000000" font-family="sans-serif" font-size="12" lengthAdjust="spacingAndGlyphs" textLength="118" x="148" y="570.7344">BitcoinScriptingClient</text><!--class com.msgilligan.bitcoinj.rpc.BitcoinCLIClient--><rect fill="#FEFECE" height="38.2656" id="com.msgilligan.bitcoinj.rpc.BitcoinCLIClient" style="stroke: #A80036; stroke-width: 1.5;" width="118" x="229" y="442"/><ellipse cx="244" cy="461.1328" fill="#ADD1B2" rx="11" ry="11" style="stroke: #A80036; stroke-width: 1.0;"/><path d="M246.4731,467.2759 Q245.8921,467.5747 245.2529,467.7241 Q244.6138,467.8735 243.9082,467.8735 Q241.4014,467.8735 240.0815,466.2217 Q238.7617,464.5698 238.7617,461.4487 Q238.7617,458.3193 240.0815,456.6675 Q241.4014,455.0156 243.9082,455.0156 Q244.6138,455.0156 245.2612,455.165 Q245.9087,455.3145 246.4731,455.6133 L246.4731,458.3359 Q245.8423,457.7549 245.2488,457.4851 Q244.6553,457.2153 244.0244,457.2153 Q242.6797,457.2153 241.9949,458.282 Q241.3101,459.3486 241.3101,461.4487 Q241.3101,463.5405 241.9949,464.6072 Q242.6797,465.6738 244.0244,465.6738 Q244.6553,465.6738 245.2488,465.4041 Q245.8423,465.1343 246.4731,464.5532 Z "/><text fill="#000000" font-family="sans-serif" font-size="12" font-style="italic" lengthAdjust="spacingAndGlyphs" textLength="52" x="275" y="458.6016">«Groovy»</text><text fill="#000000" font-family="sans-serif" font-size="12" lengthAdjust="spacingAndGlyphs" textLength="86" x="258" y="472.7344">BitcoinCLIClient</text><!--class com.msgilligan.namecoinj.rpc.NamecoinClient--><rect fill="#FEFECE" height="32" id="com.msgilligan.namecoinj.rpc.NamecoinClient" style="stroke: #A80036; stroke-width: 1.5;" width="121" x="673.5" y="445"/><ellipse cx="688.5" cy="461" fill="#ADD1B2" rx="11" ry="11" style="stroke: #A80036; stroke-width: 1.0;"/><path d="M690.9731,467.1431 Q690.3921,467.4419 689.7529,467.5913 Q689.1138,467.7407 688.4082,467.7407 Q685.9014,467.7407 684.5815,466.0889 Q683.2617,464.437 683.2617,461.3159 Q683.2617,458.1865 684.5815,456.5347 Q685.9014,454.8828 688.4082,454.8828 Q689.1138,454.8828 689.7612,455.0322 Q690.4087,455.1816 690.9731,455.4805 L690.9731,458.2031 Q690.3423,457.6221 689.7488,457.3523 Q689.1553,457.0825 688.5244,457.0825 Q687.1797,457.0825 686.4949,458.1492 Q685.8101,459.2158 685.8101,461.3159 Q685.8101,463.4077 686.4949,464.4744 Q687.1797,465.541 688.5244,465.541 Q689.1553,465.541 689.7488,465.2712 Q690.3423,465.0015 690.9731,464.4204 Z "/><text fill="#000000" font-family="sans-serif" font-size="12" lengthAdjust="spacingAndGlyphs" textLength="89" x="702.5" y="465.5352">NamecoinClient</text><!--class com.msgilligan.namecoinj.rpc.NamecoinScriptingClient--><rect fill="#FEFECE" height="38.2656" id="com.msgilligan.namecoinj.rpc.NamecoinScriptingClient" style="stroke: #A80036; stroke-width: 1.5;" width="170" x="661" y="540"/><ellipse cx="676" cy="559.1328" fill="#ADD1B2" rx="11" ry="11" style="stroke: #A80036; stroke-width: 1.0;"/><path d="M678.4731,565.2759 Q677.8921,565.5747 677.2529,565.7241 Q676.6138,565.8735 675.9082,565.8735 Q673.4014,565.8735 672.0815,564.2217 Q670.7617,562.5698 670.7617,559.4487 Q670.7617,556.3193 672.0815,554.6675 Q673.4014,553.0156 675.9082,553.0156 Q676.6138,553.0156 677.2612,553.165 Q677.9087,553.3145 678.4731,553.6133 L678.4731,556.3359 Q677.8423,555.7549 677.2488,555.4851 Q676.6553,555.2153 676.0244,555.2153 Q674.6797,555.2153 673.9949,556.282 Q673.3101,557.3486 673.3101,559.4487 Q673.3101,561.5405 673.9949,562.6072 Q674.6797,563.6738 676.0244,563.6738 Q676.6553,563.6738 677.2488,563.4041 Q677.8423,563.1343 678.4731,562.5532 Z "/><text fill="#000000" font-family="sans-serif" font-size="12" font-style="italic" lengthAdjust="spacingAndGlyphs" textLength="52" x="733" y="556.6016">«Groovy»</text><text fill="#000000" font-family="sans-serif" font-size="12" lengthAdjust="spacingAndGlyphs" textLength="138" x="690" y="570.7344">NamecoinScriptingClient</text><!--link org.consensusj.jsonrpc.UntypedRPCClient to org.consensusj.jsonrpc.AbstractRPCClient--><path d="M402,111.61 C402,125.31 402,140.22 402,150.96 " fill="none" id="org.consensusj.jsonrpc.UntypedRPCClient-org.consensusj.jsonrpc.AbstractRPCClient" style="stroke: #A80036; stroke-width: 1.0; stroke-dasharray: 7.0,7.0;"/><polygon fill="none" points="395,111.27,402,91.27,409,111.27,395,111.27" style="stroke: #A80036; stroke-width: 1.0;"/><!--link org.consensusj.jsonrpc.AbstractRPCClient to org.consensusj.jsonrpc.RPCClient--><path d="M401.21,203.61 C400.9,217.31 400.57,232.22 400.33,242.96 " fill="none" id="org.consensusj.jsonrpc.AbstractRPCClient-org.consensusj.jsonrpc.RPCClient" style="stroke: #A80036; stroke-width: 1.0;"/><polygon fill="none" points="394.22,203.11,401.66,183.27,408.21,203.42,394.22,203.11" style="stroke: #A80036; stroke-width: 1.0;"/><!--link org.consensusj.jsonrpc.UntypedRPCClient to org.consensusj.jsonrpc.groovy.DynamicRPCFallback--><path d="M443.51,102.79 C459.7,115.43 476.8,131.94 487,151 C540.14,250.28 534.65,392.22 530.73,441.96 " fill="none" id="org.consensusj.jsonrpc.UntypedRPCClient-org.consensusj.jsonrpc.groovy.DynamicRPCFallback" style="stroke: #A80036; stroke-width: 1.0; stroke-dasharray: 7.0,7.0;"/><polygon fill="none" points="439.4,108.46,427.28,91.07,447.59,97.11,439.4,108.46" style="stroke: #A80036; stroke-width: 1.0;"/><!--link org.consensusj.jsonrpc.RPCClient to org.consensusj.jsonrpc.groovy.DynamicRPCClient--><path d="M398.65,295.38 C398.45,340.93 403.38,421.22 436,480 C449.96,505.15 475.27,526.12 495.34,539.96 " fill="none" id="org.consensusj.jsonrpc.RPCClient-org.consensusj.jsonrpc.groovy.DynamicRPCClient" style="stroke: #A80036; stroke-width: 1.0;"/><polygon fill="none" points="391.66,295.11,399.1,275.27,405.66,295.42,391.66,295.11" style="stroke: #A80036; stroke-width: 1.0;"/><!--link org.consensusj.jsonrpc.groovy.DynamicRPCFallback to org.consensusj.jsonrpc.groovy.DynamicRPCClient--><path d="M527.4,500.43 C526.83,513.98 526.23,528.59 525.76,539.7 " fill="none" id="org.consensusj.jsonrpc.groovy.DynamicRPCFallback-org.consensusj.jsonrpc.groovy.DynamicRPCClient" style="stroke: #A80036; stroke-width: 1.0; stroke-dasharray: 7.0,7.0;"/><polygon fill="none" points="520.42,499.75,528.25,480.06,534.41,500.33,520.42,499.75" style="stroke: #A80036; stroke-width: 1.0;"/><!--link org.consensusj.jsonrpc.RPCClient to com.msgilligan.bitcoinj.rpc.BitcoinClient--><path d="M370.06,289.11 C349.74,308.86 323.71,334.17 307.45,349.98 " fill="none" id="org.consensusj.jsonrpc.RPCClient-com.msgilligan.bitcoinj.rpc.BitcoinClient" style="stroke: #A80036; stroke-width: 1.0;"/><polygon fill="none" points="365.31,283.97,384.53,275.04,375.07,294,365.31,283.97" style="stroke: #A80036; stroke-width: 1.0;"/><!--link com.msgilligan.bitcoinj.rpc.BitcoinClient to com.msgilligan.bitcoinj.rpc.BitcoinExtendedClient--><path d="M231.58,389.77 C224.89,392.7 218.25,395.8 212,399 C185.28,412.68 156.45,431.62 137.43,444.75 " fill="none" id="com.msgilligan.bitcoinj.rpc.BitcoinClient-com.msgilligan.bitcoinj.rpc.BitcoinExtendedClient" style="stroke: #A80036; stroke-width: 1.0;"/><polygon fill="none" points="229.08,383.22,250.24,382.01,234.46,396.15,229.08,383.22" style="stroke: #A80036; stroke-width: 1.0;"/><!--link com.msgilligan.bitcoinj.rpc.BitcoinExtendedClient to com.msgilligan.bitcoinj.rpc.BitcoinScriptingClient--><path d="M141.47,493.35 C154.03,508.81 168.73,526.89 179.37,540 " fill="none" id="com.msgilligan.bitcoinj.rpc.BitcoinExtendedClient-com.msgilligan.bitcoinj.rpc.BitcoinScriptingClient" style="stroke: #A80036; stroke-width: 1.0;"/><polygon fill="none" points="135.71,497.36,128.53,477.42,146.58,488.53,135.71,497.36" style="stroke: #A80036; stroke-width: 1.0;"/><!--link org.consensusj.jsonrpc.groovy.DynamicRPCFallback to com.msgilligan.bitcoinj.rpc.BitcoinScriptingClient--><path d="M446.53,485.63 C388,502.4 310.62,524.58 257.01,539.94 " fill="none" id="org.consensusj.jsonrpc.groovy.DynamicRPCFallback-com.msgilligan.bitcoinj.rpc.BitcoinScriptingClient" style="stroke: #A80036; stroke-width: 1.0; stroke-dasharray: 7.0,7.0;"/><polygon fill="none" points="444.83,478.84,465.99,480.06,448.69,492.3,444.83,478.84" style="stroke: #A80036; stroke-width: 1.0;"/><!--link com.msgilligan.bitcoinj.rpc.BitcoinClient to com.msgilligan.bitcoinj.rpc.BitcoinCLIClient--><path d="M290.46,402.77 C289.89,416.08 289.26,430.64 288.79,441.74 " fill="none" id="com.msgilligan.bitcoinj.rpc.BitcoinClient-com.msgilligan.bitcoinj.rpc.BitcoinCLIClient" style="stroke: #A80036; stroke-width: 1.0;"/><polygon fill="none" points="283.49,402.04,291.34,382.36,297.47,402.64,283.49,402.04" style="stroke: #A80036; stroke-width: 1.0;"/><!--link com.msgilligan.bitcoinj.rpc.BitcoinClient to com.msgilligan.namecoinj.rpc.NamecoinClient--><path d="M362.78,370.6 C444.71,375.34 574.37,384.78 621,399 C654.91,409.34 690.29,430.37 712.23,444.82 " fill="none" id="com.msgilligan.bitcoinj.rpc.BitcoinClient-com.msgilligan.namecoinj.rpc.NamecoinClient" style="stroke: #A80036; stroke-width: 1.0;"/><polygon fill="none" points="362.38,377.59,342.81,369.48,363.17,363.61,362.38,377.59" style="stroke: #A80036; stroke-width: 1.0;"/><!--link com.msgilligan.namecoinj.rpc.NamecoinClient to com.msgilligan.namecoinj.rpc.NamecoinScriptingClient--><path d="M738.42,497.39 C740.24,511.88 742.25,528.02 743.75,540 " fill="none" id="com.msgilligan.namecoinj.rpc.NamecoinClient-com.msgilligan.namecoinj.rpc.NamecoinScriptingClient" style="stroke: #A80036; stroke-width: 1.0; stroke-dasharray: 7.0,7.0;"/><polygon fill="none" points="731.46,498.14,735.93,477.42,745.35,496.4,731.46,498.14" style="stroke: #A80036; stroke-width: 1.0;"/><!--link org.consensusj.jsonrpc.groovy.DynamicRPCFallback to com.msgilligan.namecoinj.rpc.NamecoinScriptingClient--><path d="M588.18,488.18 C625.22,504.57 672.01,525.27 705,539.86 " fill="none" id="org.consensusj.jsonrpc.groovy.DynamicRPCFallback-com.msgilligan.namecoinj.rpc.NamecoinScriptingClient" style="stroke: #A80036; stroke-width: 1.0; stroke-dasharray: 7.0,7.0;"/><polygon fill="none" points="585.27,494.55,569.82,480.06,590.94,481.75,585.27,494.55" style="stroke: #A80036; stroke-width: 1.0;"/><!--
@startuml
skinparam packageStyle Rect
skinparam shadowing false
hide empty members

namespace org.consensusj.jsonrpc {
    interface UntypedRPCClient
    abstract class AbstractRPCClient
    class RPCClient

    UntypedRPCClient <|.. AbstractRPCClient
    AbstractRPCClient <|- - RPCClient

}

namespace org.consensusj.jsonrpc.groovy {
  interface DynamicRPCFallback << Groovy, trait >>
  class DynamicRPCClient << Groovy >>

  org.consensusj.jsonrpc.UntypedRPCClient <|.. DynamicRPCFallback
  org.consensusj.jsonrpc.RPCClient <|- - DynamicRPCClient
  DynamicRPCFallback <|.. DynamicRPCClient
}

namespace com.msgilligan.bitcoinj.rpc {
    class BitcoinClient
    class BitcoinExtendedClient

    class BitcoinScriptingClient << Groovy >>
    class BitcoinCLIClient << Groovy >>


    org.consensusj.jsonrpc.RPCClient <|- - BitcoinClient
    BitcoinClient <|- - BitcoinExtendedClient
    BitcoinExtendedClient <|- - BitcoinScriptingClient
    org.consensusj.jsonrpc.groovy.DynamicRPCFallback <|.. BitcoinScriptingClient
    BitcoinClient <|- - BitcoinCLIClient
}

namespace com.msgilligan.namecoinj.rpc {
    class NamecoinClient
    class NamecoinScriptingClient << Groovy >>

    com.msgilligan.bitcoinj.rpc.BitcoinClient <|- - NamecoinClient
    NamecoinClient <|.. NamecoinScriptingClient
    org.consensusj.jsonrpc.groovy.DynamicRPCFallback <|.. NamecoinScriptingClient
}
@enduml

PlantUML version 1.2018.01(Sun Jan 28 10:08:22 PST 2018)
(APACHE source distribution)
Java Runtime: OpenJDK Runtime Environment
JVM: OpenJDK 64-Bit Server VM
Java Version: 11.0.10+8-jvmci-21.0-b06
Operating System: Mac OS X
OS Version: 10.14.6
Default Encoding: UTF-8
Language: en
Country: US
--></g></svg>