<?xml version="1.0" encoding="UTF-8" standalone="no"?><svg xmlns="http://www.w3.org/2000/svg" xmlns:xlink="http://www.w3.org/1999/xlink" contentScriptType="application/ecmascript" contentStyleType="text/css" height="566px" preserveAspectRatio="none" style="width:844px;height:566px;" version="1.1" viewBox="0 0 844 566" width="844px" zoomAndPan="magnify"><defs/><g><!--cluster org.consensusj.jsonrpc--><rect fill="#FFFFFF" height="251" style="stroke: #000000; stroke-width: 1.5;" width="179" x="297" y="16"/><text fill="#000000" font-family="sans-serif" font-size="14" font-weight="bold" lengthAdjust="spacingAndGlyphs" textLength="163" x="305" y="31.5352">org.consensusj.jsonrpc</text><!--cluster org.consensusj.jsonrpc.groovy--><rect fill="#FFFFFF" height="171" style="stroke: #000000; stroke-width: 1.5;" width="231" x="366" y="384"/><text fill="#000000" font-family="sans-serif" font-size="14" font-weight="bold" lengthAdjust="spacingAndGlyphs" textLength="215" x="374" y="399.5352">org.consensusj.jsonrpc.groovy</text><!--cluster com.msgilligan.bitcoinj.rpc--><rect fill="#FFFFFF" height="263" style="stroke: #000000; stroke-width: 1.5;" width="325" x="14" y="292"/><text fill="#000000" font-family="sans-serif" font-size="14" font-weight="bold" lengthAdjust="spacingAndGlyphs" textLength="193" x="80" y="307.5352">com.msgilligan.bitcoinj.rpc</text><!--cluster com.msgilligan.namecoinj.rpc--><rect fill="#FFFFFF" height="168" style="stroke: #000000; stroke-width: 1.5;" width="228" x="605" y="387"/><text fill="#000000" font-family="sans-serif" font-size="14" font-weight="bold" lengthAdjust="spacingAndGlyphs" textLength="212" x="613" y="402.5352">com.msgilligan.namecoinj.rpc</text><!--class org.consensusj.jsonrpc.UntypedRPCClient--><rect fill="#FEFECE" height="32" id="org.consensusj.jsonrpc.UntypedRPCClient" style="stroke: #A80036; stroke-width: 1.5;" width="135" x="325.5" y="43"/><ellipse cx="340.5" cy="59" fill="#B4A7E5" rx="11" ry="11" style="stroke: #A80036; stroke-width: 1.0;"/><path d="M336.9277,55.2651 L336.9277,53.1069 L344.3071,53.1069 L344.3071,55.2651 L341.8418,55.2651 L341.8418,63.3418 L344.3071,63.3418 L344.3071,65.5 L336.9277,65.5 L336.9277,63.3418 L339.3931,63.3418 L339.3931,55.2651 Z "/><text fill="#000000" font-family="sans-serif" font-size="12" font-style="italic" lengthAdjust="spacingAndGlyphs" textLength="103" x="354.5" y="63.5352">UntypedRPCClient</text><!--class org.consensusj.jsonrpc.AbstractRPCClient--><rect fill="#FEFECE" height="32" id="org.consensusj.jsonrpc.AbstractRPCClient" style="stroke: #A80036; stroke-width: 1.5;" width="135" x="318.5" y="135"/><ellipse cx="333.5" cy="151" fill="#A9DCDF" rx="11" ry="11" style="stroke: #A80036; stroke-width: 1.0;"/><path d="M333.6133,146.5981 L332.4595,151.6699 L334.7754,151.6699 Z M332.1191,144.3569 L335.1157,144.3569 L338.4609,156.75 L336.0122,156.75 L335.2485,153.687 L331.9697,153.687 L331.2227,156.75 L328.7739,156.75 Z "/><text fill="#000000" font-family="sans-serif" font-size="12" font-style="italic" lengthAdjust="spacingAndGlyphs" textLength="103" x="347.5" y="155.5352">AbstractRPCClient</text><!--class org.consensusj.jsonrpc.RPCClient--><rect fill="#FEFECE" height="32" id="org.consensusj.jsonrpc.RPCClient" style="stroke: #A80036; stroke-width: 1.5;" width="87" x="340.5" y="227"/><ellipse cx="355.5" cy="243" fill="#ADD1B2" rx="11" ry="11" style="stroke: #A80036; stroke-width: 1.0;"/><path d="M357.9731,249.1431 Q357.3921,249.4419 356.7529,249.5913 Q356.1138,249.7407 355.4082,249.7407 Q352.9014,249.7407 351.5815,248.0889 Q350.2617,246.437 350.2617,243.3159 Q350.2617,240.1865 351.5815,238.5347 Q352.9014,236.8828 355.4082,236.8828 Q356.1138,236.8828 356.7612,237.0322 Q357.4087,237.1816 357.9731,237.4805 L357.9731,240.2031 Q357.3423,239.6221 356.7488,239.3523 Q356.1553,239.0825 355.5244,239.0825 Q354.1797,239.0825 353.4949,240.1492 Q352.8101,241.2158 352.8101,243.3159 Q352.8101,245.4077 353.4949,246.4744 Q354.1797,247.541 355.5244,247.541 Q356.1553,247.541 356.7488,247.2712 Q357.3423,247.0015 357.9731,246.4204 Z "/><text fill="#000000" font-family="sans-serif" font-size="12" lengthAdjust="spacingAndGlyphs" textLength="55" x="369.5" y="247.5352">RPCClient</text><!--class org.consensusj.jsonrpc.groovy.DynamicRPCFallback--><rect fill="#FEFECE" height="38.2656" id="org.consensusj.jsonrpc.groovy.DynamicRPCFallback" style="stroke: #A80036; stroke-width: 1.5;" width="151" x="437.5" y="411"/><ellipse cx="452.5" cy="430.1328" fill="#B4A7E5" rx="11" ry="11" style="stroke: #A80036; stroke-width: 1.0;"/><path d="M448.9277,426.3979 L448.9277,424.2397 L456.3071,424.2397 L456.3071,426.3979 L453.8418,426.3979 L453.8418,434.4746 L456.3071,434.4746 L456.3071,436.6328 L448.9277,436.6328 L448.9277,434.4746 L451.3931,434.4746 L451.3931,426.3979 Z "/><text fill="#000000" font-family="sans-serif" font-size="12" font-style="italic" lengthAdjust="spacingAndGlyphs" textLength="83" x="484.5" y="427.6016">«Groovy, trait»</text><text fill="#000000" font-family="sans-serif" font-size="12" font-style="italic" lengthAdjust="spacingAndGlyphs" textLength="119" x="466.5" y="441.7344">DynamicRPCFallback</text><!--class org.consensusj.jsonrpc.groovy.DynamicRPCClient--><rect fill="#FEFECE" height="38.2656" id="org.consensusj.jsonrpc.groovy.DynamicRPCClient" style="stroke: #A80036; stroke-width: 1.5;" width="136" x="408" y="509"/><ellipse cx="423" cy="528.1328" fill="#ADD1B2" rx="11" ry="11" style="stroke: #A80036; stroke-width: 1.0;"/><path d="M425.4731,534.2759 Q424.8921,534.5747 424.2529,534.7241 Q423.6138,534.8735 422.9082,534.8735 Q420.4014,534.8735 419.0815,533.2217 Q417.7617,531.5698 417.7617,528.4487 Q417.7617,525.3193 419.0815,523.6675 Q420.4014,522.0156 422.9082,522.0156 Q423.6138,522.0156 424.2612,522.165 Q424.9087,522.3145 425.4731,522.6133 L425.4731,525.3359 Q424.8423,524.7549 424.2488,524.4851 Q423.6553,524.2153 423.0244,524.2153 Q421.6797,524.2153 420.9949,525.282 Q420.3101,526.3486 420.3101,528.4487 Q420.3101,530.5405 420.9949,531.6072 Q421.6797,532.6738 423.0244,532.6738 Q423.6553,532.6738 424.2488,532.4041 Q424.8423,532.1343 425.4731,531.5532 Z "/><text fill="#000000" font-family="sans-serif" font-size="12" font-style="italic" lengthAdjust="spacingAndGlyphs" textLength="52" x="463" y="525.6016">«Groovy»</text><text fill="#000000" font-family="sans-serif" font-size="12" lengthAdjust="spacingAndGlyphs" textLength="104" x="437" y="539.7344">DynamicRPCClient</text><!--class com.msgilligan.bitcoinj.rpc.BitcoinClient--><rect fill="#FEFECE" height="32" id="com.msgilligan.bitcoinj.rpc.BitcoinClient" style="stroke: #A80036; stroke-width: 1.5;" width="101" x="225.5" y="319"/><ellipse cx="240.5" cy="335" fill="#ADD1B2" rx="11" ry="11" style="stroke: #A80036; stroke-width: 1.0;"/><path d="M242.9731,341.1431 Q242.3921,341.4419 241.7529,341.5913 Q241.1138,341.7407 240.4082,341.7407 Q237.9014,341.7407 236.5815,340.0889 Q235.2617,338.437 235.2617,335.3159 Q235.2617,332.1865 236.5815,330.5347 Q237.9014,328.8828 240.4082,328.8828 Q241.1138,328.8828 241.7612,329.0322 Q242.4087,329.1816 242.9731,329.4805 L242.9731,332.2031 Q242.3423,331.6221 241.7488,331.3523 Q241.1553,331.0825 240.5244,331.0825 Q239.1797,331.0825 238.4949,332.1492 Q237.8101,333.2158 237.8101,335.3159 Q237.8101,337.4077 238.4949,338.4744 Q239.1797,339.541 240.5244,339.541 Q241.1553,339.541 241.7488,339.2712 Q242.3423,339.0015 242.9731,338.4204 Z "/><text fill="#000000" font-family="sans-serif" font-size="12" lengthAdjust="spacingAndGlyphs" textLength="69" x="254.5" y="339.5352">BitcoinClient</text><!--class com.msgilligan.bitcoinj.rpc.BitcoinExtendedClient--><rect fill="#FEFECE" height="32" id="com.msgilligan.bitcoinj.rpc.BitcoinExtendedClient" style="stroke: #A80036; stroke-width: 1.5;" width="156" x="22" y="414"/><ellipse cx="37" cy="430" fill="#ADD1B2" rx="11" ry="11" style="stroke: #A80036; stroke-width: 1.0;"/><path d="M39.4731,436.1431 Q38.8921,436.4419 38.2529,436.5913 Q37.6138,436.7407 36.9082,436.7407 Q34.4014,436.7407 33.0815,435.0889 Q31.7617,433.437 31.7617,430.3159 Q31.7617,427.1865 33.0815,425.5347 Q34.4014,423.8828 36.9082,423.8828 Q37.6138,423.8828 38.2612,424.0322 Q38.9087,424.1816 39.4731,424.4805 L39.4731,427.2031 Q38.8423,426.6221 38.2488,426.3523 Q37.6553,426.0825 37.0244,426.0825 Q35.6797,426.0825 34.9949,427.1492 Q34.3101,428.2158 34.3101,430.3159 Q34.3101,432.4077 34.9949,433.4744 Q35.6797,434.541 37.0244,434.541 Q37.6553,434.541 38.2488,434.2712 Q38.8423,434.0015 39.4731,433.4204 Z "/><text fill="#000000" font-family="sans-serif" font-size="12" lengthAdjust="spacingAndGlyphs" textLength="124" x="51" y="434.5352">BitcoinExtendedClient</text><!--class com.msgilligan.bitcoinj.rpc.BitcoinScriptingClient--><rect fill="#FEFECE" height="38.2656" id="com.msgilligan.bitcoinj.rpc.BitcoinScriptingClient" style="stroke: #A80036; stroke-width: 1.5;" width="150" x="103" y="509"/><ellipse cx="118" cy="528.1328" fill="#ADD1B2" rx="11" ry="11" style="stroke: #A80036; stroke-width: 1.0;"/><path d="M120.4731,534.2759 Q119.8921,534.5747 119.2529,534.7241 Q118.6138,534.8735 117.9082,534.8735 Q115.4014,534.8735 114.0815,533.2217 Q112.7617,531.5698 112.7617,528.4487 Q112.7617,525.3193 114.0815,523.6675 Q115.4014,522.0156 117.9082,522.0156 Q118.6138,522.0156 119.2612,522.165 Q119.9087,522.3145 120.4731,522.6133 L120.4731,525.3359 Q119.8423,524.7549 119.2488,524.4851 Q118.6553,524.2153 118.0244,524.2153 Q116.6797,524.2153 115.9949,525.282 Q115.3101,526.3486 115.3101,528.4487 Q115.3101,530.5405 115.9949,531.6072 Q116.6797,532.6738 118.0244,532.6738 Q118.6553,532.6738 119.2488,532.4041 Q119.8423,532.1343 120.4731,531.5532 Z "/><text fill="#000000" font-family="sans-serif" font-size="12" font-style="italic" lengthAdjust="spacingAndGlyphs" textLength="52" x="165" y="525.6016">«Groovy»</text><text fill="#000000" font-family="sans-serif" font-size="12" lengthAdjust="spacingAndGlyphs" textLength="118" x="132" y="539.7344">BitcoinScriptingClient</text><!--class com.msgilligan.bitcoinj.rpc.BitcoinCLIClient--><rect fill="#FEFECE" height="38.2656" id="com.msgilligan.bitcoinj.rpc.BitcoinCLIClient" style="stroke: #A80036; stroke-width: 1.5;" width="118" x="213" y="411"/><ellipse cx="228" cy="430.1328" fill="#ADD1B2" rx="11" ry="11" style="stroke: #A80036; stroke-width: 1.0;"/><path d="M230.4731,436.2759 Q229.8921,436.5747 229.2529,436.7241 Q228.6138,436.8735 227.9082,436.8735 Q225.4014,436.8735 224.0815,435.2217 Q222.7617,433.5698 222.7617,430.4487 Q222.7617,427.3193 224.0815,425.6675 Q225.4014,424.0156 227.9082,424.0156 Q228.6138,424.0156 229.2612,424.165 Q229.9087,424.3145 230.4731,424.6133 L230.4731,427.3359 Q229.8423,426.7549 229.2488,426.4851 Q228.6553,426.2153 228.0244,426.2153 Q226.6797,426.2153 225.9949,427.282 Q225.3101,428.3486 225.3101,430.4487 Q225.3101,432.5405 225.9949,433.6072 Q226.6797,434.6738 228.0244,434.6738 Q228.6553,434.6738 229.2488,434.4041 Q229.8423,434.1343 230.4731,433.5532 Z "/><text fill="#000000" font-family="sans-serif" font-size="12" font-style="italic" lengthAdjust="spacingAndGlyphs" textLength="52" x="259" y="427.6016">«Groovy»</text><text fill="#000000" font-family="sans-serif" font-size="12" lengthAdjust="spacingAndGlyphs" textLength="86" x="242" y="441.7344">BitcoinCLIClient</text><!--class com.msgilligan.namecoinj.rpc.NamecoinClient--><rect fill="#FEFECE" height="32" id="com.msgilligan.namecoinj.rpc.NamecoinClient" style="stroke: #A80036; stroke-width: 1.5;" width="121" x="630.5" y="414"/><ellipse cx="645.5" cy="430" fill="#ADD1B2" rx="11" ry="11" style="stroke: #A80036; stroke-width: 1.0;"/><path d="M647.9731,436.1431 Q647.3921,436.4419 646.7529,436.5913 Q646.1138,436.7407 645.4082,436.7407 Q642.9014,436.7407 641.5815,435.0889 Q640.2617,433.437 640.2617,430.3159 Q640.2617,427.1865 641.5815,425.5347 Q642.9014,423.8828 645.4082,423.8828 Q646.1138,423.8828 646.7612,424.0322 Q647.4087,424.1816 647.9731,424.4805 L647.9731,427.2031 Q647.3423,426.6221 646.7488,426.3523 Q646.1553,426.0825 645.5244,426.0825 Q644.1797,426.0825 643.4949,427.1492 Q642.8101,428.2158 642.8101,430.3159 Q642.8101,432.4077 643.4949,433.4744 Q644.1797,434.541 645.5244,434.541 Q646.1553,434.541 646.7488,434.2712 Q647.3423,434.0015 647.9731,433.4204 Z "/><text fill="#000000" font-family="sans-serif" font-size="12" lengthAdjust="spacingAndGlyphs" textLength="89" x="659.5" y="434.5352">NamecoinClient</text><!--class com.msgilligan.namecoinj.rpc.NamecoinScriptingClient--><rect fill="#FEFECE" height="38.2656" id="com.msgilligan.namecoinj.rpc.NamecoinScriptingClient" style="stroke: #A80036; stroke-width: 1.5;" width="170" x="613" y="509"/><ellipse cx="628" cy="528.1328" fill="#ADD1B2" rx="11" ry="11" style="stroke: #A80036; stroke-width: 1.0;"/><path d="M630.4731,534.2759 Q629.8921,534.5747 629.2529,534.7241 Q628.6138,534.8735 627.9082,534.8735 Q625.4014,534.8735 624.0815,533.2217 Q622.7617,531.5698 622.7617,528.4487 Q622.7617,525.3193 624.0815,523.6675 Q625.4014,522.0156 627.9082,522.0156 Q628.6138,522.0156 629.2612,522.165 Q629.9087,522.3145 630.4731,522.6133 L630.4731,525.3359 Q629.8423,524.7549 629.2488,524.4851 Q628.6553,524.2153 628.0244,524.2153 Q626.6797,524.2153 625.9949,525.282 Q625.3101,526.3486 625.3101,528.4487 Q625.3101,530.5405 625.9949,531.6072 Q626.6797,532.6738 628.0244,532.6738 Q628.6553,532.6738 629.2488,532.4041 Q629.8423,532.1343 630.4731,531.5532 Z "/><text fill="#000000" font-family="sans-serif" font-size="12" font-style="italic" lengthAdjust="spacingAndGlyphs" textLength="52" x="685" y="525.6016">«Groovy»</text><text fill="#000000" font-family="sans-serif" font-size="12" lengthAdjust="spacingAndGlyphs" textLength="138" x="642" y="539.7344">NamecoinScriptingClient</text><!--link org.consensusj.jsonrpc.UntypedRPCClient to org.consensusj.jsonrpc.AbstractRPCClient--><path d="M390.2301,95.4048 C389.1897,109.0788 388.0592,123.9368 387.2288,134.8498 " fill="none" id="org.consensusj.jsonrpc.UntypedRPCClient-org.consensusj.jsonrpc.AbstractRPCClient" style="stroke: #A80036; stroke-width: 1.0; stroke-dasharray: 7.0,7.0;"/><polygon fill="none" points="383.2834,94.4364,391.7807,75.0252,397.2431,95.4986,383.2834,94.4364" style="stroke: #A80036; stroke-width: 1.0;"/><!--link org.consensusj.jsonrpc.AbstractRPCClient to org.consensusj.jsonrpc.RPCClient--><path d="M385.2086,187.4048 C384.9113,201.0788 384.5883,215.9368 384.3511,226.8498 " fill="none" id="org.consensusj.jsonrpc.AbstractRPCClient-org.consensusj.jsonrpc.RPCClient" style="stroke: #A80036; stroke-width: 1.0;"/><polygon fill="none" points="378.2185,186.8683,385.6516,167.0252,392.2152,187.1726,378.2185,186.8683" style="stroke: #A80036; stroke-width: 1.0;"/><!--link org.consensusj.jsonrpc.UntypedRPCClient to org.consensusj.jsonrpc.groovy.DynamicRPCFallback--><path d="M432.2815,88.0064 C446.7656,100.7853 461.8564,116.9953 471,135 C519.0195,229.5555 517.0653,361.8434 514.3809,410.7991 " fill="none" id="org.consensusj.jsonrpc.UntypedRPCClient-org.consensusj.jsonrpc.groovy.DynamicRPCFallback" style="stroke: #A80036; stroke-width: 1.0; stroke-dasharray: 7.0,7.0;"/><polygon fill="none" points="427.5824,93.2061,416.5357,75.1238,436.4477,82.3706,427.5824,93.2061" style="stroke: #A80036; stroke-width: 1.0;"/><!--link org.consensusj.jsonrpc.RPCClient to org.consensusj.jsonrpc.groovy.DynamicRPCClient--><path d="M385.5251,279.4028 C388.3756,321.6555 396.5518,392.7302 420,449 C429.3119,471.3462 445.8667,493.549 458.5697,508.6993 " fill="none" id="org.consensusj.jsonrpc.RPCClient-org.consensusj.jsonrpc.groovy.DynamicRPCClient" style="stroke: #A80036; stroke-width: 1.0;"/><polygon fill="none" points="378.5213,279.5216,384.4262,259.1714,392.5007,278.7623,378.5213,279.5216" style="stroke: #A80036; stroke-width: 1.0;"/><!--link org.consensusj.jsonrpc.groovy.DynamicRPCFallback to org.consensusj.jsonrpc.groovy.DynamicRPCClient--><path d="M498.563,468.2385 C493.3342,482.0877 487.6499,497.1434 483.2948,508.6786 " fill="none" id="org.consensusj.jsonrpc.groovy.DynamicRPCFallback-org.consensusj.jsonrpc.groovy.DynamicRPCClient" style="stroke: #A80036; stroke-width: 1.0; stroke-dasharray: 7.0,7.0;"/><polygon fill="none" points="492.0768,465.6,505.69,449.3616,505.1744,470.545,492.0768,465.6" style="stroke: #A80036; stroke-width: 1.0;"/><!--link org.consensusj.jsonrpc.RPCClient to com.msgilligan.bitcoinj.rpc.BitcoinClient--><path d="M349.7952,272.1374 C331.6674,287.5796 310.0851,305.9646 294.959,318.8498 " fill="none" id="org.consensusj.jsonrpc.RPCClient-com.msgilligan.bitcoinj.rpc.BitcoinClient" style="stroke: #A80036; stroke-width: 1.0;"/><polygon fill="none" points="345.4237,266.6658,365.1878,259.0252,354.5022,277.3233,345.4237,266.6658" style="stroke: #A80036; stroke-width: 1.0;"/><!--link com.msgilligan.bitcoinj.rpc.BitcoinClient to com.msgilligan.bitcoinj.rpc.BitcoinExtendedClient--><path d="M228.3502,360.7201 C196.8984,377.6969 156.6695,399.4113 129.7082,413.9643 " fill="none" id="com.msgilligan.bitcoinj.rpc.BitcoinClient-com.msgilligan.bitcoinj.rpc.BitcoinExtendedClient" style="stroke: #A80036; stroke-width: 1.0;"/><polygon fill="none" points="225.2192,354.4555,246.144,351.1155,231.8692,366.7753,225.2192,354.4555" style="stroke: #A80036; stroke-width: 1.0;"/><!--link com.msgilligan.bitcoinj.rpc.BitcoinExtendedClient to com.msgilligan.bitcoinj.rpc.BitcoinScriptingClient--><path d="M125.5681,462.124 C137.838,477.5401 152.1285,495.4947 162.6886,508.7626 " fill="none" id="com.msgilligan.bitcoinj.rpc.BitcoinExtendedClient-com.msgilligan.bitcoinj.rpc.BitcoinScriptingClient" style="stroke: #A80036; stroke-width: 1.0;"/><polygon fill="none" points="119.8581,466.1904,112.8801,446.1827,130.812,457.472,119.8581,466.1904" style="stroke: #A80036; stroke-width: 1.0;"/><!--link org.consensusj.jsonrpc.groovy.DynamicRPCFallback to com.msgilligan.bitcoinj.rpc.BitcoinScriptingClient--><path d="M428.4604,454.731 C370.945,471.5564 295.9709,493.4891 243.0931,508.9578 " fill="none" id="org.consensusj.jsonrpc.groovy.DynamicRPCFallback-com.msgilligan.bitcoinj.rpc.BitcoinScriptingClient" style="stroke: #A80036; stroke-width: 1.0; stroke-dasharray: 7.0,7.0;"/><polygon fill="none" points="426.8505,447.9086,448.0114,449.0116,430.7813,461.3455,426.8505,447.9086" style="stroke: #A80036; stroke-width: 1.0;"/><!--link com.msgilligan.bitcoinj.rpc.BitcoinClient to com.msgilligan.bitcoinj.rpc.BitcoinCLIClient--><path d="M274.4766,371.1811 C273.9081,384.6823 273.2851,399.4789 272.8062,410.8539 " fill="none" id="com.msgilligan.bitcoinj.rpc.BitcoinClient-com.msgilligan.bitcoinj.rpc.BitcoinCLIClient" style="stroke: #A80036; stroke-width: 1.0;"/><polygon fill="none" points="267.4862,370.8032,275.3215,351.1155,281.4738,371.3923,267.4862,370.8032" style="stroke: #A80036; stroke-width: 1.0;"/><!--link com.msgilligan.bitcoinj.rpc.BitcoinClient to com.msgilligan.namecoinj.rpc.NamecoinClient--><path d="M346.7765,338.5281 C414.5227,343.5263 518.8573,355.5004 605,384 C626.8624,391.233 649.7675,403.7633 666.4372,413.9213 " fill="none" id="com.msgilligan.bitcoinj.rpc.BitcoinClient-com.msgilligan.namecoinj.rpc.NamecoinClient" style="stroke: #A80036; stroke-width: 1.0;"/><polygon fill="none" points="346.0453,345.4948,326.5619,337.1643,346.9877,331.5265,346.0453,345.4948" style="stroke: #A80036; stroke-width: 1.0;"/><!--link com.msgilligan.namecoinj.rpc.NamecoinClient to com.msgilligan.namecoinj.rpc.NamecoinScriptingClient--><path d="M693.5824,466.1541 C694.6139,480.5944 695.7597,496.6361 696.6259,508.7626 " fill="none" id="com.msgilligan.namecoinj.rpc.NamecoinClient-com.msgilligan.namecoinj.rpc.NamecoinScriptingClient" style="stroke: #A80036; stroke-width: 1.0; stroke-dasharray: 7.0,7.0;"/><polygon fill="none" points="686.5987,466.6306,692.1559,446.1827,700.5632,465.6331,686.5987,466.6306" style="stroke: #A80036; stroke-width: 1.0;"/><!--link org.consensusj.jsonrpc.groovy.DynamicRPCFallback to com.msgilligan.namecoinj.rpc.NamecoinScriptingClient--><path d="M567.1025,458.6597 C597.6584,474.8461 635.0106,494.6326 661.982,508.9202 " fill="none" id="org.consensusj.jsonrpc.groovy.DynamicRPCFallback-com.msgilligan.namecoinj.rpc.NamecoinScriptingClient" style="stroke: #A80036; stroke-width: 1.0; stroke-dasharray: 7.0,7.0;"/><polygon fill="none" points="563.5057,464.6759,549.109,449.128,570.0592,452.3045,563.5057,464.6759" style="stroke: #A80036; stroke-width: 1.0;"/><!--
@startuml
skinparam packageStyle Rect
skinparam shadowing false
hide empty members

namespace org.consensusj.jsonrpc {
    interface UntypedRPCClient
    abstract class AbstractRPCClient
    class RPCClient

    UntypedRPCClient <|.. AbstractRPCClient
    AbstractRPCClient <|- - RPCClient

}

namespace org.consensusj.jsonrpc.groovy {
  interface DynamicRPCFallback << Groovy, trait >>
  class DynamicRPCClient << Groovy >>

  org.consensusj.jsonrpc.UntypedRPCClient <|.. DynamicRPCFallback
  org.consensusj.jsonrpc.RPCClient <|- - DynamicRPCClient
  DynamicRPCFallback <|.. DynamicRPCClient
}

namespace com.msgilligan.bitcoinj.rpc {
    class BitcoinClient
    class BitcoinExtendedClient

    class BitcoinScriptingClient << Groovy >>
    class BitcoinCLIClient << Groovy >>


    org.consensusj.jsonrpc.RPCClient <|- - BitcoinClient
    BitcoinClient <|- - BitcoinExtendedClient
    BitcoinExtendedClient <|- - BitcoinScriptingClient
    org.consensusj.jsonrpc.groovy.DynamicRPCFallback <|.. BitcoinScriptingClient
    BitcoinClient <|- - BitcoinCLIClient
}

namespace com.msgilligan.namecoinj.rpc {
    class NamecoinClient
    class NamecoinScriptingClient << Groovy >>

    com.msgilligan.bitcoinj.rpc.BitcoinClient <|- - NamecoinClient
    NamecoinClient <|.. NamecoinScriptingClient
    org.consensusj.jsonrpc.groovy.DynamicRPCFallback <|.. NamecoinScriptingClient
}
@enduml

PlantUML version 1.2018.01(Sun Jan 28 10:08:22 PST 2018)
(APACHE source distribution)
Java Runtime: OpenJDK Runtime Environment
JVM: OpenJDK 64-Bit Server VM
Java Version: 9.0.7.1+1
Operating System: Mac OS X
OS Version: 10.14.6
Default Encoding: UTF-8
Language: en
Country: US
--></g></svg>