<?xml version="1.0" encoding="UTF-8" standalone="no"?><svg xmlns="http://www.w3.org/2000/svg" xmlns:xlink="http://www.w3.org/1999/xlink" contentScriptType="application/ecmascript" contentStyleType="text/css" height="702px" preserveAspectRatio="none" style="width:1292px;height:702px;" version="1.1" viewBox="0 0 1292 702" width="1292px" zoomAndPan="magnify"><defs/><g><!--cluster com.msgilligan.jsonrpc--><rect fill="#FFFFFF" height="371" style="stroke: #000000; stroke-width: 2.0;" width="306" x="22" y="24"/><text fill="#000000" font-family="sans-serif" font-size="14" font-weight="bold" lengthAdjust="spacingAndGlyphs" textLength="166" x="92" y="39.5352">org.consensusj.jsonrpc</text><!--cluster com.msgilligan.bitcoinj.rpc--><rect fill="#FFFFFF" height="294" style="stroke: #000000; stroke-width: 2.0;" width="341" x="352" y="309"/><text fill="#000000" font-family="sans-serif" font-size="14" font-weight="bold" lengthAdjust="spacingAndGlyphs" textLength="193" x="426" y="324.5352">com.msgilligan.bitcoinj.rpc</text><!--cluster com.msgilligan.namecoinj.rpc--><rect fill="#FFFFFF" height="184" style="stroke: #000000; stroke-width: 2.0;" width="228" x="1063" y="419"/><text fill="#000000" font-family="sans-serif" font-size="14" font-weight="bold" lengthAdjust="spacingAndGlyphs" textLength="212" x="1071" y="434.5352">com.msgilligan.namecoinj.rpc</text><!--cluster foundation.omni.rpc--><rect fill="#FFFFFF" height="184" style="stroke: #000000; stroke-width: 2.0;" width="322" x="717" y="517"/><text fill="#000000" font-family="sans-serif" font-size="14" font-weight="bold" lengthAdjust="spacingAndGlyphs" textLength="144" x="806" y="532.5352">foundation.omni.rpc</text><!--class com.msgilligan.jsonrpc.UntypedRPCClient--><rect fill="#FEFECE" height="32" style="stroke: #A80036; stroke-width: 1.5;" width="135" x="51.5" y="59"/><ellipse cx="66.5" cy="75" fill="#B4A7E5" rx="11" ry="11" style="stroke: #A80036; stroke-width: 1.0;"/><path d="M62.4277,70.7651 L62.4277,68.6069 L69.8071,68.6069 L69.8071,70.7651 L67.3418,70.7651 L67.3418,78.8418 L69.8071,78.8418 L69.8071,81 L62.4277,81 L62.4277,78.8418 L64.8931,78.8418 L64.8931,70.7651 Z "/><text fill="#000000" font-family="sans-serif" font-size="12" font-style="italic" lengthAdjust="spacingAndGlyphs" textLength="103" x="80.5" y="79.5352">UntypedRPCClient</text><!--class com.msgilligan.jsonrpc.AbstractRPCClient--><rect fill="#FEFECE" height="32" style="stroke: #A80036; stroke-width: 1.5;" width="135" x="45.5" y="151"/><ellipse cx="60.5" cy="167" fill="#A9DCDF" rx="11" ry="11" style="stroke: #A80036; stroke-width: 1.0;"/><path d="M60.6133,162.3481 L59.4595,167.4199 L61.7754,167.4199 Z M59.1191,160.1069 L62.1157,160.1069 L65.4609,172.5 L63.0122,172.5 L62.2485,169.437 L58.9697,169.437 L58.2227,172.5 L55.7739,172.5 Z "/><text fill="#000000" font-family="sans-serif" font-size="12" font-style="italic" lengthAdjust="spacingAndGlyphs" textLength="103" x="74.5" y="171.5352">AbstractRPCClient</text><!--class com.msgilligan.jsonrpc.RPCClient--><rect fill="#FEFECE" height="32" style="stroke: #A80036; stroke-width: 1.5;" width="87" x="38.5" y="246"/><ellipse cx="53.5" cy="262" fill="#ADD1B2" rx="11" ry="11" style="stroke: #A80036; stroke-width: 1.0;"/><path d="M56.4731,267.6431 Q55.8921,267.9419 55.2529,268.0913 Q54.6138,268.2407 53.9082,268.2407 Q51.4014,268.2407 50.0815,266.5889 Q48.7617,264.937 48.7617,261.8159 Q48.7617,258.6865 50.0815,257.0347 Q51.4014,255.3828 53.9082,255.3828 Q54.6138,255.3828 55.2612,255.5322 Q55.9087,255.6816 56.4731,255.9805 L56.4731,258.7031 Q55.8423,258.1221 55.2488,257.8523 Q54.6553,257.5825 54.0244,257.5825 Q52.6797,257.5825 51.9949,258.6492 Q51.3101,259.7158 51.3101,261.8159 Q51.3101,263.9077 51.9949,264.9744 Q52.6797,266.041 54.0244,266.041 Q54.6553,266.041 55.2488,265.7712 Q55.8423,265.5015 56.4731,264.9204 Z "/><text fill="#000000" font-family="sans-serif" font-size="12" lengthAdjust="spacingAndGlyphs" textLength="55" x="67.5" y="266.5352">RPCClient</text><!--class com.msgilligan.jsonrpc.DynamicRPCFallback--><rect fill="#FEFECE" height="38.2656" style="stroke: #A80036; stroke-width: 1.5;" width="151" x="160.5" y="243"/><ellipse cx="175.5" cy="262.1328" fill="#B4A7E5" rx="11" ry="11" style="stroke: #A80036; stroke-width: 1.0;"/><path d="M171.4277,257.8979 L171.4277,255.7397 L178.8071,255.7397 L178.8071,257.8979 L176.3418,257.8979 L176.3418,265.9746 L178.8071,265.9746 L178.8071,268.1328 L171.4277,268.1328 L171.4277,265.9746 L173.8931,265.9746 L173.8931,257.8979 Z "/><text fill="#000000" font-family="sans-serif" font-size="12" font-style="italic" lengthAdjust="spacingAndGlyphs" textLength="83" x="207.5" y="259.6016">«Groovy, trait»</text><text fill="#000000" font-family="sans-serif" font-size="12" font-style="italic" lengthAdjust="spacingAndGlyphs" textLength="119" x="189.5" y="273.7344">DynamicRPCFallback</text><!--class com.msgilligan.jsonrpc.DynamicRPCClient--><rect fill="#FEFECE" height="38.2656" style="stroke: #A80036; stroke-width: 1.5;" width="136" x="45" y="341"/><ellipse cx="60" cy="360.1328" fill="#ADD1B2" rx="11" ry="11" style="stroke: #A80036; stroke-width: 1.0;"/><path d="M62.9731,365.7759 Q62.3921,366.0747 61.7529,366.2241 Q61.1138,366.3735 60.4082,366.3735 Q57.9014,366.3735 56.5815,364.7217 Q55.2617,363.0698 55.2617,359.9487 Q55.2617,356.8193 56.5815,355.1675 Q57.9014,353.5156 60.4082,353.5156 Q61.1138,353.5156 61.7612,353.665 Q62.4087,353.8145 62.9731,354.1133 L62.9731,356.8359 Q62.3423,356.2549 61.7488,355.9851 Q61.1553,355.7153 60.5244,355.7153 Q59.1797,355.7153 58.4949,356.782 Q57.8101,357.8486 57.8101,359.9487 Q57.8101,362.0405 58.4949,363.1072 Q59.1797,364.1738 60.5244,364.1738 Q61.1553,364.1738 61.7488,363.9041 Q62.3423,363.6343 62.9731,363.0532 Z "/><text fill="#000000" font-family="sans-serif" font-size="12" font-style="italic" lengthAdjust="spacingAndGlyphs" textLength="52" x="100" y="357.6016">«Groovy»</text><text fill="#000000" font-family="sans-serif" font-size="12" lengthAdjust="spacingAndGlyphs" textLength="104" x="74" y="371.7344">DynamicRPCClient</text><!--class com.msgilligan.bitcoinj.rpc.BitcoinClient--><rect fill="#FEFECE" height="32" style="stroke: #A80036; stroke-width: 1.5;" width="101" x="481.5" y="344"/><ellipse cx="496.5" cy="360" fill="#ADD1B2" rx="11" ry="11" style="stroke: #A80036; stroke-width: 1.0;"/><path d="M499.4731,365.6431 Q498.8921,365.9419 498.2529,366.0913 Q497.6138,366.2407 496.9082,366.2407 Q494.4014,366.2407 493.0815,364.5889 Q491.7617,362.937 491.7617,359.8159 Q491.7617,356.6865 493.0815,355.0347 Q494.4014,353.3828 496.9082,353.3828 Q497.6138,353.3828 498.2612,353.5322 Q498.9087,353.6816 499.4731,353.9805 L499.4731,356.7031 Q498.8423,356.1221 498.2488,355.8523 Q497.6553,355.5825 497.0244,355.5825 Q495.6797,355.5825 494.9949,356.6492 Q494.3101,357.7158 494.3101,359.8159 Q494.3101,361.9077 494.9949,362.9744 Q495.6797,364.041 497.0244,364.041 Q497.6553,364.041 498.2488,363.7712 Q498.8423,363.5015 499.4731,362.9204 Z "/><text fill="#000000" font-family="sans-serif" font-size="12" lengthAdjust="spacingAndGlyphs" textLength="69" x="510.5" y="364.5352">BitcoinClient</text><!--class com.msgilligan.bitcoinj.rpc.BitcoinExtendedClient--><rect fill="#FEFECE" height="32" style="stroke: #A80036; stroke-width: 1.5;" width="156" x="368" y="454"/><ellipse cx="383" cy="470" fill="#ADD1B2" rx="11" ry="11" style="stroke: #A80036; stroke-width: 1.0;"/><path d="M385.9731,475.6431 Q385.3921,475.9419 384.7529,476.0913 Q384.1138,476.2407 383.4082,476.2407 Q380.9014,476.2407 379.5815,474.5889 Q378.2617,472.937 378.2617,469.8159 Q378.2617,466.6865 379.5815,465.0347 Q380.9014,463.3828 383.4082,463.3828 Q384.1138,463.3828 384.7612,463.5322 Q385.4087,463.6816 385.9731,463.9805 L385.9731,466.7031 Q385.3423,466.1221 384.7488,465.8523 Q384.1553,465.5825 383.5244,465.5825 Q382.1797,465.5825 381.4949,466.6492 Q380.8101,467.7158 380.8101,469.8159 Q380.8101,471.9077 381.4949,472.9744 Q382.1797,474.041 383.5244,474.041 Q384.1553,474.041 384.7488,473.7712 Q385.3423,473.5015 385.9731,472.9204 Z "/><text fill="#000000" font-family="sans-serif" font-size="12" lengthAdjust="spacingAndGlyphs" textLength="124" x="397" y="474.5352">BitcoinExtendedClient</text><!--class com.msgilligan.bitcoinj.rpc.BitcoinScriptingClient--><rect fill="#FEFECE" height="38.2656" style="stroke: #A80036; stroke-width: 1.5;" width="150" x="369" y="549"/><ellipse cx="384" cy="568.1328" fill="#ADD1B2" rx="11" ry="11" style="stroke: #A80036; stroke-width: 1.0;"/><path d="M386.9731,573.7759 Q386.3921,574.0747 385.7529,574.2241 Q385.1138,574.3735 384.4082,574.3735 Q381.9014,574.3735 380.5815,572.7217 Q379.2617,571.0698 379.2617,567.9487 Q379.2617,564.8193 380.5815,563.1675 Q381.9014,561.5156 384.4082,561.5156 Q385.1138,561.5156 385.7612,561.665 Q386.4087,561.8145 386.9731,562.1133 L386.9731,564.8359 Q386.3423,564.2549 385.7488,563.9851 Q385.1553,563.7153 384.5244,563.7153 Q383.1797,563.7153 382.4949,564.782 Q381.8101,565.8486 381.8101,567.9487 Q381.8101,570.0405 382.4949,571.1072 Q383.1797,572.1738 384.5244,572.1738 Q385.1553,572.1738 385.7488,571.9041 Q386.3423,571.6343 386.9731,571.0532 Z "/><text fill="#000000" font-family="sans-serif" font-size="12" font-style="italic" lengthAdjust="spacingAndGlyphs" textLength="52" x="431" y="565.6016">«Groovy»</text><text fill="#000000" font-family="sans-serif" font-size="12" lengthAdjust="spacingAndGlyphs" textLength="118" x="398" y="579.7344">BitcoinScriptingClient</text><!--class com.msgilligan.bitcoinj.rpc.BitcoinCLIClient--><rect fill="#FEFECE" height="38.2656" style="stroke: #A80036; stroke-width: 1.5;" width="118" x="559" y="451"/><ellipse cx="574" cy="470.1328" fill="#ADD1B2" rx="11" ry="11" style="stroke: #A80036; stroke-width: 1.0;"/><path d="M576.9731,475.7759 Q576.3921,476.0747 575.7529,476.2241 Q575.1138,476.3735 574.4082,476.3735 Q571.9014,476.3735 570.5815,474.7217 Q569.2617,473.0698 569.2617,469.9487 Q569.2617,466.8193 570.5815,465.1675 Q571.9014,463.5156 574.4082,463.5156 Q575.1138,463.5156 575.7612,463.665 Q576.4087,463.8145 576.9731,464.1133 L576.9731,466.8359 Q576.3423,466.2549 575.7488,465.9851 Q575.1553,465.7153 574.5244,465.7153 Q573.1797,465.7153 572.4949,466.782 Q571.8101,467.8486 571.8101,469.9487 Q571.8101,472.0405 572.4949,473.1072 Q573.1797,474.1738 574.5244,474.1738 Q575.1553,474.1738 575.7488,473.9041 Q576.3423,473.6343 576.9731,473.0532 Z "/><text fill="#000000" font-family="sans-serif" font-size="12" font-style="italic" lengthAdjust="spacingAndGlyphs" textLength="52" x="605" y="467.6016">«Groovy»</text><text fill="#000000" font-family="sans-serif" font-size="12" lengthAdjust="spacingAndGlyphs" textLength="86" x="588" y="481.7344">BitcoinCLIClient</text><!--class com.msgilligan.namecoinj.rpc.NamecoinClient--><rect fill="#FEFECE" height="32" style="stroke: #A80036; stroke-width: 1.5;" width="121" x="1079.5" y="454"/><ellipse cx="1094.5" cy="470" fill="#ADD1B2" rx="11" ry="11" style="stroke: #A80036; stroke-width: 1.0;"/><path d="M1097.4731,475.6431 Q1096.8921,475.9419 1096.2529,476.0913 Q1095.6138,476.2407 1094.9082,476.2407 Q1092.4014,476.2407 1091.0815,474.5889 Q1089.7617,472.937 1089.7617,469.8159 Q1089.7617,466.6865 1091.0815,465.0347 Q1092.4014,463.3828 1094.9082,463.3828 Q1095.6138,463.3828 1096.2612,463.5322 Q1096.9087,463.6816 1097.4731,463.9805 L1097.4731,466.7031 Q1096.8423,466.1221 1096.2488,465.8523 Q1095.6553,465.5825 1095.0244,465.5825 Q1093.6797,465.5825 1092.9949,466.6492 Q1092.3101,467.7158 1092.3101,469.8159 Q1092.3101,471.9077 1092.9949,472.9744 Q1093.6797,474.041 1095.0244,474.041 Q1095.6553,474.041 1096.2488,473.7712 Q1096.8423,473.5015 1097.4731,472.9204 Z "/><text fill="#000000" font-family="sans-serif" font-size="12" lengthAdjust="spacingAndGlyphs" textLength="89" x="1108.5" y="474.5352">NamecoinClient</text><!--class com.msgilligan.namecoinj.rpc.NamecoinScriptingClient--><rect fill="#FEFECE" height="38.2656" style="stroke: #A80036; stroke-width: 1.5;" width="170" x="1079" y="549"/><ellipse cx="1094" cy="568.1328" fill="#ADD1B2" rx="11" ry="11" style="stroke: #A80036; stroke-width: 1.0;"/><path d="M1096.9731,573.7759 Q1096.3921,574.0747 1095.7529,574.2241 Q1095.1138,574.3735 1094.4082,574.3735 Q1091.9014,574.3735 1090.5815,572.7217 Q1089.2617,571.0698 1089.2617,567.9487 Q1089.2617,564.8193 1090.5815,563.1675 Q1091.9014,561.5156 1094.4082,561.5156 Q1095.1138,561.5156 1095.7612,561.665 Q1096.4087,561.8145 1096.9731,562.1133 L1096.9731,564.8359 Q1096.3423,564.2549 1095.7488,563.9851 Q1095.1553,563.7153 1094.5244,563.7153 Q1093.1797,563.7153 1092.4949,564.782 Q1091.8101,565.8486 1091.8101,567.9487 Q1091.8101,570.0405 1092.4949,571.1072 Q1093.1797,572.1738 1094.5244,572.1738 Q1095.1553,572.1738 1095.7488,571.9041 Q1096.3423,571.6343 1096.9731,571.0532 Z "/><text fill="#000000" font-family="sans-serif" font-size="12" font-style="italic" lengthAdjust="spacingAndGlyphs" textLength="52" x="1151" y="565.6016">«Groovy»</text><text fill="#000000" font-family="sans-serif" font-size="12" lengthAdjust="spacingAndGlyphs" textLength="138" x="1108" y="579.7344">NamecoinScriptingClient</text><!--class foundation.omni.rpc.OmniClient--><rect fill="#FEFECE" height="32" style="stroke: #A80036; stroke-width: 1.5;" width="94" x="758" y="552"/><ellipse cx="773" cy="568" fill="#ADD1B2" rx="11" ry="11" style="stroke: #A80036; stroke-width: 1.0;"/><path d="M775.9731,573.6431 Q775.3921,573.9419 774.7529,574.0913 Q774.1138,574.2407 773.4082,574.2407 Q770.9014,574.2407 769.5815,572.5889 Q768.2617,570.937 768.2617,567.8159 Q768.2617,564.6865 769.5815,563.0347 Q770.9014,561.3828 773.4082,561.3828 Q774.1138,561.3828 774.7612,561.5322 Q775.4087,561.6816 775.9731,561.9805 L775.9731,564.7031 Q775.3423,564.1221 774.7488,563.8523 Q774.1553,563.5825 773.5244,563.5825 Q772.1797,563.5825 771.4949,564.6492 Q770.8101,565.7158 770.8101,567.8159 Q770.8101,569.9077 771.4949,570.9744 Q772.1797,572.041 773.5244,572.041 Q774.1553,572.041 774.7488,571.7712 Q775.3423,571.5015 775.9731,570.9204 Z "/><text fill="#000000" font-family="sans-serif" font-size="12" lengthAdjust="spacingAndGlyphs" textLength="62" x="787" y="572.5352">OmniClient</text><!--class foundation.omni.rpc.OmniScriptingClient--><rect fill="#FEFECE" height="38.2656" style="stroke: #A80036; stroke-width: 1.5;" width="143" x="733.5" y="647"/><ellipse cx="748.5" cy="666.1328" fill="#ADD1B2" rx="11" ry="11" style="stroke: #A80036; stroke-width: 1.0;"/><path d="M751.4731,671.7759 Q750.8921,672.0747 750.2529,672.2241 Q749.6138,672.3735 748.9082,672.3735 Q746.4014,672.3735 745.0815,670.7217 Q743.7617,669.0698 743.7617,665.9487 Q743.7617,662.8193 745.0815,661.1675 Q746.4014,659.5156 748.9082,659.5156 Q749.6138,659.5156 750.2612,659.665 Q750.9087,659.8145 751.4731,660.1133 L751.4731,662.8359 Q750.8423,662.2549 750.2488,661.9851 Q749.6553,661.7153 749.0244,661.7153 Q747.6797,661.7153 746.9949,662.782 Q746.3101,663.8486 746.3101,665.9487 Q746.3101,668.0405 746.9949,669.1072 Q747.6797,670.1738 749.0244,670.1738 Q749.6553,670.1738 750.2488,669.9041 Q750.8423,669.6343 751.4731,669.0532 Z "/><text fill="#000000" font-family="sans-serif" font-size="12" font-style="italic" lengthAdjust="spacingAndGlyphs" textLength="52" x="792" y="663.6016">«Groovy»</text><text fill="#000000" font-family="sans-serif" font-size="12" lengthAdjust="spacingAndGlyphs" textLength="111" x="762.5" y="677.7344">OmniScriptingClient</text><!--class foundation.omni.rpc.OmniCLIClient--><rect fill="#FEFECE" height="38.2656" style="stroke: #A80036; stroke-width: 1.5;" width="111" x="911.5" y="647"/><ellipse cx="926.5" cy="666.1328" fill="#ADD1B2" rx="11" ry="11" style="stroke: #A80036; stroke-width: 1.0;"/><path d="M929.4731,671.7759 Q928.8921,672.0747 928.2529,672.2241 Q927.6138,672.3735 926.9082,672.3735 Q924.4014,672.3735 923.0815,670.7217 Q921.7617,669.0698 921.7617,665.9487 Q921.7617,662.8193 923.0815,661.1675 Q924.4014,659.5156 926.9082,659.5156 Q927.6138,659.5156 928.2612,659.665 Q928.9087,659.8145 929.4731,660.1133 L929.4731,662.8359 Q928.8423,662.2549 928.2488,661.9851 Q927.6553,661.7153 927.0244,661.7153 Q925.6797,661.7153 924.9949,662.782 Q924.3101,663.8486 924.3101,665.9487 Q924.3101,668.0405 924.9949,669.1072 Q925.6797,670.1738 927.0244,670.1738 Q927.6553,670.1738 928.2488,669.9041 Q928.8423,669.6343 929.4731,669.0532 Z "/><text fill="#000000" font-family="sans-serif" font-size="12" font-style="italic" lengthAdjust="spacingAndGlyphs" textLength="52" x="954" y="663.6016">«Groovy»</text><text fill="#000000" font-family="sans-serif" font-size="12" lengthAdjust="spacingAndGlyphs" textLength="79" x="940.5" y="677.7344">OmniCLIClient</text><path d="M116.626,111.615 C115.713,125.31 114.719,140.22 114.003,150.958 " fill="none" style="stroke: #A80036; stroke-width: 1.0; stroke-dasharray: 7.0,7.0;"/><polygon fill="none" points="109.667,110.757,117.982,91.267,123.636,111.689,109.667,110.757" style="stroke: #A80036; stroke-width: 1.0;"/><path d="M101.5533,202.34 C96.5527,217.342 90.9467,234.16 87.0238,245.929 " fill="none" style="stroke: #A80036; stroke-width: 1.0;"/><polygon fill="none" points="94.9156,200.117,107.881,183.357,108.197,204.544,94.9156,200.117" style="stroke: #A80036; stroke-width: 1.0;"/><path d="M155.613,104.136 C170.441,117.072 186.694,133.439 198,151 C216.812,180.22 227.499,219.832 232.487,242.68 " fill="none" style="stroke: #A80036; stroke-width: 1.0; stroke-dasharray: 7.0,7.0;"/><polygon fill="none" points="150.793,109.235,139.817,91.11,159.7,98.434,150.793,109.235" style="stroke: #A80036; stroke-width: 1.0;"/><path d="M93.1822,297.629 C97.9235,312.312 103.2506,328.808 107.187,340.998 " fill="none" style="stroke: #A80036; stroke-width: 1.0;"/><polygon fill="none" points="86.4653,299.607,86.9807,278.424,99.7879,295.305,86.4653,299.607" style="stroke: #A80036; stroke-width: 1.0;"/><path d="M196.905,293.513 C177.02,309.033 153.515,327.378 136.45,340.698 " fill="none" style="stroke: #A80036; stroke-width: 1.0; stroke-dasharray: 7.0,7.0;"/><polygon fill="none" points="192.791,287.844,212.865,281.057,201.405,298.881,192.791,287.844" style="stroke: #A80036; stroke-width: 1.0;"/><path d="M145.417,280.75 C227.582,295.659 252.532,286.302 328,301 C383.658,311.84 446.175,330.627 487.158,343.877 " fill="none" style="stroke: #A80036; stroke-width: 1.0;"/><polygon fill="none" points="144.045,287.614,125.746,276.929,146.714,273.871,144.045,287.614" style="stroke: #A80036; stroke-width: 1.0;"/><path d="M507.506,391.76 C491.357,412.04 470.905,437.724 458.134,453.762 " fill="none" style="stroke: #A80036; stroke-width: 1.0;"/><polygon fill="none" points="502.108,387.302,520.042,376.017,513.059,396.023,502.108,387.302" style="stroke: #A80036; stroke-width: 1.0;"/><path d="M445.257,506.65 C444.957,521.072 444.623,537.09 444.375,548.998 " fill="none" style="stroke: #A80036; stroke-width: 1.0;"/><polygon fill="none" points="438.264,506.274,445.679,486.424,452.26,506.566,438.264,506.274" style="stroke: #A80036; stroke-width: 1.0;"/><path d="M261.865,297.487 C262.6,298.662 263.314,299.835 264,301 C310.611,380.183 294.131,416.054 350,489 C368.439,513.075 395.608,534.592 416.002,548.896 " fill="none" style="stroke: #A80036; stroke-width: 1.0; stroke-dasharray: 7.0,7.0;"/><polygon fill="none" points="256.1,301.458,250.464,281.032,267.608,293.485,256.1,301.458" style="stroke: #A80036; stroke-width: 1.0;"/><path d="M556.564,391.848 C571.762,410.934 590.751,434.78 603.563,450.87 " fill="none" style="stroke: #A80036; stroke-width: 1.0;"/><polygon fill="none" points="550.941,396.023,543.958,376.017,561.892,387.302,550.941,396.023" style="stroke: #A80036; stroke-width: 1.0;"/><path d="M602.472,373.518 C722.749,394.883 965.632,438.027 1079.06,458.175 " fill="none" style="stroke: #A80036; stroke-width: 1.0;"/><polygon fill="none" points="600.999,380.366,582.532,369.976,603.448,366.582,600.999,380.366" style="stroke: #A80036; stroke-width: 1.0;"/><path d="M1148.72,505.883 C1152.38,520.502 1156.47,536.879 1159.5,548.998 " fill="none" style="stroke: #A80036; stroke-width: 1.0; stroke-dasharray: 7.0,7.0;"/><polygon fill="none" points="1141.92,507.525,1143.86,486.424,1155.5,504.129,1141.92,507.525" style="stroke: #A80036; stroke-width: 1.0;"/><path d="M331.652,267.507 C424.385,272.687 568.855,282.904 693,301 C928.907,335.388 1067.7,225.946 1218,411 C1251.97,452.824 1206.92,517.351 1180.6,548.68 " fill="none" style="stroke: #A80036; stroke-width: 1.0; stroke-dasharray: 7.0,7.0;"/><polygon fill="none" points="331.123,274.488,311.531,266.417,331.88,260.509,331.123,274.488" style="stroke: #A80036; stroke-width: 1.0;"/><path d="M543.309,488.981 C611.909,498.131 633.453,490.297 693,509 C725.381,519.17 759.609,538.287 781.577,551.789 " fill="none" style="stroke: #A80036; stroke-width: 1.0;"/><polygon fill="none" points="541.948,495.856,523.188,486.002,543.998,482.007,541.948,495.856" style="stroke: #A80036; stroke-width: 1.0;"/><path d="M805,604.65 C805,619.0721 805,635.0902 805,646.9977 " fill="none" style="stroke: #A80036; stroke-width: 1.0;"/><polygon fill="none" points="798,604.424,805,584.424,812,604.424,798,604.424" style="stroke: #A80036; stroke-width: 1.0;"/><path d="M235.634,301.459 C237.263,375.628 252.659,537.575 352,611 C410.916,654.5461 621.251,663.355 733.39,664.8917 " fill="none" style="stroke: #A80036; stroke-width: 1.0; stroke-dasharray: 7.0,7.0;"/><polygon fill="none" points="228.632,301.116,235.496,281.069,242.631,301.022,228.632,301.116" style="stroke: #A80036; stroke-width: 1.0;"/><path d="M848.082,594.53 C875.94,611.038 911.525,632.1259 936.48,646.9141 " fill="none" style="stroke: #A80036; stroke-width: 1.0;"/><polygon fill="none" points="844.307,600.43,830.669,584.211,851.444,588.386,844.307,600.43" style="stroke: #A80036; stroke-width: 1.0;"/></g></svg>