<?xml version="1.0" encoding="UTF-8" standalone="yes"?><svg xmlns="http://www.w3.org/2000/svg" xmlns:xlink="http://www.w3.org/1999/xlink" height="782px" style="width:1033px;height:782px;" version="1.1" viewBox="0 0 1033 782" width="1033px"><defs/><g><rect fill="#FFFFFF" height="567" style="stroke: #000000; stroke-width: 2.0;" width="378" x="22" y="24"/><text fill="#000000" font-family="sans-serif" font-size="14" font-weight="bold" lengthAdjust="spacingAndGlyphs" textLength="193" x="114.5" y="39.5352">com.msgilligan.bitcoinj.rpc</text><rect fill="#FFFFFF" height="184" style="stroke: #000000; stroke-width: 2.0;" width="228" x="770" y="407"/><text fill="#000000" font-family="sans-serif" font-size="14" font-weight="bold" lengthAdjust="spacingAndGlyphs" textLength="212" x="778" y="422.5352">com.msgilligan.namecoinj.rpc</text><rect fill="#FFFFFF" height="276" style="stroke: #000000; stroke-width: 2.0;" width="322" x="424" y="505"/><text fill="#000000" font-family="sans-serif" font-size="14" font-weight="bold" lengthAdjust="spacingAndGlyphs" textLength="144" x="513" y="520.5352">foundation.omni.rpc</text><rect fill="#FEFECE" height="32" style="stroke: #A80036; stroke-width: 1.5;" width="135" x="150.5" y="59"/><ellipse cx="165.5" cy="75" fill="#B4A7E5" rx="11" ry="11" style="stroke: #A80036; stroke-width: 1.0;"/><path d="M161.4277,70.7651 L161.4277,68.6069 L168.8071,68.6069 L168.8071,70.7651 L166.3418,70.7651 L166.3418,78.8418 L168.8071,78.8418 L168.8071,81 L161.4277,81 L161.4277,78.8418 L163.8931,78.8418 L163.8931,70.7651 Z "/><text fill="#000000" font-family="sans-serif" font-size="12" font-style="italic" lengthAdjust="spacingAndGlyphs" textLength="103" x="179.5" y="79.5352">UntypedRPCClient</text><rect fill="#FEFECE" height="32" style="stroke: #A80036; stroke-width: 1.5;" width="135" x="98.5" y="151"/><ellipse cx="113.5" cy="167" fill="#A9DCDF" rx="11" ry="11" style="stroke: #A80036; stroke-width: 1.0;"/><path d="M113.6133,162.3481 L112.4595,167.4199 L114.7754,167.4199 Z M112.1191,160.1069 L115.1157,160.1069 L118.4609,172.5 L116.0122,172.5 L115.2485,169.437 L111.9697,169.437 L111.2227,172.5 L108.7739,172.5 Z "/><text fill="#000000" font-family="sans-serif" font-size="12" font-style="italic" lengthAdjust="spacingAndGlyphs" textLength="103" x="127.5" y="171.5352">AbstractRPCClient</text><rect fill="#FEFECE" height="32" style="stroke: #A80036; stroke-width: 1.5;" width="87" x="110.5" y="246"/><ellipse cx="125.5" cy="262" fill="#ADD1B2" rx="11" ry="11" style="stroke: #A80036; stroke-width: 1.0;"/><path d="M128.4731,267.6431 Q127.8921,267.9419 127.2529,268.0913 Q126.6138,268.2407 125.9082,268.2407 Q123.4014,268.2407 122.0815,266.5889 Q120.7617,264.937 120.7617,261.8159 Q120.7617,258.6865 122.0815,257.0347 Q123.4014,255.3828 125.9082,255.3828 Q126.6138,255.3828 127.2612,255.5322 Q127.9087,255.6816 128.4731,255.9805 L128.4731,258.7031 Q127.8423,258.1221 127.2488,257.8523 Q126.6553,257.5825 126.0244,257.5825 Q124.6797,257.5825 123.9949,258.6492 Q123.3101,259.7158 123.3101,261.8159 Q123.3101,263.9077 123.9949,264.9744 Q124.6797,266.041 126.0244,266.041 Q126.6553,266.041 127.2488,265.7712 Q127.8423,265.5015 128.4731,264.9204 Z "/><text fill="#000000" font-family="sans-serif" font-size="12" lengthAdjust="spacingAndGlyphs" textLength="55" x="139.5" y="266.5352">RPCClient</text><rect fill="#FEFECE" height="32" style="stroke: #A80036; stroke-width: 1.5;" width="101" x="74.5" y="344"/><ellipse cx="89.5" cy="360" fill="#ADD1B2" rx="11" ry="11" style="stroke: #A80036; stroke-width: 1.0;"/><path d="M92.4731,365.6431 Q91.8921,365.9419 91.2529,366.0913 Q90.6138,366.2407 89.9082,366.2407 Q87.4014,366.2407 86.0815,364.5889 Q84.7617,362.937 84.7617,359.8159 Q84.7617,356.6865 86.0815,355.0347 Q87.4014,353.3828 89.9082,353.3828 Q90.6138,353.3828 91.2612,353.5322 Q91.9087,353.6816 92.4731,353.9805 L92.4731,356.7031 Q91.8423,356.1221 91.2488,355.8523 Q90.6553,355.5825 90.0244,355.5825 Q88.6797,355.5825 87.9949,356.6492 Q87.3101,357.7158 87.3101,359.8159 Q87.3101,361.9077 87.9949,362.9744 Q88.6797,364.041 90.0244,364.041 Q90.6553,364.041 91.2488,363.7712 Q91.8423,363.5015 92.4731,362.9204 Z "/><text fill="#000000" font-family="sans-serif" font-size="12" lengthAdjust="spacingAndGlyphs" textLength="69" x="103.5" y="364.5352">BitcoinClient</text><rect fill="#FEFECE" height="32" style="stroke: #A80036; stroke-width: 1.5;" width="156" x="191" y="442"/><ellipse cx="206" cy="458" fill="#ADD1B2" rx="11" ry="11" style="stroke: #A80036; stroke-width: 1.0;"/><path d="M208.9731,463.6431 Q208.3921,463.9419 207.7529,464.0913 Q207.1138,464.2407 206.4082,464.2407 Q203.9014,464.2407 202.5815,462.5889 Q201.2617,460.937 201.2617,457.8159 Q201.2617,454.6865 202.5815,453.0347 Q203.9014,451.3828 206.4082,451.3828 Q207.1138,451.3828 207.7612,451.5322 Q208.4087,451.6816 208.9731,451.9805 L208.9731,454.7031 Q208.3423,454.1221 207.7488,453.8523 Q207.1553,453.5825 206.5244,453.5825 Q205.1797,453.5825 204.4949,454.6492 Q203.8101,455.7158 203.8101,457.8159 Q203.8101,459.9077 204.4949,460.9744 Q205.1797,462.041 206.5244,462.041 Q207.1553,462.041 207.7488,461.7712 Q208.3423,461.5015 208.9731,460.9204 Z "/><text fill="#000000" font-family="sans-serif" font-size="12" lengthAdjust="spacingAndGlyphs" textLength="124" x="220" y="462.5352">BitcoinExtendedClient</text><rect fill="#FEFECE" height="38.2656" style="stroke: #A80036; stroke-width: 1.5;" width="151" x="232.5" y="243"/><ellipse cx="247.5" cy="262.1328" fill="#B4A7E5" rx="11" ry="11" style="stroke: #A80036; stroke-width: 1.0;"/><path d="M243.4277,257.8979 L243.4277,255.7397 L250.8071,255.7397 L250.8071,257.8979 L248.3418,257.8979 L248.3418,265.9746 L250.8071,265.9746 L250.8071,268.1328 L243.4277,268.1328 L243.4277,265.9746 L245.8931,265.9746 L245.8931,257.8979 Z "/><text fill="#000000" font-family="sans-serif" font-size="12" font-style="italic" lengthAdjust="spacingAndGlyphs" textLength="83" x="279.5" y="259.6016">«Groovy, trait»</text><text fill="#000000" font-family="sans-serif" font-size="12" font-style="italic" lengthAdjust="spacingAndGlyphs" textLength="119" x="261.5" y="273.7344">DynamicRPCFallback</text><rect fill="#FEFECE" height="38.2656" style="stroke: #A80036; stroke-width: 1.5;" width="136" x="211" y="341"/><ellipse cx="226" cy="360.1328" fill="#ADD1B2" rx="11" ry="11" style="stroke: #A80036; stroke-width: 1.0;"/><path d="M228.9731,365.7759 Q228.3921,366.0747 227.7529,366.2241 Q227.1138,366.3735 226.4082,366.3735 Q223.9014,366.3735 222.5815,364.7217 Q221.2617,363.0698 221.2617,359.9487 Q221.2617,356.8193 222.5815,355.1675 Q223.9014,353.5156 226.4082,353.5156 Q227.1138,353.5156 227.7612,353.665 Q228.4087,353.8145 228.9731,354.1133 L228.9731,356.8359 Q228.3423,356.2549 227.7488,355.9851 Q227.1553,355.7153 226.5244,355.7153 Q225.1797,355.7153 224.4949,356.782 Q223.8101,357.8486 223.8101,359.9487 Q223.8101,362.0405 224.4949,363.1072 Q225.1797,364.1738 226.5244,364.1738 Q227.1553,364.1738 227.7488,363.9041 Q228.3423,363.6343 228.9731,363.0532 Z "/><text fill="#000000" font-family="sans-serif" font-size="12" font-style="italic" lengthAdjust="spacingAndGlyphs" textLength="52" x="266" y="357.6016">«Groovy»</text><text fill="#000000" font-family="sans-serif" font-size="12" lengthAdjust="spacingAndGlyphs" textLength="104" x="240" y="371.7344">DynamicRPCClient</text><rect fill="#FEFECE" height="38.2656" style="stroke: #A80036; stroke-width: 1.5;" width="150" x="214" y="537"/><ellipse cx="229" cy="556.1328" fill="#ADD1B2" rx="11" ry="11" style="stroke: #A80036; stroke-width: 1.0;"/><path d="M231.9731,561.7759 Q231.3921,562.0747 230.7529,562.2241 Q230.1138,562.3735 229.4082,562.3735 Q226.9014,562.3735 225.5815,560.7217 Q224.2617,559.0698 224.2617,555.9487 Q224.2617,552.8193 225.5815,551.1675 Q226.9014,549.5156 229.4082,549.5156 Q230.1138,549.5156 230.7612,549.665 Q231.4087,549.8145 231.9731,550.1133 L231.9731,552.8359 Q231.3423,552.2549 230.7488,551.9851 Q230.1553,551.7153 229.5244,551.7153 Q228.1797,551.7153 227.4949,552.782 Q226.8101,553.8486 226.8101,555.9487 Q226.8101,558.0405 227.4949,559.1072 Q228.1797,560.1738 229.5244,560.1738 Q230.1553,560.1738 230.7488,559.9041 Q231.3423,559.6343 231.9731,559.0532 Z "/><text fill="#000000" font-family="sans-serif" font-size="12" font-style="italic" lengthAdjust="spacingAndGlyphs" textLength="52" x="276" y="553.6016">«Groovy»</text><text fill="#000000" font-family="sans-serif" font-size="12" lengthAdjust="spacingAndGlyphs" textLength="118" x="243" y="567.7344">BitcoinScriptingClient</text><rect fill="#FEFECE" height="38.2656" style="stroke: #A80036; stroke-width: 1.5;" width="118" x="38" y="439"/><ellipse cx="53" cy="458.1328" fill="#ADD1B2" rx="11" ry="11" style="stroke: #A80036; stroke-width: 1.0;"/><path d="M55.9731,463.7759 Q55.3921,464.0747 54.7529,464.2241 Q54.1138,464.3735 53.4082,464.3735 Q50.9014,464.3735 49.5815,462.7217 Q48.2617,461.0698 48.2617,457.9487 Q48.2617,454.8193 49.5815,453.1675 Q50.9014,451.5156 53.4082,451.5156 Q54.1138,451.5156 54.7612,451.665 Q55.4087,451.8145 55.9731,452.1133 L55.9731,454.8359 Q55.3423,454.2549 54.7488,453.9851 Q54.1553,453.7153 53.5244,453.7153 Q52.1797,453.7153 51.4949,454.782 Q50.8101,455.8486 50.8101,457.9487 Q50.8101,460.0405 51.4949,461.1072 Q52.1797,462.1738 53.5244,462.1738 Q54.1553,462.1738 54.7488,461.9041 Q55.3423,461.6343 55.9731,461.0532 Z "/><text fill="#000000" font-family="sans-serif" font-size="12" font-style="italic" lengthAdjust="spacingAndGlyphs" textLength="52" x="84" y="455.6016">«Groovy»</text><text fill="#000000" font-family="sans-serif" font-size="12" lengthAdjust="spacingAndGlyphs" textLength="86" x="67" y="469.7344">BitcoinCLIClient</text><rect fill="#FEFECE" height="32" style="stroke: #A80036; stroke-width: 1.5;" width="121" x="786.5" y="442"/><ellipse cx="801.5" cy="458" fill="#ADD1B2" rx="11" ry="11" style="stroke: #A80036; stroke-width: 1.0;"/><path d="M804.4731,463.6431 Q803.8921,463.9419 803.2529,464.0913 Q802.6138,464.2407 801.9082,464.2407 Q799.4014,464.2407 798.0815,462.5889 Q796.7617,460.937 796.7617,457.8159 Q796.7617,454.6865 798.0815,453.0347 Q799.4014,451.3828 801.9082,451.3828 Q802.6138,451.3828 803.2612,451.5322 Q803.9087,451.6816 804.4731,451.9805 L804.4731,454.7031 Q803.8423,454.1221 803.2488,453.8523 Q802.6553,453.5825 802.0244,453.5825 Q800.6797,453.5825 799.9949,454.6492 Q799.3101,455.7158 799.3101,457.8159 Q799.3101,459.9077 799.9949,460.9744 Q800.6797,462.041 802.0244,462.041 Q802.6553,462.041 803.2488,461.7712 Q803.8423,461.5015 804.4731,460.9204 Z "/><text fill="#000000" font-family="sans-serif" font-size="12" lengthAdjust="spacingAndGlyphs" textLength="89" x="815.5" y="462.5352">NamecoinClient</text><rect fill="#FEFECE" height="38.2656" style="stroke: #A80036; stroke-width: 1.5;" width="170" x="786" y="537"/><ellipse cx="801" cy="556.1328" fill="#ADD1B2" rx="11" ry="11" style="stroke: #A80036; stroke-width: 1.0;"/><path d="M803.9731,561.7759 Q803.3921,562.0747 802.7529,562.2241 Q802.1138,562.3735 801.4082,562.3735 Q798.9014,562.3735 797.5815,560.7217 Q796.2617,559.0698 796.2617,555.9487 Q796.2617,552.8193 797.5815,551.1675 Q798.9014,549.5156 801.4082,549.5156 Q802.1138,549.5156 802.7612,549.665 Q803.4087,549.8145 803.9731,550.1133 L803.9731,552.8359 Q803.3423,552.2549 802.7488,551.9851 Q802.1553,551.7153 801.5244,551.7153 Q800.1797,551.7153 799.4949,552.782 Q798.8101,553.8486 798.8101,555.9487 Q798.8101,558.0405 799.4949,559.1072 Q800.1797,560.1738 801.5244,560.1738 Q802.1553,560.1738 802.7488,559.9041 Q803.3423,559.6343 803.9731,559.0532 Z "/><text fill="#000000" font-family="sans-serif" font-size="12" font-style="italic" lengthAdjust="spacingAndGlyphs" textLength="52" x="858" y="553.6016">«Groovy»</text><text fill="#000000" font-family="sans-serif" font-size="12" lengthAdjust="spacingAndGlyphs" textLength="138" x="815" y="567.7344">NamecoinScriptingClient</text><rect fill="#FEFECE" height="32" style="stroke: #A80036; stroke-width: 1.5;" width="94" x="454" y="540"/><ellipse cx="469" cy="556" fill="#ADD1B2" rx="11" ry="11" style="stroke: #A80036; stroke-width: 1.0;"/><path d="M471.9731,561.6431 Q471.3921,561.9419 470.7529,562.0913 Q470.1138,562.2407 469.4082,562.2407 Q466.9014,562.2407 465.5815,560.5889 Q464.2617,558.937 464.2617,555.8159 Q464.2617,552.6865 465.5815,551.0347 Q466.9014,549.3828 469.4082,549.3828 Q470.1138,549.3828 470.7612,549.5322 Q471.4087,549.6816 471.9731,549.9805 L471.9731,552.7031 Q471.3423,552.1221 470.7488,551.8523 Q470.1553,551.5825 469.5244,551.5825 Q468.1797,551.5825 467.4949,552.6492 Q466.8101,553.7158 466.8101,555.8159 Q466.8101,557.9077 467.4949,558.9744 Q468.1797,560.041 469.5244,560.041 Q470.1553,560.041 470.7488,559.7712 Q471.3423,559.5015 471.9731,558.9204 Z "/><text fill="#000000" font-family="sans-serif" font-size="12" lengthAdjust="spacingAndGlyphs" textLength="62" x="483" y="560.5352">OmniClient</text><rect fill="#FEFECE" height="32" style="stroke: #A80036; stroke-width: 1.5;" width="149" x="440.5" y="635"/><ellipse cx="455.5" cy="651" fill="#ADD1B2" rx="11" ry="11" style="stroke: #A80036; stroke-width: 1.0;"/><path d="M458.4731,656.6431 Q457.8921,656.9419 457.2529,657.0913 Q456.6138,657.2407 455.9082,657.2407 Q453.4014,657.2407 452.0815,655.5889 Q450.7617,653.937 450.7617,650.8159 Q450.7617,647.6865 452.0815,646.0347 Q453.4014,644.3828 455.9082,644.3828 Q456.6138,644.3828 457.2612,644.5322 Q457.9087,644.6816 458.4731,644.9805 L458.4731,647.7031 Q457.8423,647.1221 457.2488,646.8523 Q456.6553,646.5825 456.0244,646.5825 Q454.6797,646.5825 453.9949,647.6492 Q453.3101,648.7158 453.3101,650.8159 Q453.3101,652.9077 453.9949,653.9744 Q454.6797,655.041 456.0244,655.041 Q456.6553,655.041 457.2488,654.7712 Q457.8423,654.5015 458.4731,653.9204 Z "/><text fill="#000000" font-family="sans-serif" font-size="12" lengthAdjust="spacingAndGlyphs" textLength="117" x="469.5" y="655.5352">OmniExtendedClient</text><rect fill="#FEFECE" height="38.2656" style="stroke: #A80036; stroke-width: 1.5;" width="143" x="586.5" y="727"/><ellipse cx="601.5" cy="746.1328" fill="#ADD1B2" rx="11" ry="11" style="stroke: #A80036; stroke-width: 1.0;"/><path d="M604.4731,751.7759 Q603.8921,752.0747 603.2529,752.2241 Q602.6138,752.3735 601.9082,752.3735 Q599.4014,752.3735 598.0815,750.7217 Q596.7617,749.0698 596.7617,745.9487 Q596.7617,742.8193 598.0815,741.1675 Q599.4014,739.5156 601.9082,739.5156 Q602.6138,739.5156 603.2612,739.665 Q603.9087,739.8145 604.4731,740.1133 L604.4731,742.8359 Q603.8423,742.2549 603.2488,741.9851 Q602.6553,741.7153 602.0244,741.7153 Q600.6797,741.7153 599.9949,742.782 Q599.3101,743.8486 599.3101,745.9487 Q599.3101,748.0405 599.9949,749.1072 Q600.6797,750.1738 602.0244,750.1738 Q602.6553,750.1738 603.2488,749.9041 Q603.8423,749.6343 604.4731,749.0532 Z "/><text fill="#000000" font-family="sans-serif" font-size="12" font-style="italic" lengthAdjust="spacingAndGlyphs" textLength="52" x="645" y="743.6016">«Groovy»</text><text fill="#000000" font-family="sans-serif" font-size="12" lengthAdjust="spacingAndGlyphs" textLength="111" x="615.5" y="757.7344">OmniScriptingClient</text><rect fill="#FEFECE" height="38.2656" style="stroke: #A80036; stroke-width: 1.5;" width="111" x="440.5" y="727"/><ellipse cx="455.5" cy="746.1328" fill="#ADD1B2" rx="11" ry="11" style="stroke: #A80036; stroke-width: 1.0;"/><path d="M458.4731,751.7759 Q457.8921,752.0747 457.2529,752.2241 Q456.6138,752.3735 455.9082,752.3735 Q453.4014,752.3735 452.0815,750.7217 Q450.7617,749.0698 450.7617,745.9487 Q450.7617,742.8193 452.0815,741.1675 Q453.4014,739.5156 455.9082,739.5156 Q456.6138,739.5156 457.2612,739.665 Q457.9087,739.8145 458.4731,740.1133 L458.4731,742.8359 Q457.8423,742.2549 457.2488,741.9851 Q456.6553,741.7153 456.0244,741.7153 Q454.6797,741.7153 453.9949,742.782 Q453.3101,743.8486 453.3101,745.9487 Q453.3101,748.0405 453.9949,749.1072 Q454.6797,750.1738 456.0244,750.1738 Q456.6553,750.1738 457.2488,749.9041 Q457.8423,749.6343 458.4731,749.0532 Z "/><text fill="#000000" font-family="sans-serif" font-size="12" font-style="italic" lengthAdjust="spacingAndGlyphs" textLength="52" x="483" y="743.6016">«Groovy»</text><text fill="#000000" font-family="sans-serif" font-size="12" lengthAdjust="spacingAndGlyphs" textLength="79" x="469.5" y="757.7344">OmniCLIClient</text><path d="M199.127,108.666 C190.768,123.133 181.344,139.443 174.691,150.958 " fill="none" style="stroke: #A80036; stroke-width: 1.0; stroke-dasharray: 7.0,7.0;"/><polygon fill="none" points="193.112,105.083,209.179,91.267,205.234,112.087,193.112,105.083" style="stroke: #A80036; stroke-width: 1.0;"/><path d="M161.436,203.372 C159.534,218.108 157.429,234.429 155.945,245.929 " fill="none" style="stroke: #A80036; stroke-width: 1.0;"/><polygon fill="none" points="154.516,202.297,164.018,183.357,168.401,204.088,154.516,202.297" style="stroke: #A80036; stroke-width: 1.0;"/><path d="M234.213,109.327 C253.264,148.488 284.181,212.038 299.222,242.956 " fill="none" style="stroke: #A80036; stroke-width: 1.0; stroke-dasharray: 7.0,7.0;"/><polygon fill="none" points="227.82,112.186,225.365,91.139,240.409,106.062,227.82,112.186" style="stroke: #A80036; stroke-width: 1.0;"/><path d="M189.736,290.445 C210.828,306.644 236.932,326.692 255.451,340.914 " fill="none" style="stroke: #A80036; stroke-width: 1.0;"/><polygon fill="none" points="185.405,295.945,173.807,278.211,193.932,284.842,185.405,295.945" style="stroke: #A80036; stroke-width: 1.0;"/><path d="M296.686,300.454 C292.511,314.273 287.966,329.319 284.529,340.698 " fill="none" style="stroke: #A80036; stroke-width: 1.0; stroke-dasharray: 7.0,7.0;"/><polygon fill="none" points="290.061,298.178,302.545,281.057,303.463,302.227,290.061,298.178" style="stroke: #A80036; stroke-width: 1.0;"/><path d="M143.507,297.735 C138.713,313.606 133.284,331.578 129.552,343.931 " fill="none" style="stroke: #A80036; stroke-width: 1.0;"/><polygon fill="none" points="136.856,295.545,149.341,278.424,150.258,299.594,136.856,295.545" style="stroke: #A80036; stroke-width: 1.0;"/><path d="M164.611,387.407 C190.881,404.921 224.419,427.28 246.29,441.86 " fill="none" style="stroke: #A80036; stroke-width: 1.0;"/><polygon fill="none" points="160.575,393.13,147.817,376.211,168.341,381.481,160.575,393.13" style="stroke: #A80036; stroke-width: 1.0;"/><path d="M276.321,494.139 C279.353,508.692 282.739,524.949 285.25,536.998 " fill="none" style="stroke: #A80036; stroke-width: 1.0;"/><polygon fill="none" points="269.44,495.431,272.213,474.424,283.145,492.576,269.44,495.431" style="stroke: #A80036; stroke-width: 1.0;"/><path d="M339.445,297.035 C349.292,309.854 358.909,325.181 364,341 C382.516,398.539 386.583,420.933 364,477 C354.104,501.57 332.357,522.737 314.816,536.796 " fill="none" style="stroke: #A80036; stroke-width: 1.0; stroke-dasharray: 7.0,7.0;"/><polygon fill="none" points="333.743,301.13,326.278,281.298,344.481,292.146,333.743,301.13" style="stroke: #A80036; stroke-width: 1.0;"/><path d="M114.9,395.629 C110.617,410.312 105.8059,426.808 102.2507,438.998 " fill="none" style="stroke: #A80036; stroke-width: 1.0;"/><polygon fill="none" points="108.181,393.664,120.501,376.424,121.621,397.584,108.181,393.664" style="stroke: #A80036; stroke-width: 1.0;"/><path d="M195.603,378.912 C287.374,394.529 314.077,389.277 400,399 C538.41,414.662 700.45,436.585 786.344,448.49 " fill="none" style="stroke: #A80036; stroke-width: 1.0;"/><polygon fill="none" points="194.139,385.762,175.669,375.376,196.584,371.977,194.139,385.762" style="stroke: #A80036; stroke-width: 1.0;"/><path d="M855.721,493.883 C859.376,508.502 863.47,524.879 866.499,536.998 " fill="none" style="stroke: #A80036; stroke-width: 1.0; stroke-dasharray: 7.0,7.0;"/><polygon fill="none" points="848.916,495.525,850.856,474.424,862.498,492.129,848.916,495.525" style="stroke: #A80036; stroke-width: 1.0;"/><path d="M403.755,269.843 C560.444,283.253 860.682,318.961 925,399 C958.751,441 913.808,505.445 887.55,536.717 " fill="none" style="stroke: #A80036; stroke-width: 1.0; stroke-dasharray: 7.0,7.0;"/><polygon fill="none" points="402.906,276.797,383.552,268.17,404.062,262.845,402.906,276.797" style="stroke: #A80036; stroke-width: 1.0;"/><path d="M351.277,479.6 C367.669,484.612 384.576,490.446 400,497 C428.101,508.941 458.191,526.974 478.147,539.759 " fill="none" style="stroke: #A80036; stroke-width: 1.0;"/><polygon fill="none" points="349.281,486.31,332.033,474.002,353.192,472.867,349.281,486.31" style="stroke: #A80036; stroke-width: 1.0;"/><path d="M506.325,592.372 C508.543,607.108 511,623.429 512.731,634.929 " fill="none" style="stroke: #A80036; stroke-width: 1.0;"/><polygon fill="none" points="499.367,593.176,503.312,572.357,513.211,591.092,499.367,593.176" style="stroke: #A80036; stroke-width: 1.0;"/><path d="M555.239,678.17 C579.195,693.749 608.979,713.1194 630.305,726.9886 " fill="none" style="stroke: #A80036; stroke-width: 1.0;"/><polygon fill="none" points="551.244,683.921,538.294,667.149,558.876,672.185,551.244,683.921" style="stroke: #A80036; stroke-width: 1.0;"/><path d="M403.745,270.247 C545.451,281.915 803.578,307.04 890,341 C965.846,370.805 1032,375.508 1032,457 C1032,457 1032,457 1032,557 C1032,690.899 838.266,729.4418 729.668,740.5287 " fill="none" style="stroke: #A80036; stroke-width: 1.0; stroke-dasharray: 7.0,7.0;"/><polygon fill="none" points="403.086,277.217,383.717,268.624,404.217,263.263,403.086,277.217" style="stroke: #A80036; stroke-width: 1.0;"/><path d="M507.792,687.279 C505.045,700.7273 502.025,715.507 499.73,726.7441 " fill="none" style="stroke: #A80036; stroke-width: 1.0;"/><polygon fill="none" points="501.001,685.551,511.863,667.357,514.717,688.353,501.001,685.551" style="stroke: #A80036; stroke-width: 1.0;"/></g></svg>