<?xml version="1.0" encoding="UTF-8" standalone="yes"?><svg xmlns="http://www.w3.org/2000/svg" xmlns:xlink="http://www.w3.org/1999/xlink" height="758pt" style="width:958px;height:758px;" version="1.1" viewBox="0 0 958 758" width="958pt"><defs/><g><rect fill="#FFFFFF" height="551" style="stroke: #000000; stroke-width: 2.0;" width="362" x="14" y="16"/><text fill="#000000" font-family="sans-serif" font-size="14" font-weight="bold" lengthAdjust="spacingAndGlyphs" textLength="193" x="98.5" y="34.5352">com.msgilligan.bitcoinj.rpc</text><rect fill="#FFFFFF" height="168" style="stroke: #000000; stroke-width: 2.0;" width="228" x="703" y="399"/><text fill="#000000" font-family="sans-serif" font-size="14" font-weight="bold" lengthAdjust="spacingAndGlyphs" textLength="212" x="711" y="417.5352">com.msgilligan.namecoinj.rpc</text><rect fill="#FFFFFF" height="260" style="stroke: #000000; stroke-width: 2.0;" width="311" x="384" y="497"/><text fill="#000000" font-family="sans-serif" font-size="14" font-weight="bold" lengthAdjust="spacingAndGlyphs" textLength="144" x="467.5" y="515.5352">foundation.omni.rpc</text><rect fill="#FEFECE" height="32" style="stroke: #A80036; stroke-width: 1.5;" width="135" x="134.5" y="43"/><ellipse cx="149.5" cy="59" fill="#B4A7E5" rx="11" ry="11" style="stroke: #A80036; stroke-width: 1.0;"/><path d="M145.4277,54.7651 L145.4277,52.6069 L152.8071,52.6069 L152.8071,54.7651 L150.3418,54.7651 L150.3418,62.8418 L152.8071,62.8418 L152.8071,65 L145.4277,65 L145.4277,62.8418 L147.8931,62.8418 L147.8931,54.7651 Z "/><text fill="#000000" font-family="sans-serif" font-size="12" font-style="italic" lengthAdjust="spacingAndGlyphs" textLength="103" x="163.5" y="63.5352">UntypedRPCClient</text><rect fill="#FEFECE" height="32" style="stroke: #A80036; stroke-width: 1.5;" width="135" x="82.5" y="135"/><ellipse cx="97.5" cy="151" fill="#A9DCDF" rx="11" ry="11" style="stroke: #A80036; stroke-width: 1.0;"/><path d="M97.6133,146.3481 L96.4595,151.4199 L98.7754,151.4199 Z M96.1191,144.1069 L99.1157,144.1069 L102.4609,156.5 L100.0122,156.5 L99.2485,153.437 L95.9697,153.437 L95.2227,156.5 L92.7739,156.5 Z "/><text fill="#000000" font-family="sans-serif" font-size="12" font-style="italic" lengthAdjust="spacingAndGlyphs" textLength="103" x="111.5" y="155.5352">AbstractRPCClient</text><rect fill="#FEFECE" height="32" style="stroke: #A80036; stroke-width: 1.5;" width="87" x="94.5" y="230"/><ellipse cx="109.5" cy="246" fill="#ADD1B2" rx="11" ry="11" style="stroke: #A80036; stroke-width: 1.0;"/><path d="M112.4731,251.6431 Q111.8921,251.9419 111.2529,252.0913 Q110.6138,252.2407 109.9082,252.2407 Q107.4014,252.2407 106.0815,250.5889 Q104.7617,248.937 104.7617,245.8159 Q104.7617,242.6865 106.0815,241.0347 Q107.4014,239.3828 109.9082,239.3828 Q110.6138,239.3828 111.2612,239.5322 Q111.9087,239.6816 112.4731,239.9805 L112.4731,242.7031 Q111.8423,242.1221 111.2488,241.8523 Q110.6553,241.5825 110.0244,241.5825 Q108.6797,241.5825 107.9949,242.6492 Q107.3101,243.7158 107.3101,245.8159 Q107.3101,247.9077 107.9949,248.9744 Q108.6797,250.041 110.0244,250.041 Q110.6553,250.041 111.2488,249.7712 Q111.8423,249.5015 112.4731,248.9204 Z "/><text fill="#000000" font-family="sans-serif" font-size="12" lengthAdjust="spacingAndGlyphs" textLength="55" x="123.5" y="250.5352">RPCClient</text><rect fill="#FEFECE" height="32" style="stroke: #A80036; stroke-width: 1.5;" width="101" x="58.5" y="328"/><ellipse cx="73.5" cy="344" fill="#ADD1B2" rx="11" ry="11" style="stroke: #A80036; stroke-width: 1.0;"/><path d="M76.4731,349.6431 Q75.8921,349.9419 75.2529,350.0913 Q74.6138,350.2407 73.9082,350.2407 Q71.4014,350.2407 70.0815,348.5889 Q68.7617,346.937 68.7617,343.8159 Q68.7617,340.6865 70.0815,339.0347 Q71.4014,337.3828 73.9082,337.3828 Q74.6138,337.3828 75.2612,337.5322 Q75.9087,337.6816 76.4731,337.9805 L76.4731,340.7031 Q75.8423,340.1221 75.2488,339.8523 Q74.6553,339.5825 74.0244,339.5825 Q72.6797,339.5825 71.9949,340.6492 Q71.3101,341.7158 71.3101,343.8159 Q71.3101,345.9077 71.9949,346.9744 Q72.6797,348.041 74.0244,348.041 Q74.6553,348.041 75.2488,347.7712 Q75.8423,347.5015 76.4731,346.9204 Z "/><text fill="#000000" font-family="sans-serif" font-size="12" lengthAdjust="spacingAndGlyphs" textLength="69" x="87.5" y="348.5352">BitcoinClient</text><rect fill="#FEFECE" height="32" style="stroke: #A80036; stroke-width: 1.5;" width="156" x="175" y="426"/><ellipse cx="190" cy="442" fill="#ADD1B2" rx="11" ry="11" style="stroke: #A80036; stroke-width: 1.0;"/><path d="M192.9731,447.6431 Q192.3921,447.9419 191.7529,448.0913 Q191.1138,448.2407 190.4082,448.2407 Q187.9014,448.2407 186.5815,446.5889 Q185.2617,444.937 185.2617,441.8159 Q185.2617,438.6865 186.5815,437.0347 Q187.9014,435.3828 190.4082,435.3828 Q191.1138,435.3828 191.7612,435.5322 Q192.4087,435.6816 192.9731,435.9805 L192.9731,438.7031 Q192.3423,438.1221 191.7488,437.8523 Q191.1553,437.5825 190.5244,437.5825 Q189.1797,437.5825 188.4949,438.6492 Q187.8101,439.7158 187.8101,441.8159 Q187.8101,443.9077 188.4949,444.9744 Q189.1797,446.041 190.5244,446.041 Q191.1553,446.041 191.7488,445.7712 Q192.3423,445.5015 192.9731,444.9204 Z "/><text fill="#000000" font-family="sans-serif" font-size="12" lengthAdjust="spacingAndGlyphs" textLength="124" x="204" y="446.5352">BitcoinExtendedClient</text><rect fill="#FEFECE" height="38.2656" style="stroke: #A80036; stroke-width: 1.5;" width="151" x="216.5" y="227"/><ellipse cx="231.5" cy="246.1328" fill="#B4A7E5" rx="11" ry="11" style="stroke: #A80036; stroke-width: 1.0;"/><path d="M227.4277,241.8979 L227.4277,239.7397 L234.8071,239.7397 L234.8071,241.8979 L232.3418,241.8979 L232.3418,249.9746 L234.8071,249.9746 L234.8071,252.1328 L227.4277,252.1328 L227.4277,249.9746 L229.8931,249.9746 L229.8931,241.8979 Z "/><text fill="#000000" font-family="sans-serif" font-size="12" font-style="italic" lengthAdjust="spacingAndGlyphs" textLength="119" x="245.5" y="243.6016">&lt;&lt; Groovy, trait &gt;&gt;</text><text fill="#000000" font-family="sans-serif" font-size="12" font-style="italic" lengthAdjust="spacingAndGlyphs" textLength="119" x="245.5" y="257.7344">DynamicRPCFallback</text><rect fill="#FEFECE" height="38.2656" style="stroke: #A80036; stroke-width: 1.5;" width="136" x="195" y="325"/><ellipse cx="210" cy="344.1328" fill="#ADD1B2" rx="11" ry="11" style="stroke: #A80036; stroke-width: 1.0;"/><path d="M212.9731,349.7759 Q212.3921,350.0747 211.7529,350.2241 Q211.1138,350.3735 210.4082,350.3735 Q207.9014,350.3735 206.5815,348.7217 Q205.2617,347.0698 205.2617,343.9487 Q205.2617,340.8193 206.5815,339.1675 Q207.9014,337.5156 210.4082,337.5156 Q211.1138,337.5156 211.7612,337.665 Q212.4087,337.8145 212.9731,338.1133 L212.9731,340.8359 Q212.3423,340.2549 211.7488,339.9851 Q211.1553,339.7153 210.5244,339.7153 Q209.1797,339.7153 208.4949,340.782 Q207.8101,341.8486 207.8101,343.9487 Q207.8101,346.0405 208.4949,347.1072 Q209.1797,348.1738 210.5244,348.1738 Q211.1553,348.1738 211.7488,347.9041 Q212.3423,347.6343 212.9731,347.0532 Z "/><text fill="#000000" font-family="sans-serif" font-size="12" font-style="italic" lengthAdjust="spacingAndGlyphs" textLength="88" x="232" y="341.6016">&lt;&lt; Groovy &gt;&gt;</text><text fill="#000000" font-family="sans-serif" font-size="12" lengthAdjust="spacingAndGlyphs" textLength="104" x="224" y="355.7344">DynamicRPCClient</text><rect fill="#FEFECE" height="38.2656" style="stroke: #A80036; stroke-width: 1.5;" width="150" x="198" y="521"/><ellipse cx="213" cy="540.1328" fill="#ADD1B2" rx="11" ry="11" style="stroke: #A80036; stroke-width: 1.0;"/><path d="M215.9731,545.7759 Q215.3921,546.0747 214.7529,546.2241 Q214.1138,546.3735 213.4082,546.3735 Q210.9014,546.3735 209.5815,544.7217 Q208.2617,543.0698 208.2617,539.9487 Q208.2617,536.8193 209.5815,535.1675 Q210.9014,533.5156 213.4082,533.5156 Q214.1138,533.5156 214.7612,533.665 Q215.4087,533.8145 215.9731,534.1133 L215.9731,536.8359 Q215.3423,536.2549 214.7488,535.9851 Q214.1553,535.7153 213.5244,535.7153 Q212.1797,535.7153 211.4949,536.782 Q210.8101,537.8486 210.8101,539.9487 Q210.8101,542.0405 211.4949,543.1072 Q212.1797,544.1738 213.5244,544.1738 Q214.1553,544.1738 214.7488,543.9041 Q215.3423,543.6343 215.9731,543.0532 Z "/><text fill="#000000" font-family="sans-serif" font-size="12" font-style="italic" lengthAdjust="spacingAndGlyphs" textLength="88" x="242" y="537.6016">&lt;&lt; Groovy &gt;&gt;</text><text fill="#000000" font-family="sans-serif" font-size="12" lengthAdjust="spacingAndGlyphs" textLength="118" x="227" y="551.7344">BitcoinScriptingClient</text><rect fill="#FEFECE" height="38.2656" style="stroke: #A80036; stroke-width: 1.5;" width="118" x="22" y="423"/><ellipse cx="37" cy="442.1328" fill="#ADD1B2" rx="11" ry="11" style="stroke: #A80036; stroke-width: 1.0;"/><path d="M39.9731,447.7759 Q39.3921,448.0747 38.7529,448.2241 Q38.1138,448.3735 37.4082,448.3735 Q34.9014,448.3735 33.5815,446.7217 Q32.2617,445.0698 32.2617,441.9487 Q32.2617,438.8193 33.5815,437.1675 Q34.9014,435.5156 37.4082,435.5156 Q38.1138,435.5156 38.7612,435.665 Q39.4087,435.8145 39.9731,436.1133 L39.9731,438.8359 Q39.3423,438.2549 38.7488,437.9851 Q38.1553,437.7153 37.5244,437.7153 Q36.1797,437.7153 35.4949,438.782 Q34.8101,439.8486 34.8101,441.9487 Q34.8101,444.0405 35.4949,445.1072 Q36.1797,446.1738 37.5244,446.1738 Q38.1553,446.1738 38.7488,445.9041 Q39.3423,445.6343 39.9731,445.0532 Z "/><text fill="#000000" font-family="sans-serif" font-size="12" font-style="italic" lengthAdjust="spacingAndGlyphs" textLength="88" x="50" y="439.6016">&lt;&lt; Groovy &gt;&gt;</text><text fill="#000000" font-family="sans-serif" font-size="12" lengthAdjust="spacingAndGlyphs" textLength="86" x="51" y="453.7344">BitcoinCLIClient</text><rect fill="#FEFECE" height="32" style="stroke: #A80036; stroke-width: 1.5;" width="121" x="711.5" y="426"/><ellipse cx="726.5" cy="442" fill="#ADD1B2" rx="11" ry="11" style="stroke: #A80036; stroke-width: 1.0;"/><path d="M729.4731,447.6431 Q728.8921,447.9419 728.2529,448.0913 Q727.6138,448.2407 726.9082,448.2407 Q724.4014,448.2407 723.0815,446.5889 Q721.7617,444.937 721.7617,441.8159 Q721.7617,438.6865 723.0815,437.0347 Q724.4014,435.3828 726.9082,435.3828 Q727.6138,435.3828 728.2612,435.5322 Q728.9087,435.6816 729.4731,435.9805 L729.4731,438.7031 Q728.8423,438.1221 728.2488,437.8523 Q727.6553,437.5825 727.0244,437.5825 Q725.6797,437.5825 724.9949,438.6492 Q724.3101,439.7158 724.3101,441.8159 Q724.3101,443.9077 724.9949,444.9744 Q725.6797,446.041 727.0244,446.041 Q727.6553,446.041 728.2488,445.7712 Q728.8423,445.5015 729.4731,444.9204 Z "/><text fill="#000000" font-family="sans-serif" font-size="12" lengthAdjust="spacingAndGlyphs" textLength="89" x="740.5" y="446.5352">NamecoinClient</text><rect fill="#FEFECE" height="38.2656" style="stroke: #A80036; stroke-width: 1.5;" width="170" x="722" y="521"/><ellipse cx="737" cy="540.1328" fill="#ADD1B2" rx="11" ry="11" style="stroke: #A80036; stroke-width: 1.0;"/><path d="M739.9731,545.7759 Q739.3921,546.0747 738.7529,546.2241 Q738.1138,546.3735 737.4082,546.3735 Q734.9014,546.3735 733.5815,544.7217 Q732.2617,543.0698 732.2617,539.9487 Q732.2617,536.8193 733.5815,535.1675 Q734.9014,533.5156 737.4082,533.5156 Q738.1138,533.5156 738.7612,533.665 Q739.4087,533.8145 739.9731,534.1133 L739.9731,536.8359 Q739.3423,536.2549 738.7488,535.9851 Q738.1553,535.7153 737.5244,535.7153 Q736.1797,535.7153 735.4949,536.782 Q734.8101,537.8486 734.8101,539.9487 Q734.8101,542.0405 735.4949,543.1072 Q736.1797,544.1738 737.5244,544.1738 Q738.1553,544.1738 738.7488,543.9041 Q739.3423,543.6343 739.9731,543.0532 Z "/><text fill="#000000" font-family="sans-serif" font-size="12" font-style="italic" lengthAdjust="spacingAndGlyphs" textLength="88" x="776" y="537.6016">&lt;&lt; Groovy &gt;&gt;</text><text fill="#000000" font-family="sans-serif" font-size="12" lengthAdjust="spacingAndGlyphs" textLength="138" x="751" y="551.7344">NamecoinScriptingClient</text><rect fill="#FEFECE" height="32" style="stroke: #A80036; stroke-width: 1.5;" width="94" x="406" y="524"/><ellipse cx="421" cy="540" fill="#ADD1B2" rx="11" ry="11" style="stroke: #A80036; stroke-width: 1.0;"/><path d="M423.9731,545.6431 Q423.3921,545.9419 422.7529,546.0913 Q422.1138,546.2407 421.4082,546.2407 Q418.9014,546.2407 417.5815,544.5889 Q416.2617,542.937 416.2617,539.8159 Q416.2617,536.6865 417.5815,535.0347 Q418.9014,533.3828 421.4082,533.3828 Q422.1138,533.3828 422.7612,533.5322 Q423.4087,533.6816 423.9731,533.9805 L423.9731,536.7031 Q423.3423,536.1221 422.7488,535.8523 Q422.1553,535.5825 421.5244,535.5825 Q420.1797,535.5825 419.4949,536.6492 Q418.8101,537.7158 418.8101,539.8159 Q418.8101,541.9077 419.4949,542.9744 Q420.1797,544.041 421.5244,544.041 Q422.1553,544.041 422.7488,543.7712 Q423.3423,543.5015 423.9731,542.9204 Z "/><text fill="#000000" font-family="sans-serif" font-size="12" lengthAdjust="spacingAndGlyphs" textLength="62" x="435" y="544.5352">OmniClient</text><rect fill="#FEFECE" height="32" style="stroke: #A80036; stroke-width: 1.5;" width="149" x="392.5" y="619"/><ellipse cx="407.5" cy="635" fill="#ADD1B2" rx="11" ry="11" style="stroke: #A80036; stroke-width: 1.0;"/><path d="M410.4731,640.6431 Q409.8921,640.9419 409.2529,641.0913 Q408.6138,641.2407 407.9082,641.2407 Q405.4014,641.2407 404.0815,639.5889 Q402.7617,637.937 402.7617,634.8159 Q402.7617,631.6865 404.0815,630.0347 Q405.4014,628.3828 407.9082,628.3828 Q408.6138,628.3828 409.2612,628.5322 Q409.9087,628.6816 410.4731,628.9805 L410.4731,631.7031 Q409.8423,631.1221 409.2488,630.8523 Q408.6553,630.5825 408.0244,630.5825 Q406.6797,630.5825 405.9949,631.6492 Q405.3101,632.7158 405.3101,634.8159 Q405.3101,636.9077 405.9949,637.9744 Q406.6797,639.041 408.0244,639.041 Q408.6553,639.041 409.2488,638.7712 Q409.8423,638.5015 410.4731,637.9204 Z "/><text fill="#000000" font-family="sans-serif" font-size="12" lengthAdjust="spacingAndGlyphs" textLength="117" x="421.5" y="639.5352">OmniExtendedClient</text><rect fill="#FEFECE" height="38.2656" style="stroke: #A80036; stroke-width: 1.5;" width="143" x="543.5" y="711"/><ellipse cx="558.5" cy="730.1328" fill="#ADD1B2" rx="11" ry="11" style="stroke: #A80036; stroke-width: 1.0;"/><path d="M561.4731,735.7759 Q560.8921,736.0747 560.2529,736.2241 Q559.6138,736.3735 558.9082,736.3735 Q556.4014,736.3735 555.0815,734.7217 Q553.7617,733.0698 553.7617,729.9487 Q553.7617,726.8193 555.0815,725.1675 Q556.4014,723.5156 558.9082,723.5156 Q559.6138,723.5156 560.2612,723.665 Q560.9087,723.8145 561.4731,724.1133 L561.4731,726.8359 Q560.8423,726.2549 560.2488,725.9851 Q559.6553,725.7153 559.0244,725.7153 Q557.6797,725.7153 556.9949,726.782 Q556.3101,727.8486 556.3101,729.9487 Q556.3101,732.0405 556.9949,733.1072 Q557.6797,734.1738 559.0244,734.1738 Q559.6553,734.1738 560.2488,733.9041 Q560.8423,733.6343 561.4731,733.0532 Z "/><text fill="#000000" font-family="sans-serif" font-size="12" font-style="italic" lengthAdjust="spacingAndGlyphs" textLength="88" x="584" y="727.6016">&lt;&lt; Groovy &gt;&gt;</text><text fill="#000000" font-family="sans-serif" font-size="12" lengthAdjust="spacingAndGlyphs" textLength="111" x="572.5" y="741.7344">OmniScriptingClient</text><rect fill="#FEFECE" height="38.2656" style="stroke: #A80036; stroke-width: 1.5;" width="116" x="392" y="711"/><ellipse cx="407" cy="730.1328" fill="#ADD1B2" rx="11" ry="11" style="stroke: #A80036; stroke-width: 1.0;"/><path d="M409.9731,735.7759 Q409.3921,736.0747 408.7529,736.2241 Q408.1138,736.3735 407.4082,736.3735 Q404.9014,736.3735 403.5815,734.7217 Q402.2617,733.0698 402.2617,729.9487 Q402.2617,726.8193 403.5815,725.1675 Q404.9014,723.5156 407.4082,723.5156 Q408.1138,723.5156 408.7612,723.665 Q409.4087,723.8145 409.9731,724.1133 L409.9731,726.8359 Q409.3423,726.2549 408.7488,725.9851 Q408.1553,725.7153 407.5244,725.7153 Q406.1797,725.7153 405.4949,726.782 Q404.8101,727.8486 404.8101,729.9487 Q404.8101,732.0405 405.4949,733.1072 Q406.1797,734.1738 407.5244,734.1738 Q408.1553,734.1738 408.7488,733.9041 Q409.3423,733.6343 409.9731,733.0532 Z "/><text fill="#000000" font-family="sans-serif" font-size="12" font-style="italic" lengthAdjust="spacingAndGlyphs" textLength="88" x="419" y="727.6016">&lt;&lt; Groovy &gt;&gt;</text><text fill="#000000" font-family="sans-serif" font-size="12" lengthAdjust="spacingAndGlyphs" textLength="79" x="423.5" y="741.7344">OmniCLIClient</text><path d="M183.127,92.666 C174.768,107.133 165.344,123.443 158.691,134.958 " fill="none" style="stroke: #A80036; stroke-width: 1.0; stroke-dasharray: 7.0,7.0;"/><polygon fill="none" points="177.112,89.083,193.179,75.267,189.234,96.087,177.112,89.083" style="stroke: #A80036; stroke-width: 1.0;"/><path d="M145.436,187.372 C143.534,202.108 141.429,218.429 139.945,229.929 " fill="none" style="stroke: #A80036; stroke-width: 1.0;"/><polygon fill="none" points="138.516,186.297,148.018,167.357,152.401,188.088,138.516,186.297" style="stroke: #A80036; stroke-width: 1.0;"/><path d="M218.213,93.327 C237.264,132.488 268.181,196.038 283.222,226.956 " fill="none" style="stroke: #A80036; stroke-width: 1.0; stroke-dasharray: 7.0,7.0;"/><polygon fill="none" points="211.82,96.186,209.365,75.139,224.409,90.062,211.82,96.186" style="stroke: #A80036; stroke-width: 1.0;"/><path d="M173.736,274.445 C194.828,290.644 220.932,310.692 239.451,324.914 " fill="none" style="stroke: #A80036; stroke-width: 1.0;"/><polygon fill="none" points="169.405,279.945,157.807,262.211,177.932,268.842,169.405,279.945" style="stroke: #A80036; stroke-width: 1.0;"/><path d="M280.686,284.454 C276.511,298.273 271.966,313.319 268.529,324.698 " fill="none" style="stroke: #A80036; stroke-width: 1.0; stroke-dasharray: 7.0,7.0;"/><polygon fill="none" points="274.061,282.178,286.545,265.057,287.463,286.227,274.061,282.178" style="stroke: #A80036; stroke-width: 1.0;"/><path d="M127.507,281.735 C122.713,297.606 117.284,315.578 113.552,327.931 " fill="none" style="stroke: #A80036; stroke-width: 1.0;"/><polygon fill="none" points="120.856,279.545,133.341,262.424,134.258,283.594,120.856,279.545" style="stroke: #A80036; stroke-width: 1.0;"/><path d="M148.611,371.407 C174.881,388.921 208.419,411.28 230.29,425.86 " fill="none" style="stroke: #A80036; stroke-width: 1.0;"/><polygon fill="none" points="144.575,377.13,131.817,360.211,152.341,365.481,144.575,377.13" style="stroke: #A80036; stroke-width: 1.0;"/><path d="M260.321,478.139 C263.353,492.692 266.739,508.949 269.25,520.998 " fill="none" style="stroke: #A80036; stroke-width: 1.0;"/><polygon fill="none" points="253.44,479.431,256.213,458.424,267.145,476.576,253.44,479.431" style="stroke: #A80036; stroke-width: 1.0;"/><path d="M323.445,281.035 C333.292,293.854 342.909,309.181 348,325 C366.516,382.539 370.583,404.933 348,461 C338.104,485.57 316.357,506.737 298.816,520.796 " fill="none" style="stroke: #A80036; stroke-width: 1.0; stroke-dasharray: 7.0,7.0;"/><polygon fill="none" points="317.743,285.13,310.278,265.298,328.481,276.146,317.743,285.13" style="stroke: #A80036; stroke-width: 1.0;"/><path d="M98.9,379.629 C94.6175,394.312 89.8059,410.808 86.2507,422.998 " fill="none" style="stroke: #A80036; stroke-width: 1.0;"/><polygon fill="none" points="92.1812,377.664,104.5013,360.424,105.6212,381.584,92.1812,377.664" style="stroke: #A80036; stroke-width: 1.0;"/><path d="M179.522,363.064 C384.861,402.629 606.427,425.822 711.194,435.631 " fill="none" style="stroke: #A80036; stroke-width: 1.0;"/><polygon fill="none" points="177.987,369.896,159.705,359.184,180.678,356.157,177.987,369.896" style="stroke: #A80036; stroke-width: 1.0;"/><path d="M784.532,477.374 C789.909,492.121 795.967,508.738 800.437,520.998 " fill="none" style="stroke: #A80036; stroke-width: 1.0; stroke-dasharray: 7.0,7.0;"/><polygon fill="none" points="777.897,479.612,777.623,458.424,791.051,474.816,777.897,479.612" style="stroke: #A80036; stroke-width: 1.0;"/><path d="M387.63,259.08 C531.834,279.479 794.094,325.828 850,399 C878.403,436.175 843.763,492.235 822.031,520.828 " fill="none" style="stroke: #A80036; stroke-width: 1.0; stroke-dasharray: 7.0,7.0;"/><polygon fill="none" points="386.525,265.993,367.674,256.316,388.446,252.126,386.525,265.993" style="stroke: #A80036; stroke-width: 1.0;"/><path d="M313.058,465.473 C335.65,474.518 361.341,485.522 384,497 C399.888,505.048 416.994,515.448 430.199,523.885 " fill="none" style="stroke: #A80036; stroke-width: 1.0;"/><polygon fill="none" points="310.224,471.881,294.157,458.066,315.332,458.846,310.224,471.881" style="stroke: #A80036; stroke-width: 1.0;"/><path d="M458.325,576.372 C460.543,591.108 463,607.429 464.731,618.929 " fill="none" style="stroke: #A80036; stroke-width: 1.0;"/><polygon fill="none" points="451.367,577.176,455.312,556.357,465.211,575.092,451.367,577.176" style="stroke: #A80036; stroke-width: 1.0;"/><path d="M508.282,661.941 C533.137,677.559 564.157,697.0514 586.337,710.9886 " fill="none" style="stroke: #A80036; stroke-width: 1.0;"/><polygon fill="none" points="504.318,667.7171,491.108,651.149,511.767,655.863,504.318,667.7171" style="stroke: #A80036; stroke-width: 1.0;"/><path d="M387.722,254.865 C571.776,272.64 957,323.837 957,441 C957,441 957,441 957,541 C957,663.297 786.98,706.5976 686.694,721.5008 " fill="none" style="stroke: #A80036; stroke-width: 1.0; stroke-dasharray: 7.0,7.0;"/><polygon fill="none" points="386.895,261.819,367.637,252.981,388.203,247.88,386.895,261.819" style="stroke: #A80036; stroke-width: 1.0;"/><path d="M460.551,671.2793 C458.093,684.7273 455.391,699.507 453.337,710.7441 " fill="none" style="stroke: #A80036; stroke-width: 1.0;"/><polygon fill="none" points="453.71,669.7723,464.193,651.357,467.482,672.2898,453.71,669.7723" style="stroke: #A80036; stroke-width: 1.0;"/></g></svg>