<?xml version="1.0" encoding="UTF-8" standalone="no"?><svg xmlns="http://www.w3.org/2000/svg" xmlns:xlink="http://www.w3.org/1999/xlink" contentScriptType="application/ecmascript" contentStyleType="text/css" height="638px" preserveAspectRatio="none" style="width:1028px;height:638px;" version="1.1" viewBox="0 0 1028 638" width="1028px" zoomAndPan="magnify"><defs/><g><!--MD5=[d6c030b82a1d27386b42aabafd2ac567]
cluster org.consensusj.jsonrpc--><rect fill="#FFFFFF" height="395" style="stroke: #000000; stroke-width: 1.5;" width="330" x="22" y="24"/><text fill="#000000" font-family="sans-serif" font-size="14" font-weight="bold" lengthAdjust="spacingAndGlyphs" textLength="163" x="105.5" y="39.5352">org.consensusj.jsonrpc</text><!--MD5=[9ed5e7af55394a2731ac5e85ed4b1bb0]
cluster org.consensusj.jsonrpc.groovy--><rect fill="#FFFFFF" height="187" style="stroke: #000000; stroke-width: 1.5;" width="184" x="46" y="208"/><text fill="#000000" font-family="sans-serif" font-size="14" font-weight="bold" lengthAdjust="spacingAndGlyphs" textLength="49" x="113.5" y="223.5352">groovy</text><!--MD5=[4462e5a7ada4a6446805a6dfdef7c751]
cluster com.msgilligan.bitcoinj.rpc--><rect fill="#FFFFFF" height="318" style="stroke: #000000; stroke-width: 1.5;" width="341" x="376" y="309"/><text fill="#000000" font-family="sans-serif" font-size="14" font-weight="bold" lengthAdjust="spacingAndGlyphs" textLength="193" x="450" y="324.5352">com.msgilligan.bitcoinj.rpc</text><!--MD5=[8606d50010ac5e5e113b9075d3040b50]
cluster com.msgilligan.namecoinj.rpc--><rect fill="#FFFFFF" height="184" style="stroke: #000000; stroke-width: 1.5;" width="228" x="789" y="443"/><text fill="#000000" font-family="sans-serif" font-size="14" font-weight="bold" lengthAdjust="spacingAndGlyphs" textLength="212" x="797" y="458.5352">com.msgilligan.namecoinj.rpc</text><!--MD5=[ad0d229bdcb240a568cd38186268d7ac]
class org.consensusj.jsonrpc.UntypedRPCClient--><rect fill="#FEFECE" height="32" id="org.consensusj.jsonrpc.UntypedRPCClient" style="stroke: #A80036; stroke-width: 1.5;" width="135" x="128.5" y="59"/><ellipse cx="143.5" cy="75" fill="#B4A7E5" rx="11" ry="11" style="stroke: #A80036; stroke-width: 1.0;"/><path d="M139.9277,71.2651 L139.9277,69.1069 L147.3071,69.1069 L147.3071,71.2651 L144.8418,71.2651 L144.8418,79.3418 L147.3071,79.3418 L147.3071,81.5 L139.9277,81.5 L139.9277,79.3418 L142.3931,79.3418 L142.3931,71.2651 Z "/><text fill="#000000" font-family="sans-serif" font-size="12" font-style="italic" lengthAdjust="spacingAndGlyphs" textLength="103" x="157.5" y="79.5352">UntypedRPCClient</text><!--MD5=[fe1b1fb034d9fa1ba96db31d9e9e9e4c]
class org.consensusj.jsonrpc.AbstractRPCClient--><rect fill="#FEFECE" height="32" id="org.consensusj.jsonrpc.AbstractRPCClient" style="stroke: #A80036; stroke-width: 1.5;" width="135" x="193.5" y="151"/><ellipse cx="208.5" cy="167" fill="#A9DCDF" rx="11" ry="11" style="stroke: #A80036; stroke-width: 1.0;"/><path d="M208.3633,162.3481 L207.2095,167.4199 L209.5254,167.4199 Z M206.8691,160.1069 L209.8657,160.1069 L213.2109,172.5 L210.7622,172.5 L209.9985,169.437 L206.7197,169.437 L205.9727,172.5 L203.5239,172.5 Z "/><text fill="#000000" font-family="sans-serif" font-size="12" font-style="italic" lengthAdjust="spacingAndGlyphs" textLength="103" x="222.5" y="171.5352">AbstractRPCClient</text><!--MD5=[ec5220eb9ce4eb7f88154e5bcaaf099b]
class org.consensusj.jsonrpc.RPCClient--><rect fill="#FEFECE" height="32" id="org.consensusj.jsonrpc.RPCClient" style="stroke: #A80036; stroke-width: 1.5;" width="87" x="248.5" y="246"/><ellipse cx="263.5" cy="262" fill="#ADD1B2" rx="11" ry="11" style="stroke: #A80036; stroke-width: 1.0;"/><path d="M265.9731,268.1431 Q265.3921,268.4419 264.7529,268.5913 Q264.1138,268.7407 263.4082,268.7407 Q260.9014,268.7407 259.5815,267.0889 Q258.2617,265.437 258.2617,262.3159 Q258.2617,259.1865 259.5815,257.5347 Q260.9014,255.8828 263.4082,255.8828 Q264.1138,255.8828 264.7612,256.0322 Q265.4087,256.1816 265.9731,256.4805 L265.9731,259.2031 Q265.3423,258.6221 264.7488,258.3523 Q264.1553,258.0825 263.5244,258.0825 Q262.1797,258.0825 261.4949,259.1492 Q260.8101,260.2158 260.8101,262.3159 Q260.8101,264.4077 261.4949,265.4744 Q262.1797,266.541 263.5244,266.541 Q264.1553,266.541 264.7488,266.2712 Q265.3423,266.0015 265.9731,265.4204 Z "/><text fill="#000000" font-family="sans-serif" font-size="12" lengthAdjust="spacingAndGlyphs" textLength="55" x="277.5" y="266.5352">RPCClient</text><!--MD5=[95eb2e9ab907cda403eccbb557abeac4]
class org.consensusj.jsonrpc.groovy.DynamicRPCFallback--><rect fill="#FEFECE" height="38.2656" id="org.consensusj.jsonrpc.groovy.DynamicRPCFallback" style="stroke: #A80036; stroke-width: 1.5;" width="151" x="62.5" y="243"/><ellipse cx="77.5" cy="262.1328" fill="#B4A7E5" rx="11" ry="11" style="stroke: #A80036; stroke-width: 1.0;"/><path d="M73.9277,258.3979 L73.9277,256.2397 L81.3071,256.2397 L81.3071,258.3979 L78.8418,258.3979 L78.8418,266.4746 L81.3071,266.4746 L81.3071,268.6328 L73.9277,268.6328 L73.9277,266.4746 L76.3931,266.4746 L76.3931,258.3979 Z "/><text fill="#000000" font-family="sans-serif" font-size="12" font-style="italic" lengthAdjust="spacingAndGlyphs" textLength="83" x="109.5" y="259.6016">«Groovy, trait»</text><text fill="#000000" font-family="sans-serif" font-size="12" font-style="italic" lengthAdjust="spacingAndGlyphs" textLength="119" x="91.5" y="273.7344">DynamicRPCFallback</text><!--MD5=[b8d854c9242faad3e2549ec1e5e42f04]
class org.consensusj.jsonrpc.groovy.DynamicRPCClient--><rect fill="#FEFECE" height="38.2656" id="org.consensusj.jsonrpc.groovy.DynamicRPCClient" style="stroke: #A80036; stroke-width: 1.5;" width="136" x="74" y="341"/><ellipse cx="89" cy="360.1328" fill="#ADD1B2" rx="11" ry="11" style="stroke: #A80036; stroke-width: 1.0;"/><path d="M91.4731,366.2759 Q90.8921,366.5747 90.2529,366.7241 Q89.6138,366.8735 88.9082,366.8735 Q86.4014,366.8735 85.0815,365.2217 Q83.7617,363.5698 83.7617,360.4487 Q83.7617,357.3193 85.0815,355.6675 Q86.4014,354.0156 88.9082,354.0156 Q89.6138,354.0156 90.2612,354.165 Q90.9087,354.3145 91.4731,354.6133 L91.4731,357.3359 Q90.8423,356.7549 90.2488,356.4851 Q89.6553,356.2153 89.0244,356.2153 Q87.6797,356.2153 86.9949,357.282 Q86.3101,358.3486 86.3101,360.4487 Q86.3101,362.5405 86.9949,363.6072 Q87.6797,364.6738 89.0244,364.6738 Q89.6553,364.6738 90.2488,364.4041 Q90.8423,364.1343 91.4731,363.5532 Z "/><text fill="#000000" font-family="sans-serif" font-size="12" font-style="italic" lengthAdjust="spacingAndGlyphs" textLength="52" x="129" y="357.6016">«Groovy»</text><text fill="#000000" font-family="sans-serif" font-size="12" lengthAdjust="spacingAndGlyphs" textLength="104" x="103" y="371.7344">DynamicRPCClient</text><!--MD5=[2009f24862c7d1c04517d5280941209a]
class com.msgilligan.bitcoinj.rpc.BitcoinClient--><rect fill="#FEFECE" height="32" id="com.msgilligan.bitcoinj.rpc.BitcoinClient" style="stroke: #A80036; stroke-width: 1.5;" width="101" x="505.5" y="344"/><ellipse cx="520.5" cy="360" fill="#ADD1B2" rx="11" ry="11" style="stroke: #A80036; stroke-width: 1.0;"/><path d="M522.9731,366.1431 Q522.3921,366.4419 521.7529,366.5913 Q521.1138,366.7407 520.4082,366.7407 Q517.9014,366.7407 516.5815,365.0889 Q515.2617,363.437 515.2617,360.3159 Q515.2617,357.1865 516.5815,355.5347 Q517.9014,353.8828 520.4082,353.8828 Q521.1138,353.8828 521.7612,354.0322 Q522.4087,354.1816 522.9731,354.4805 L522.9731,357.2031 Q522.3423,356.6221 521.7488,356.3523 Q521.1553,356.0825 520.5244,356.0825 Q519.1797,356.0825 518.4949,357.1492 Q517.8101,358.2158 517.8101,360.3159 Q517.8101,362.4077 518.4949,363.4744 Q519.1797,364.541 520.5244,364.541 Q521.1553,364.541 521.7488,364.2712 Q522.3423,364.0015 522.9731,363.4204 Z "/><text fill="#000000" font-family="sans-serif" font-size="12" lengthAdjust="spacingAndGlyphs" textLength="69" x="534.5" y="364.5352">BitcoinClient</text><!--MD5=[76477ddddd1d217159a5fcfdbc722e5d]
class com.msgilligan.bitcoinj.rpc.BitcoinExtendedClient--><rect fill="#FEFECE" height="32" id="com.msgilligan.bitcoinj.rpc.BitcoinExtendedClient" style="stroke: #A80036; stroke-width: 1.5;" width="156" x="392" y="478"/><ellipse cx="407" cy="494" fill="#ADD1B2" rx="11" ry="11" style="stroke: #A80036; stroke-width: 1.0;"/><path d="M409.4731,500.1431 Q408.8921,500.4419 408.2529,500.5913 Q407.6138,500.7407 406.9082,500.7407 Q404.4014,500.7407 403.0815,499.0889 Q401.7617,497.437 401.7617,494.3159 Q401.7617,491.1865 403.0815,489.5347 Q404.4014,487.8828 406.9082,487.8828 Q407.6138,487.8828 408.2612,488.0322 Q408.9087,488.1816 409.4731,488.4805 L409.4731,491.2031 Q408.8423,490.6221 408.2488,490.3523 Q407.6553,490.0825 407.0244,490.0825 Q405.6797,490.0825 404.9949,491.1492 Q404.3101,492.2158 404.3101,494.3159 Q404.3101,496.4077 404.9949,497.4744 Q405.6797,498.541 407.0244,498.541 Q407.6553,498.541 408.2488,498.2712 Q408.8423,498.0015 409.4731,497.4204 Z "/><text fill="#000000" font-family="sans-serif" font-size="12" lengthAdjust="spacingAndGlyphs" textLength="124" x="421" y="498.5352">BitcoinExtendedClient</text><!--MD5=[51614c8a3646fd3ed7a9158ca87f89c1]
class com.msgilligan.bitcoinj.rpc.BitcoinScriptingClient--><rect fill="#FEFECE" height="38.2656" id="com.msgilligan.bitcoinj.rpc.BitcoinScriptingClient" style="stroke: #A80036; stroke-width: 1.5;" width="150" x="473" y="573"/><ellipse cx="488" cy="592.1328" fill="#ADD1B2" rx="11" ry="11" style="stroke: #A80036; stroke-width: 1.0;"/><path d="M490.4731,598.2759 Q489.8921,598.5747 489.2529,598.7241 Q488.6138,598.8735 487.9082,598.8735 Q485.4014,598.8735 484.0815,597.2217 Q482.7617,595.5698 482.7617,592.4487 Q482.7617,589.3193 484.0815,587.6675 Q485.4014,586.0156 487.9082,586.0156 Q488.6138,586.0156 489.2612,586.165 Q489.9087,586.3145 490.4731,586.6133 L490.4731,589.3359 Q489.8423,588.7549 489.2488,588.4851 Q488.6553,588.2153 488.0244,588.2153 Q486.6797,588.2153 485.9949,589.282 Q485.3101,590.3486 485.3101,592.4487 Q485.3101,594.5405 485.9949,595.6072 Q486.6797,596.6738 488.0244,596.6738 Q488.6553,596.6738 489.2488,596.4041 Q489.8423,596.1343 490.4731,595.5532 Z "/><text fill="#000000" font-family="sans-serif" font-size="12" font-style="italic" lengthAdjust="spacingAndGlyphs" textLength="52" x="535" y="589.6016">«Groovy»</text><text fill="#000000" font-family="sans-serif" font-size="12" lengthAdjust="spacingAndGlyphs" textLength="118" x="502" y="603.7344">BitcoinScriptingClient</text><!--MD5=[2d16c7c5c9b0ee06fc5dde9a1ef22f6b]
class com.msgilligan.bitcoinj.rpc.BitcoinCLIClient--><rect fill="#FEFECE" height="38.2656" id="com.msgilligan.bitcoinj.rpc.BitcoinCLIClient" style="stroke: #A80036; stroke-width: 1.5;" width="118" x="583" y="475"/><ellipse cx="598" cy="494.1328" fill="#ADD1B2" rx="11" ry="11" style="stroke: #A80036; stroke-width: 1.0;"/><path d="M600.4731,500.2759 Q599.8921,500.5747 599.2529,500.7241 Q598.6138,500.8735 597.9082,500.8735 Q595.4014,500.8735 594.0815,499.2217 Q592.7617,497.5698 592.7617,494.4487 Q592.7617,491.3193 594.0815,489.6675 Q595.4014,488.0156 597.9082,488.0156 Q598.6138,488.0156 599.2612,488.165 Q599.9087,488.3145 600.4731,488.6133 L600.4731,491.3359 Q599.8423,490.7549 599.2488,490.4851 Q598.6553,490.2153 598.0244,490.2153 Q596.6797,490.2153 595.9949,491.282 Q595.3101,492.3486 595.3101,494.4487 Q595.3101,496.5405 595.9949,497.6072 Q596.6797,498.6738 598.0244,498.6738 Q598.6553,498.6738 599.2488,498.4041 Q599.8423,498.1343 600.4731,497.5532 Z "/><text fill="#000000" font-family="sans-serif" font-size="12" font-style="italic" lengthAdjust="spacingAndGlyphs" textLength="52" x="629" y="491.6016">«Groovy»</text><text fill="#000000" font-family="sans-serif" font-size="12" lengthAdjust="spacingAndGlyphs" textLength="86" x="612" y="505.7344">BitcoinCLIClient</text><!--MD5=[8d1a58b40ff6584e87f90b72b9c467bb]
class com.msgilligan.namecoinj.rpc.NamecoinClient--><rect fill="#FEFECE" height="32" id="com.msgilligan.namecoinj.rpc.NamecoinClient" style="stroke: #A80036; stroke-width: 1.5;" width="121" x="807.5" y="478"/><ellipse cx="822.5" cy="494" fill="#ADD1B2" rx="11" ry="11" style="stroke: #A80036; stroke-width: 1.0;"/><path d="M824.9731,500.1431 Q824.3921,500.4419 823.7529,500.5913 Q823.1138,500.7407 822.4082,500.7407 Q819.9014,500.7407 818.5815,499.0889 Q817.2617,497.437 817.2617,494.3159 Q817.2617,491.1865 818.5815,489.5347 Q819.9014,487.8828 822.4082,487.8828 Q823.1138,487.8828 823.7612,488.0322 Q824.4087,488.1816 824.9731,488.4805 L824.9731,491.2031 Q824.3423,490.6221 823.7488,490.3523 Q823.1553,490.0825 822.5244,490.0825 Q821.1797,490.0825 820.4949,491.1492 Q819.8101,492.2158 819.8101,494.3159 Q819.8101,496.4077 820.4949,497.4744 Q821.1797,498.541 822.5244,498.541 Q823.1553,498.541 823.7488,498.2712 Q824.3423,498.0015 824.9731,497.4204 Z "/><text fill="#000000" font-family="sans-serif" font-size="12" lengthAdjust="spacingAndGlyphs" textLength="89" x="836.5" y="498.5352">NamecoinClient</text><!--MD5=[b888057ddd3481d3e45f486b686edb8c]
class com.msgilligan.namecoinj.rpc.NamecoinScriptingClient--><rect fill="#FEFECE" height="38.2656" id="com.msgilligan.namecoinj.rpc.NamecoinScriptingClient" style="stroke: #A80036; stroke-width: 1.5;" width="170" x="806" y="573"/><ellipse cx="821" cy="592.1328" fill="#ADD1B2" rx="11" ry="11" style="stroke: #A80036; stroke-width: 1.0;"/><path d="M823.4731,598.2759 Q822.8921,598.5747 822.2529,598.7241 Q821.6138,598.8735 820.9082,598.8735 Q818.4014,598.8735 817.0815,597.2217 Q815.7617,595.5698 815.7617,592.4487 Q815.7617,589.3193 817.0815,587.6675 Q818.4014,586.0156 820.9082,586.0156 Q821.6138,586.0156 822.2612,586.165 Q822.9087,586.3145 823.4731,586.6133 L823.4731,589.3359 Q822.8423,588.7549 822.2488,588.4851 Q821.6553,588.2153 821.0244,588.2153 Q819.6797,588.2153 818.9949,589.282 Q818.3101,590.3486 818.3101,592.4487 Q818.3101,594.5405 818.9949,595.6072 Q819.6797,596.6738 821.0244,596.6738 Q821.6553,596.6738 822.2488,596.4041 Q822.8423,596.1343 823.4731,595.5532 Z "/><text fill="#000000" font-family="sans-serif" font-size="12" font-style="italic" lengthAdjust="spacingAndGlyphs" textLength="52" x="878" y="589.6016">«Groovy»</text><text fill="#000000" font-family="sans-serif" font-size="12" lengthAdjust="spacingAndGlyphs" textLength="138" x="835" y="603.7344">NamecoinScriptingClient</text><!--MD5=[55e85de615a0d82180c4f1a100c1ba3e]
reverse link org.consensusj.jsonrpc.UntypedRPCClient to org.consensusj.jsonrpc.AbstractRPCClient--><path d="M218.89,107.69 C229.51,122.4 241.63,139.18 250.14,150.96 " fill="none" id="org.consensusj.jsonrpc.UntypedRPCClient&lt;-org.consensusj.jsonrpc.AbstractRPCClient" style="stroke: #A80036; stroke-width: 1.0; stroke-dasharray: 7.0,7.0;"/><polygon fill="none" points="213.06,111.58,207.03,91.27,224.41,103.38,213.06,111.58" style="stroke: #A80036; stroke-width: 1.0;"/><!--MD5=[c71073c4693fa80f7380ac3f9f8cdbfa]
reverse link org.consensusj.jsonrpc.AbstractRPCClient to org.consensusj.jsonrpc.RPCClient--><path d="M272.45,202.34 C277.45,217.34 283.05,234.16 286.98,245.93 " fill="none" id="org.consensusj.jsonrpc.AbstractRPCClient&lt;-org.consensusj.jsonrpc.RPCClient" style="stroke: #A80036; stroke-width: 1.0;"/><polygon fill="none" points="265.8,204.54,266.12,183.36,279.08,200.12,265.8,204.54" style="stroke: #A80036; stroke-width: 1.0;"/><!--MD5=[f34d5c2cb735170ae5feca584363530d]
reverse link org.consensusj.jsonrpc.UntypedRPCClient to org.consensusj.jsonrpc.groovy.DynamicRPCFallback--><path d="M185.21,110.41 C172.91,149.65 153.26,212.32 143.66,242.96 " fill="none" id="org.consensusj.jsonrpc.UntypedRPCClient&lt;-org.consensusj.jsonrpc.groovy.DynamicRPCFallback" style="stroke: #A80036; stroke-width: 1.0; stroke-dasharray: 7.0,7.0;"/><polygon fill="none" points="178.59,108.13,191.25,91.14,191.95,112.32,178.59,108.13" style="stroke: #A80036; stroke-width: 1.0;"/><!--MD5=[1a0f3b2fff38e721d9638931d5a61af4]
reverse link org.consensusj.jsonrpc.RPCClient to org.consensusj.jsonrpc.groovy.DynamicRPCClient--><path d="M251.37,289.01 C225.69,305.44 193.14,326.27 170.26,340.91 " fill="none" id="org.consensusj.jsonrpc.RPCClient&lt;-org.consensusj.jsonrpc.groovy.DynamicRPCClient" style="stroke: #A80036; stroke-width: 1.0;"/><polygon fill="none" points="247.61,283.1,268.23,278.21,255.16,294.89,247.61,283.1" style="stroke: #A80036; stroke-width: 1.0;"/><!--MD5=[73d78872400e5f783d795ce074ab98af]
reverse link org.consensusj.jsonrpc.groovy.DynamicRPCFallback to org.consensusj.jsonrpc.groovy.DynamicRPCClient--><path d="M139.6,301.43 C140.17,314.98 140.77,329.59 141.24,340.7 " fill="none" id="org.consensusj.jsonrpc.groovy.DynamicRPCFallback&lt;-org.consensusj.jsonrpc.groovy.DynamicRPCClient" style="stroke: #A80036; stroke-width: 1.0; stroke-dasharray: 7.0,7.0;"/><polygon fill="none" points="132.59,301.33,138.75,281.06,146.58,300.75,132.59,301.33" style="stroke: #A80036; stroke-width: 1.0;"/><!--MD5=[68285b92ecd8206e1624cb84ddc23b20]
reverse link org.consensusj.jsonrpc.RPCClient to com.msgilligan.bitcoinj.rpc.BitcoinClient--><path d="M352.52,285.01 C402.19,303.07 471.18,328.16 514.7,343.98 " fill="none" id="org.consensusj.jsonrpc.RPCClient&lt;-com.msgilligan.bitcoinj.rpc.BitcoinClient" style="stroke: #A80036; stroke-width: 1.0;"/><polygon fill="none" points="349.94,291.52,333.54,278.11,354.73,278.36,349.94,291.52" style="stroke: #A80036; stroke-width: 1.0;"/><!--MD5=[f27513694c235359a0e489a776b2afac]
reverse link com.msgilligan.bitcoinj.rpc.BitcoinClient to com.msgilligan.bitcoinj.rpc.BitcoinExtendedClient--><path d="M535.08,393.12 C517.6,419.95 493.44,457.03 480.02,477.63 " fill="none" id="com.msgilligan.bitcoinj.rpc.BitcoinClient&lt;-com.msgilligan.bitcoinj.rpc.BitcoinExtendedClient" style="stroke: #A80036; stroke-width: 1.0;"/><polygon fill="none" points="529.35,389.08,546.13,376.14,541.08,396.72,529.35,389.08" style="stroke: #A80036; stroke-width: 1.0;"/><!--MD5=[9b2766a9823a38dcbfbd9ce73c0f5906]
reverse link com.msgilligan.bitcoinj.rpc.BitcoinExtendedClient to com.msgilligan.bitcoinj.rpc.BitcoinScriptingClient--><path d="M495.47,526.35 C508.03,541.81 522.73,559.89 533.37,573 " fill="none" id="com.msgilligan.bitcoinj.rpc.BitcoinExtendedClient&lt;-com.msgilligan.bitcoinj.rpc.BitcoinScriptingClient" style="stroke: #A80036; stroke-width: 1.0;"/><polygon fill="none" points="489.71,530.36,482.53,510.42,500.58,521.53,489.71,530.36" style="stroke: #A80036; stroke-width: 1.0;"/><!--MD5=[6f861ac1dbc0d6f5e8b94d1df2767467]
reverse link org.consensusj.jsonrpc.groovy.DynamicRPCFallback to com.msgilligan.bitcoinj.rpc.BitcoinScriptingClient--><path d="M233.69,282.02 C319.26,285.93 588.03,281.16 624,301 C714.25,350.78 773.65,426.24 718,513 C696.96,545.8 658.29,564.99 623.15,576.12 " fill="none" id="org.consensusj.jsonrpc.groovy.DynamicRPCFallback&lt;-com.msgilligan.bitcoinj.rpc.BitcoinScriptingClient" style="stroke: #A80036; stroke-width: 1.0; stroke-dasharray: 7.0,7.0;"/><polygon fill="none" points="233.05,289,213.63,280.52,234.1,275.03,233.05,289" style="stroke: #A80036; stroke-width: 1.0;"/><!--MD5=[bebba83580b0979c86c922b649a16aa4]
reverse link com.msgilligan.bitcoinj.rpc.BitcoinClient to com.msgilligan.bitcoinj.rpc.BitcoinCLIClient--><path d="M576.95,393.15 C593.62,418.74 616.35,453.62 630.05,474.66 " fill="none" id="com.msgilligan.bitcoinj.rpc.BitcoinClient&lt;-com.msgilligan.bitcoinj.rpc.BitcoinCLIClient" style="stroke: #A80036; stroke-width: 1.0;"/><polygon fill="none" points="570.92,396.72,565.87,376.14,582.65,389.08,570.92,396.72" style="stroke: #A80036; stroke-width: 1.0;"/><!--MD5=[acd0c3a0b3db9d008d446f0e3e813443]
reverse link com.msgilligan.bitcoinj.rpc.BitcoinClient to com.msgilligan.namecoinj.rpc.NamecoinClient--><path d="M610.24,383.95 C673.89,410.88 777.63,454.77 832.07,477.8 " fill="none" id="com.msgilligan.bitcoinj.rpc.BitcoinClient&lt;-com.msgilligan.namecoinj.rpc.NamecoinClient" style="stroke: #A80036; stroke-width: 1.0;"/><polygon fill="none" points="607.18,390.25,591.49,376.01,612.63,377.36,607.18,390.25" style="stroke: #A80036; stroke-width: 1.0;"/><!--MD5=[0f182c52fbeb1827dfbcd1105c80fb34]
reverse link com.msgilligan.namecoinj.rpc.NamecoinClient to com.msgilligan.namecoinj.rpc.NamecoinScriptingClient--><path d="M876.36,529.88 C879.86,544.5 883.78,560.88 886.69,573 " fill="none" id="com.msgilligan.namecoinj.rpc.NamecoinClient&lt;-com.msgilligan.namecoinj.rpc.NamecoinScriptingClient" style="stroke: #A80036; stroke-width: 1.0; stroke-dasharray: 7.0,7.0;"/><polygon fill="none" points="869.55,531.5,871.7,510.42,883.16,528.24,869.55,531.5" style="stroke: #A80036; stroke-width: 1.0;"/><!--MD5=[9d43dfdc5b57c8dee81db1f490fb0161]
reverse link org.consensusj.jsonrpc.groovy.DynamicRPCFallback to com.msgilligan.namecoinj.rpc.NamecoinScriptingClient--><path d="M233.73,282.66 C357.66,292.98 616.11,271.47 717,301 C830.17,334.12 887.34,332.71 946,435 C963.25,465.07 956.48,479.96 946,513 C938.69,536.06 921.83,558.19 908.69,572.95 " fill="none" id="org.consensusj.jsonrpc.groovy.DynamicRPCFallback&lt;-com.msgilligan.namecoinj.rpc.NamecoinScriptingClient" style="stroke: #A80036; stroke-width: 1.0; stroke-dasharray: 7.0,7.0;"/><polygon fill="none" points="232.79,289.6,213.63,280.53,234.26,275.67,232.79,289.6" style="stroke: #A80036; stroke-width: 1.0;"/><!--MD5=[58785014611afe1a5b387b4a5572c052]
@startuml
skinparam packageStyle Rect
skinparam shadowing false
hide empty members

namespace org.consensusj.jsonrpc {
    interface UntypedRPCClient
    abstract class AbstractRPCClient
    class RPCClient

    UntypedRPCClient <|.. AbstractRPCClient
    AbstractRPCClient <|- - RPCClient

}

namespace org.consensusj.jsonrpc.groovy {
  interface DynamicRPCFallback << Groovy, trait >>
  class DynamicRPCClient << Groovy >>

  org.consensusj.jsonrpc.UntypedRPCClient <|.. DynamicRPCFallback
  org.consensusj.jsonrpc.RPCClient <|- - DynamicRPCClient
  DynamicRPCFallback <|.. DynamicRPCClient
}

namespace com.msgilligan.bitcoinj.rpc {
    class BitcoinClient
    class BitcoinExtendedClient

    class BitcoinScriptingClient << Groovy >>
    class BitcoinCLIClient << Groovy >>


    org.consensusj.jsonrpc.RPCClient <|- - BitcoinClient
    BitcoinClient <|- - BitcoinExtendedClient
    BitcoinExtendedClient <|- - BitcoinScriptingClient
    org.consensusj.jsonrpc.groovy.DynamicRPCFallback <|.. BitcoinScriptingClient
    BitcoinClient <|- - BitcoinCLIClient
}

namespace com.msgilligan.namecoinj.rpc {
    class NamecoinClient
    class NamecoinScriptingClient << Groovy >>

    com.msgilligan.bitcoinj.rpc.BitcoinClient <|- - NamecoinClient
    NamecoinClient <|.. NamecoinScriptingClient
    org.consensusj.jsonrpc.groovy.DynamicRPCFallback <|.. NamecoinScriptingClient
}
@enduml

PlantUML version 1.2019.12(Sun Nov 03 02:24:54 PST 2019)
(APACHE source distribution)
Java Runtime: OpenJDK Runtime Environment
JVM: OpenJDK 64-Bit Server VM
Java Version: 11.0.10+9
Operating System: Mac OS X
Default Encoding: UTF-8
Language: en
Country: US
--></g></svg>